<svg width="102" height="34" viewBox="0 0 102 34" fill="none" xmlns="http://www.w3.org/2000/svg">
<rect x="0.75" y="0.75" width="100.5" height="32.5" rx="16.25" stroke="#6D23F9" stroke-width="1.5"/>
<path d="M11.1186 11.8182H12.983L16.2244 19.733H16.3438L19.5852 11.8182H21.4496V22H19.9879V14.6321H19.8935L16.8906 21.9851H15.6776L12.6747 14.6271H12.5803V22H11.1186V11.8182ZM24.5034 24.8636C24.2813 24.8636 24.0791 24.8454 23.8968 24.8089C23.7145 24.7758 23.5787 24.7393 23.4892 24.6996L23.8471 23.4815C24.1189 23.5545 24.3609 23.5859 24.573 23.576C24.7851 23.5661 24.9724 23.4865 25.1348 23.3374C25.3005 23.1882 25.4463 22.9446 25.5723 22.6065L25.7562 22.0994L22.9622 14.3636H24.5531L26.487 20.2898H26.5666L28.5005 14.3636H30.0964L26.9494 23.0192C26.8036 23.4169 26.618 23.7533 26.3926 24.0284C26.1672 24.3068 25.8987 24.5156 25.5872 24.6548C25.2756 24.794 24.9144 24.8636 24.5034 24.8636ZM35.3178 22V11.8182H36.854V20.6776H41.4677V22H35.3178ZM46.3175 22.1541C45.6016 22.1541 44.9768 21.9901 44.4432 21.6619C43.9096 21.3338 43.4953 20.8748 43.2003 20.2848C42.9053 19.6948 42.7578 19.0054 42.7578 18.2166C42.7578 17.4245 42.9053 16.7318 43.2003 16.1385C43.4953 15.5452 43.9096 15.0845 44.4432 14.7564C44.9768 14.4283 45.6016 14.2642 46.3175 14.2642C47.0334 14.2642 47.6581 14.4283 48.1918 14.7564C48.7254 15.0845 49.1397 15.5452 49.4347 16.1385C49.7296 16.7318 49.8771 17.4245 49.8771 18.2166C49.8771 19.0054 49.7296 19.6948 49.4347 20.2848C49.1397 20.8748 48.7254 21.3338 48.1918 21.6619C47.6581 21.9901 47.0334 22.1541 46.3175 22.1541ZM46.3224 20.9062C46.7865 20.9062 47.1709 20.7836 47.4759 20.5384C47.7808 20.2931 48.0062 19.9666 48.152 19.5589C48.3011 19.1513 48.3757 18.7022 48.3757 18.2116C48.3757 17.7244 48.3011 17.277 48.152 16.8693C48.0062 16.4583 47.7808 16.1286 47.4759 15.88C47.1709 15.6314 46.7865 15.5071 46.3224 15.5071C45.8551 15.5071 45.4673 15.6314 45.1591 15.88C44.8542 16.1286 44.6271 16.4583 44.478 16.8693C44.3321 17.277 44.2592 17.7244 44.2592 18.2116C44.2592 18.7022 44.3321 19.1513 44.478 19.5589C44.6271 19.9666 44.8542 20.2931 45.1591 20.5384C45.4673 20.7836 45.8551 20.9062 46.3224 20.9062ZM54.753 22.1541C54.0139 22.1541 53.3775 21.9867 52.8439 21.652C52.3136 21.3139 51.906 20.8482 51.6209 20.255C51.3359 19.6617 51.1934 18.9822 51.1934 18.2166C51.1934 17.4411 51.3392 16.7566 51.6309 16.1634C51.9225 15.5668 52.3335 15.1011 52.8638 14.7663C53.3941 14.4316 54.0189 14.2642 54.7381 14.2642C55.3181 14.2642 55.8352 14.3719 56.2892 14.5874C56.7433 14.7995 57.1096 15.0978 57.388 15.4822C57.6697 15.8667 57.8371 16.3158 57.8901 16.8295H56.4434C56.3638 16.4716 56.1815 16.1634 55.8965 15.9048C55.6148 15.6463 55.2369 15.517 54.763 15.517C54.3487 15.517 53.9857 15.6264 53.6742 15.8452C53.3659 16.0606 53.1257 16.3688 52.9533 16.7699C52.781 17.1676 52.6948 17.6383 52.6948 18.1818C52.6948 18.7386 52.7793 19.2192 52.9483 19.6236C53.1174 20.0279 53.356 20.3411 53.6642 20.5632C53.9758 20.7853 54.342 20.8963 54.763 20.8963C55.0447 20.8963 55.2999 20.8449 55.5286 20.7422C55.7606 20.6361 55.9545 20.4853 56.1103 20.2898C56.2694 20.0942 56.3804 19.8589 56.4434 19.5838H57.8901C57.8371 20.0777 57.6763 20.5185 57.4078 20.9062C57.1394 21.294 56.7798 21.599 56.329 21.821C55.8816 22.0431 55.3562 22.1541 54.753 22.1541ZM61.7021 22.169C61.2182 22.169 60.7807 22.0795 60.3896 21.9006C59.9985 21.7183 59.6886 21.4548 59.4599 21.1101C59.2345 20.7654 59.1218 20.3428 59.1218 19.8423C59.1218 19.4115 59.2047 19.0568 59.3704 18.7784C59.5361 18.5 59.7598 18.2796 60.0415 18.1172C60.3233 17.9548 60.6381 17.8321 60.9862 17.7493C61.3342 17.6664 61.6888 17.6035 62.0501 17.5604C62.5075 17.5073 62.8787 17.4643 63.1637 17.4311C63.4487 17.3946 63.6559 17.3366 63.7852 17.2571C63.9144 17.1776 63.979 17.0483 63.979 16.8693V16.8345C63.979 16.4003 63.8564 16.0639 63.6112 15.8253C63.3692 15.5866 63.0079 15.4673 62.5273 15.4673C62.0269 15.4673 61.6325 15.5784 61.3441 15.8004C61.0591 16.0192 60.8619 16.2628 60.7525 16.5312L59.3555 16.2131C59.5212 15.7491 59.7631 15.3745 60.0813 15.0895C60.4028 14.8011 60.7724 14.5923 61.19 14.4631C61.6076 14.3305 62.0468 14.2642 62.5075 14.2642C62.8124 14.2642 63.1355 14.3007 63.4769 14.3736C63.8216 14.4432 64.1431 14.5724 64.4414 14.7614C64.743 14.9503 64.9899 15.2204 65.1822 15.5717C65.3744 15.9197 65.4705 16.3722 65.4705 16.929V22H64.0188V20.956H63.9592C63.863 21.1482 63.7189 21.3371 63.5266 21.5227C63.3344 21.7083 63.0875 21.8625 62.7859 21.9851C62.4843 22.1077 62.123 22.169 61.7021 22.169ZM62.0252 20.9759C62.4362 20.9759 62.7875 20.8946 63.0792 20.7322C63.3742 20.5698 63.5979 20.3577 63.7504 20.0959C63.9061 19.8307 63.984 19.5473 63.984 19.2457V18.2614C63.931 18.3144 63.8282 18.3641 63.6758 18.4105C63.5266 18.4536 63.3559 18.4917 63.1637 18.5249C62.9715 18.5547 62.7842 18.5829 62.6019 18.6094C62.4196 18.6326 62.2672 18.6525 62.1445 18.669C61.8562 18.7055 61.5927 18.7668 61.354 18.853C61.1187 18.9392 60.9298 19.0634 60.7873 19.2259C60.6481 19.3849 60.5785 19.5971 60.5785 19.8622C60.5785 20.2301 60.7144 20.5085 60.9862 20.6974C61.2579 20.883 61.6043 20.9759 62.0252 20.9759ZM71.0151 14.3636V15.5568H66.8439V14.3636H71.0151ZM67.9625 12.5341H69.449V19.7578C69.449 20.0462 69.4921 20.2633 69.5783 20.4091C69.6645 20.5516 69.7755 20.6494 69.9114 20.7024C70.0506 20.7521 70.2014 20.777 70.3638 20.777C70.4831 20.777 70.5875 20.7687 70.677 20.7521C70.7665 20.7356 70.8361 20.7223 70.8858 20.7124L71.1543 21.9403C71.0681 21.9735 70.9455 22.0066 70.7864 22.0398C70.6273 22.0762 70.4284 22.0961 70.1898 22.0994C69.7987 22.1061 69.4341 22.0365 69.0961 21.8906C68.758 21.7448 68.4846 21.5194 68.2757 21.2145C68.0669 20.9096 67.9625 20.5268 67.9625 20.0661V12.5341ZM72.6594 22V14.3636H74.146V22H72.6594ZM73.4102 13.1854C73.1516 13.1854 72.9296 13.0992 72.744 12.9268C72.5617 12.7512 72.4705 12.5424 72.4705 12.3004C72.4705 12.0552 72.5617 11.8464 72.744 11.674C72.9296 11.4983 73.1516 11.4105 73.4102 11.4105C73.6687 11.4105 73.8891 11.4983 74.0714 11.674C74.257 11.8464 74.3498 12.0552 74.3498 12.3004C74.3498 12.5424 74.257 12.7512 74.0714 12.9268C73.8891 13.0992 73.6687 13.1854 73.4102 13.1854ZM79.3624 22.1541C78.6465 22.1541 78.0217 21.9901 77.4881 21.6619C76.9545 21.3338 76.5402 20.8748 76.2452 20.2848C75.9502 19.6948 75.8027 19.0054 75.8027 18.2166C75.8027 17.4245 75.9502 16.7318 76.2452 16.1385C76.5402 15.5452 76.9545 15.0845 77.4881 14.7564C78.0217 14.4283 78.6465 14.2642 79.3624 14.2642C80.0783 14.2642 80.7031 14.4283 81.2367 14.7564C81.7703 15.0845 82.1846 15.5452 82.4796 16.1385C82.7746 16.7318 82.9221 17.4245 82.9221 18.2166C82.9221 19.0054 82.7746 19.6948 82.4796 20.2848C82.1846 20.8748 81.7703 21.3338 81.2367 21.6619C80.7031 21.9901 80.0783 22.1541 79.3624 22.1541ZM79.3674 20.9062C79.8314 20.9062 80.2159 20.7836 80.5208 20.5384C80.8257 20.2931 81.0511 19.9666 81.1969 19.5589C81.3461 19.1513 81.4206 18.7022 81.4206 18.2116C81.4206 17.7244 81.3461 17.277 81.1969 16.8693C81.0511 16.4583 80.8257 16.1286 80.5208 15.88C80.2159 15.6314 79.8314 15.5071 79.3674 15.5071C78.9 15.5071 78.5123 15.6314 78.204 15.88C77.8991 16.1286 77.6721 16.4583 77.5229 16.8693C77.3771 17.277 77.3042 17.7244 77.3042 18.2116C77.3042 18.7022 77.3771 19.1513 77.5229 19.5589C77.6721 19.9666 77.8991 20.2931 78.204 20.5384C78.5123 20.7836 78.9 20.9062 79.3674 20.9062ZM86.0678 17.4659V22H84.5813V14.3636H86.0082V15.6065H86.1026C86.2783 15.2022 86.5534 14.8774 86.9279 14.6321C87.3058 14.3868 87.7814 14.2642 88.3548 14.2642C88.8751 14.2642 89.3308 14.3736 89.7219 14.5923C90.113 14.8078 90.4163 15.1293 90.6317 15.5568C90.8472 15.9844 90.9549 16.513 90.9549 17.1428V22H89.4684V17.3217C89.4684 16.7682 89.3242 16.3357 89.0359 16.0241C88.7475 15.7093 88.3514 15.5518 87.8477 15.5518C87.503 15.5518 87.1964 15.6264 86.9279 15.7756C86.6628 15.9247 86.4523 16.1435 86.2965 16.4318C86.1441 16.7169 86.0678 17.0616 86.0678 17.4659Z" fill="#6D23F9"/>
</svg>
