<svg width="345" height="27" viewBox="0 0 345 27" fill="none" xmlns="http://www.w3.org/2000/svg">
<rect width="345" height="27" rx="8" fill="#F6F6F6"/>
<path d="M12.1023 5.4561C12.8645 4.66198 14.1355 4.66198 14.8977 5.4561C15.3719 5.9501 16.0722 6.15696 16.7386 5.99964C17.8045 5.74803 18.8702 6.44792 19.0844 7.52198C19.2187 8.19519 19.6978 8.7585 20.3439 8.9906C21.3784 9.36226 21.8988 10.526 21.5025 11.5513C21.2542 12.1935 21.3568 12.9282 21.7751 13.4751C22.4457 14.3517 22.2682 15.6123 21.3777 16.2645C20.823 16.6708 20.5212 17.3475 20.5802 18.0326C20.6741 19.1247 19.849 20.0975 18.7547 20.1595C18.0704 20.1983 17.4543 20.5999 17.1376 21.2078C16.6308 22.1807 15.4116 22.5468 14.4594 22.0022C13.865 21.6622 13.135 21.6622 12.5406 22.0022C11.5884 22.5468 10.3692 22.1807 9.86237 21.2078C9.54571 20.5999 8.92959 20.1983 8.24529 20.1595C7.15098 20.0975 6.32586 19.1247 6.41985 18.0326C6.47881 17.3475 6.17705 16.6708 5.62228 16.2645C4.73184 15.6123 4.55428 14.3517 5.22485 13.4751C5.64317 12.9282 5.74578 12.1935 5.49752 11.5513C5.10118 10.526 5.62163 9.36226 6.65611 8.99061C7.30216 8.7585 7.78129 8.19519 7.91559 7.52198C8.12984 6.44792 9.19547 5.74803 10.2614 5.99964C10.9278 6.15696 11.6281 5.9501 12.1023 5.4561Z" fill="#6D23F9"/>
<path d="M12.1023 5.4561C12.8645 4.66198 14.1355 4.66198 14.8977 5.4561C15.3719 5.9501 16.0722 6.15696 16.7386 5.99964C17.8045 5.74803 18.8702 6.44792 19.0844 7.52198C19.2187 8.19519 19.6978 8.7585 20.3439 8.9906C21.3784 9.36226 21.8988 10.526 21.5025 11.5513C21.2542 12.1935 21.3568 12.9282 21.7751 13.4751C22.4457 14.3517 22.2682 15.6123 21.3777 16.2645C20.823 16.6708 20.5212 17.3475 20.5802 18.0326C20.6741 19.1247 19.849 20.0975 18.7547 20.1595C18.0704 20.1983 17.4543 20.5999 17.1376 21.2078C16.6308 22.1807 15.4116 22.5468 14.4594 22.0022C13.865 21.6622 13.135 21.6622 12.5406 22.0022C11.5884 22.5468 10.3692 22.1807 9.86237 21.2078C9.54571 20.5999 8.92959 20.1983 8.24529 20.1595C7.15098 20.0975 6.32586 19.1247 6.41985 18.0326C6.47881 17.3475 6.17705 16.6708 5.62228 16.2645C4.73184 15.6123 4.55428 14.3517 5.22485 13.4751C5.64317 12.9282 5.74578 12.1935 5.49752 11.5513C5.10118 10.526 5.62163 9.36226 6.65611 8.99061C7.30216 8.7585 7.78129 8.19519 7.91559 7.52198C8.12984 6.44792 9.19547 5.74803 10.2614 5.99964C10.9278 6.15696 11.6281 5.9501 12.1023 5.4561Z" fill="#6D23F9"/>
<path opacity="0.8" d="M11.7784 16.6571L9.9145 14.7254C9.81415 14.6212 9.6779 14.5626 9.53581 14.5626C9.39372 14.5626 9.25747 14.6212 9.15712 14.7254C8.94763 14.9425 8.94763 15.2932 9.15712 15.5103L11.4024 17.8372C11.6119 18.0543 11.9503 18.0543 12.1598 17.8372L17.8429 11.9477C18.0524 11.7306 18.0524 11.3799 17.8429 11.1628C17.7425 11.0586 17.6063 11 17.4642 11C17.3221 11 17.1859 11.0586 17.0855 11.1628L11.7784 16.6571Z" fill="white" stroke="#F6F6F6" stroke-width="0.38438"/>
<path d="M28.1186 18.5V8.31818H31.7479C32.54 8.31818 33.1963 8.46236 33.7166 8.75071C34.237 9.03906 34.6264 9.43347 34.8849 9.93395C35.1435 10.4311 35.2727 10.9912 35.2727 11.6143C35.2727 12.2408 35.1418 12.8042 34.88 13.3047C34.6214 13.8018 34.2304 14.1963 33.7067 14.4879C33.1863 14.7763 32.5317 14.9205 31.7429 14.9205H29.2472V13.6179H31.6037C32.1042 13.6179 32.5102 13.5317 32.8217 13.3594C33.1333 13.1837 33.362 12.9451 33.5078 12.6435C33.6536 12.3419 33.7266 11.9988 33.7266 11.6143C33.7266 11.2299 33.6536 10.8885 33.5078 10.5902C33.362 10.2919 33.1316 10.0582 32.8168 9.8892C32.5052 9.72017 32.0942 9.63565 31.5838 9.63565H29.6548V18.5H28.1186ZM40.1499 18.6541C39.3975 18.6541 38.7495 18.4934 38.206 18.1719C37.6657 17.8471 37.2481 17.3913 36.9531 16.8047C36.6615 16.2147 36.5156 15.5237 36.5156 14.7315C36.5156 13.9493 36.6615 13.2599 36.9531 12.6634C37.2481 12.0668 37.6591 11.6011 38.1861 11.2663C38.7164 10.9316 39.3362 10.7642 40.0455 10.7642C40.4763 10.7642 40.8939 10.8355 41.2983 10.978C41.7027 11.1205 42.0656 11.3442 42.3871 11.6491C42.7086 11.9541 42.9621 12.3501 43.1477 12.8374C43.3333 13.3213 43.4261 13.9096 43.4261 14.6023V15.1293H37.3558V14.0156H41.9695C41.9695 13.6245 41.8899 13.2782 41.7308 12.9766C41.5717 12.6716 41.348 12.4313 41.0597 12.2557C40.7746 12.08 40.4399 11.9922 40.0554 11.9922C39.6378 11.9922 39.2732 12.0949 38.9616 12.3004C38.6534 12.5026 38.4148 12.7678 38.2457 13.0959C38.08 13.4207 37.9972 13.7737 37.9972 14.1548V15.0249C37.9972 15.5353 38.0866 15.9695 38.2656 16.3274C38.4479 16.6854 38.7015 16.9588 39.0263 17.1477C39.3511 17.3333 39.7306 17.4261 40.1648 17.4261C40.4465 17.4261 40.7034 17.3864 40.9354 17.3068C41.1674 17.224 41.3679 17.1013 41.5369 16.9389C41.706 16.7765 41.8352 16.576 41.9247 16.3374L43.3317 16.5909C43.219 17.0052 43.0168 17.3681 42.7251 17.6797C42.4368 17.9879 42.0739 18.2282 41.6364 18.4006C41.2022 18.5696 40.7067 18.6541 40.1499 18.6541ZM45.0755 18.5V10.8636H46.5123V12.0767H46.5918C46.731 11.6657 46.9763 11.3426 47.3276 11.1072C47.6822 10.8686 48.0833 10.7493 48.5307 10.7493C48.6235 10.7493 48.7329 10.7526 48.8588 10.7592C48.9881 10.7659 49.0892 10.7741 49.1621 10.7841V12.206C49.1025 12.1894 48.9964 12.1712 48.8439 12.1513C48.6915 12.1281 48.539 12.1165 48.3865 12.1165C48.0352 12.1165 47.722 12.1911 47.4469 12.3402C47.1751 12.486 46.9597 12.6899 46.8006 12.9517C46.6415 13.2102 46.562 13.5052 46.562 13.8366V18.5H45.0755ZM54.5339 10.8636V12.0568H50.2186V10.8636H54.5339ZM51.4018 18.5V9.97869C51.4018 9.50142 51.5062 9.10535 51.715 8.79048C51.9238 8.4723 52.2006 8.23532 52.5453 8.07955C52.89 7.92045 53.2645 7.84091 53.6689 7.84091C53.9672 7.84091 54.2224 7.86577 54.4345 7.91548C54.6466 7.96188 54.804 8.00497 54.9068 8.04474L54.5588 9.24787C54.4892 9.22798 54.3997 9.20478 54.2903 9.17827C54.1809 9.14844 54.0484 9.13352 53.8926 9.13352C53.5313 9.13352 53.2728 9.22301 53.117 9.40199C52.9645 9.58097 52.8883 9.83949 52.8883 10.1776V18.5H51.4018ZM59.0581 18.6541C58.3057 18.6541 57.6577 18.4934 57.1142 18.1719C56.5739 17.8471 56.1563 17.3913 55.8613 16.8047C55.5697 16.2147 55.4238 15.5237 55.4238 14.7315C55.4238 13.9493 55.5697 13.2599 55.8613 12.6634C56.1563 12.0668 56.5673 11.6011 57.0943 11.2663C57.6246 10.9316 58.2444 10.7642 58.9537 10.7642C59.3845 10.7642 59.8021 10.8355 60.2065 10.978C60.6109 11.1205 60.9738 11.3442 61.2953 11.6491C61.6168 11.9541 61.8703 12.3501 62.0559 12.8374C62.2415 13.3213 62.3343 13.9096 62.3343 14.6023V15.1293H56.264V14.0156H60.8777C60.8777 13.6245 60.7981 13.2782 60.639 12.9766C60.4799 12.6716 60.2562 12.4313 59.9679 12.2557C59.6828 12.08 59.3481 11.9922 58.9636 11.9922C58.546 11.9922 58.1814 12.0949 57.8699 12.3004C57.5616 12.5026 57.323 12.7678 57.1539 13.0959C56.9882 13.4207 56.9054 13.7737 56.9054 14.1548V15.0249C56.9054 15.5353 56.9949 15.9695 57.1738 16.3274C57.3561 16.6854 57.6097 16.9588 57.9345 17.1477C58.2593 17.3333 58.6388 17.4261 59.073 17.4261C59.3547 17.4261 59.6116 17.3864 59.8436 17.3068C60.0756 17.224 60.2761 17.1013 60.4451 16.9389C60.6142 16.7765 60.7434 16.576 60.8329 16.3374L62.2399 16.5909C62.1272 17.0052 61.925 17.3681 61.6333 17.6797C61.345 17.9879 60.9821 18.2282 60.5446 18.4006C60.1104 18.5696 59.6149 18.6541 59.0581 18.6541ZM67.2003 18.6541C66.4612 18.6541 65.8248 18.4867 65.2912 18.152C64.7609 17.8139 64.3532 17.3482 64.0682 16.755C63.7831 16.1617 63.6406 15.4822 63.6406 14.7166C63.6406 13.9411 63.7865 13.2566 64.0781 12.6634C64.3698 12.0668 64.7808 11.6011 65.3111 11.2663C65.8414 10.9316 66.4661 10.7642 67.1854 10.7642C67.7654 10.7642 68.2824 10.8719 68.7365 11.0874C69.1906 11.2995 69.5568 11.5978 69.8352 11.9822C70.117 12.3667 70.2843 12.8158 70.3374 13.3295H68.8906C68.8111 12.9716 68.6288 12.6634 68.3438 12.4048C68.062 12.1463 67.6842 12.017 67.2102 12.017C66.7959 12.017 66.433 12.1264 66.1214 12.3452C65.8132 12.5606 65.5729 12.8688 65.4006 13.2699C65.2282 13.6676 65.142 14.1383 65.142 14.6818C65.142 15.2386 65.2266 15.7192 65.3956 16.1236C65.5646 16.5279 65.8033 16.8411 66.1115 17.0632C66.4231 17.2853 66.7893 17.3963 67.2102 17.3963C67.492 17.3963 67.7472 17.3449 67.9759 17.2422C68.2079 17.1361 68.4018 16.9853 68.5575 16.7898C68.7166 16.5942 68.8277 16.3589 68.8906 16.0838H70.3374C70.2843 16.5777 70.1236 17.0185 69.8551 17.4062C69.5866 17.794 69.227 18.099 68.7763 18.321C68.3288 18.5431 67.8035 18.6541 67.2003 18.6541ZM75.4917 10.8636V12.0568H71.3205V10.8636H75.4917ZM72.4391 9.03409H73.9256V16.2578C73.9256 16.5462 73.9687 16.7633 74.0549 16.9091C74.141 17.0516 74.2521 17.1494 74.388 17.2024C74.5272 17.2521 74.678 17.277 74.8404 17.277C74.9597 17.277 75.0641 17.2687 75.1536 17.2521C75.2431 17.2356 75.3127 17.2223 75.3624 17.2124L75.6309 18.4403C75.5447 18.4735 75.4221 18.5066 75.263 18.5398C75.1039 18.5762 74.905 18.5961 74.6664 18.5994C74.2753 18.6061 73.9107 18.5365 73.5726 18.3906C73.2346 18.2448 72.9611 18.0194 72.7523 17.7145C72.5435 17.4096 72.4391 17.0268 72.4391 16.5661V9.03409ZM84.4753 10.8636V12.0568H80.16V10.8636H84.4753ZM81.3432 18.5V9.97869C81.3432 9.50142 81.4476 9.10535 81.6564 8.79048C81.8652 8.4723 82.142 8.23532 82.4867 8.07955C82.8314 7.92045 83.2059 7.84091 83.6103 7.84091C83.9086 7.84091 84.1638 7.86577 84.3759 7.91548C84.588 7.96188 84.7454 8.00497 84.8482 8.04474L84.5002 9.24787C84.4306 9.22798 84.3411 9.20478 84.2317 9.17827C84.1223 9.14844 83.9898 9.13352 83.834 9.13352C83.4727 9.13352 83.2142 9.22301 83.0584 9.40199C82.906 9.58097 82.8297 9.83949 82.8297 10.1776V18.5H81.3432ZM88.9249 18.6541C88.209 18.6541 87.5842 18.4901 87.0506 18.1619C86.517 17.8338 86.1027 17.3748 85.8077 16.7848C85.5127 16.1948 85.3652 15.5054 85.3652 14.7166C85.3652 13.9245 85.5127 13.2318 85.8077 12.6385C86.1027 12.0452 86.517 11.5845 87.0506 11.2564C87.5842 10.9283 88.209 10.7642 88.9249 10.7642C89.6408 10.7642 90.2656 10.9283 90.7992 11.2564C91.3328 11.5845 91.7471 12.0452 92.0421 12.6385C92.3371 13.2318 92.4846 13.9245 92.4846 14.7166C92.4846 15.5054 92.3371 16.1948 92.0421 16.7848C91.7471 17.3748 91.3328 17.8338 90.7992 18.1619C90.2656 18.4901 89.6408 18.6541 88.9249 18.6541ZM88.9299 17.4062C89.3939 17.4062 89.7784 17.2836 90.0833 17.0384C90.3882 16.7931 90.6136 16.4666 90.7594 16.0589C90.9086 15.6513 90.9831 15.2022 90.9831 14.7116C90.9831 14.2244 90.9086 13.777 90.7594 13.3693C90.6136 12.9583 90.3882 12.6286 90.0833 12.38C89.7784 12.1314 89.3939 12.0071 88.9299 12.0071C88.4625 12.0071 88.0748 12.1314 87.7665 12.38C87.4616 12.6286 87.2346 12.9583 87.0854 13.3693C86.9396 13.777 86.8667 14.2244 86.8667 14.7116C86.8667 15.2022 86.9396 15.6513 87.0854 16.0589C87.2346 16.4666 87.4616 16.7931 87.7665 17.0384C88.0748 17.2836 88.4625 17.4062 88.9299 17.4062ZM94.1438 18.5V10.8636H95.5806V12.0767H95.6602C95.7994 11.6657 96.0446 11.3426 96.396 11.1072C96.7506 10.8686 97.1516 10.7493 97.5991 10.7493C97.6919 10.7493 97.8013 10.7526 97.9272 10.7592C98.0565 10.7659 98.1576 10.7741 98.2305 10.7841V12.206C98.1708 12.1894 98.0647 12.1712 97.9123 12.1513C97.7598 12.1281 97.6074 12.1165 97.4549 12.1165C97.1036 12.1165 96.7904 12.1911 96.5153 12.3402C96.2435 12.486 96.0281 12.6899 95.869 12.9517C95.7099 13.2102 95.6303 13.5052 95.6303 13.8366V18.5H94.1438ZM105.444 18.669C104.96 18.669 104.523 18.5795 104.132 18.4006C103.741 18.2183 103.431 17.9548 103.202 17.6101C102.977 17.2654 102.864 16.8428 102.864 16.3423C102.864 15.9115 102.947 15.5568 103.113 15.2784C103.278 15 103.502 14.7796 103.784 14.6172C104.065 14.4548 104.38 14.3321 104.728 14.2493C105.076 14.1664 105.431 14.1035 105.792 14.0604C106.25 14.0073 106.621 13.9643 106.906 13.9311C107.191 13.8946 107.398 13.8366 107.527 13.7571C107.657 13.6776 107.721 13.5483 107.721 13.3693V13.3345C107.721 12.9003 107.599 12.5639 107.353 12.3253C107.111 12.0866 106.75 11.9673 106.27 11.9673C105.769 11.9673 105.375 12.0784 105.086 12.3004C104.801 12.5192 104.604 12.7628 104.495 13.0312L103.098 12.7131C103.263 12.2491 103.505 11.8745 103.824 11.5895C104.145 11.3011 104.515 11.0923 104.932 10.9631C105.35 10.8305 105.789 10.7642 106.25 10.7642C106.555 10.7642 106.878 10.8007 107.219 10.8736C107.564 10.9432 107.885 11.0724 108.184 11.2614C108.485 11.4503 108.732 11.7204 108.924 12.0717C109.117 12.4197 109.213 12.8722 109.213 13.429V18.5H107.761V17.456H107.701C107.605 17.6482 107.461 17.8371 107.269 18.0227C107.077 18.2083 106.83 18.3625 106.528 18.4851C106.226 18.6077 105.865 18.669 105.444 18.669ZM105.767 17.4759C106.178 17.4759 106.53 17.3946 106.821 17.2322C107.116 17.0698 107.34 16.8577 107.493 16.5959C107.648 16.3307 107.726 16.0473 107.726 15.7457V14.7614C107.673 14.8144 107.57 14.8641 107.418 14.9105C107.269 14.9536 107.098 14.9917 106.906 15.0249C106.714 15.0547 106.526 15.0829 106.344 15.1094C106.162 15.1326 106.009 15.1525 105.887 15.169C105.598 15.2055 105.335 15.2668 105.096 15.353C104.861 15.4392 104.672 15.5634 104.529 15.7259C104.39 15.8849 104.321 16.0971 104.321 16.3622C104.321 16.7301 104.457 17.0085 104.728 17.1974C105 17.383 105.346 17.4759 105.767 17.4759ZM114.394 21.5227C113.788 21.5227 113.266 21.4432 112.828 21.2841C112.394 21.125 112.039 20.9145 111.764 20.6527C111.489 20.3909 111.284 20.1042 111.148 19.7926L112.426 19.2656C112.515 19.4115 112.634 19.5656 112.784 19.728C112.936 19.8937 113.142 20.0346 113.4 20.1506C113.662 20.2666 113.998 20.3246 114.409 20.3246C114.973 20.3246 115.438 20.187 115.806 19.9119C116.174 19.6402 116.358 19.206 116.358 18.6094V17.108H116.264C116.174 17.2704 116.045 17.451 115.876 17.6499C115.71 17.8487 115.481 18.0211 115.19 18.1669C114.898 18.3127 114.519 18.3857 114.051 18.3857C113.448 18.3857 112.905 18.2448 112.421 17.9631C111.94 17.678 111.559 17.2588 111.277 16.7053C110.999 16.1484 110.86 15.464 110.86 14.652C110.86 13.84 110.997 13.1439 111.272 12.5639C111.551 11.9839 111.932 11.5398 112.416 11.2315C112.9 10.92 113.448 10.7642 114.061 10.7642C114.535 10.7642 114.918 10.8438 115.21 11.0028C115.501 11.1586 115.728 11.3409 115.891 11.5497C116.057 11.7585 116.184 11.9425 116.274 12.1016H116.383V10.8636H117.84V18.669C117.84 19.3253 117.687 19.8639 117.382 20.2848C117.077 20.7057 116.665 21.0173 116.144 21.2195C115.627 21.4216 115.044 21.5227 114.394 21.5227ZM114.379 17.1527C114.807 17.1527 115.168 17.0533 115.463 16.8544C115.762 16.6522 115.987 16.3639 116.139 15.9893C116.295 15.6115 116.373 15.1591 116.373 14.6321C116.373 14.1184 116.297 13.666 116.144 13.2749C115.992 12.8838 115.768 12.5788 115.473 12.3601C115.178 12.138 114.814 12.027 114.379 12.027C113.932 12.027 113.559 12.143 113.261 12.375C112.963 12.6037 112.737 12.9152 112.585 13.3097C112.436 13.7041 112.361 14.1449 112.361 14.6321C112.361 15.1326 112.437 15.5717 112.59 15.9496C112.742 16.3274 112.968 16.6224 113.266 16.8345C113.567 17.0466 113.939 17.1527 114.379 17.1527ZM119.833 18.5V10.8636H121.32V18.5H119.833ZM120.584 9.68537C120.325 9.68537 120.103 9.59919 119.918 9.42685C119.735 9.25118 119.644 9.04238 119.644 8.80043C119.644 8.55516 119.735 8.34635 119.918 8.17401C120.103 7.99834 120.325 7.91051 120.584 7.91051C120.843 7.91051 121.063 7.99834 121.245 8.17401C121.431 8.34635 121.524 8.55516 121.524 8.80043C121.524 9.04238 121.431 9.25118 121.245 9.42685C121.063 9.59919 120.843 9.68537 120.584 9.68537ZM124.806 13.9659V18.5H123.32V10.8636H124.746V12.1065H124.841C125.017 11.7022 125.292 11.3774 125.666 11.1321C126.044 10.8868 126.52 10.7642 127.093 10.7642C127.613 10.7642 128.069 10.8736 128.46 11.0923C128.851 11.3078 129.155 11.6293 129.37 12.0568C129.585 12.4844 129.693 13.013 129.693 13.6428V18.5H128.207V13.8217C128.207 13.2682 128.063 12.8357 127.774 12.5241C127.486 12.2093 127.09 12.0518 126.586 12.0518C126.241 12.0518 125.935 12.1264 125.666 12.2756C125.401 12.4247 125.191 12.6435 125.035 12.9318C124.882 13.2169 124.806 13.5616 124.806 13.9659ZM134.888 21.5227C134.282 21.5227 133.76 21.4432 133.322 21.2841C132.888 21.125 132.534 20.9145 132.259 20.6527C131.983 20.3909 131.778 20.1042 131.642 19.7926L132.92 19.2656C133.009 19.4115 133.129 19.5656 133.278 19.728C133.43 19.8937 133.636 20.0346 133.894 20.1506C134.156 20.2666 134.492 20.3246 134.903 20.3246C135.467 20.3246 135.933 20.187 136.3 19.9119C136.668 19.6402 136.852 19.206 136.852 18.6094V17.108H136.758C136.668 17.2704 136.539 17.451 136.37 17.6499C136.204 17.8487 135.976 18.0211 135.684 18.1669C135.392 18.3127 135.013 18.3857 134.545 18.3857C133.942 18.3857 133.399 18.2448 132.915 17.9631C132.434 17.678 132.053 17.2588 131.771 16.7053C131.493 16.1484 131.354 15.464 131.354 14.652C131.354 13.84 131.491 13.1439 131.766 12.5639C132.045 11.9839 132.426 11.5398 132.91 11.2315C133.394 10.92 133.942 10.7642 134.555 10.7642C135.029 10.7642 135.412 10.8438 135.704 11.0028C135.996 11.1586 136.223 11.3409 136.385 11.5497C136.551 11.7585 136.678 11.9425 136.768 12.1016H136.877V10.8636H138.334V18.669C138.334 19.3253 138.181 19.8639 137.876 20.2848C137.571 20.7057 137.159 21.0173 136.638 21.2195C136.121 21.4216 135.538 21.5227 134.888 21.5227ZM134.874 17.1527C135.301 17.1527 135.662 17.0533 135.957 16.8544C136.256 16.6522 136.481 16.3639 136.634 15.9893C136.789 15.6115 136.867 15.1591 136.867 14.6321C136.867 14.1184 136.791 13.666 136.638 13.2749C136.486 12.8838 136.262 12.5788 135.967 12.3601C135.672 12.138 135.308 12.027 134.874 12.027C134.426 12.027 134.053 12.143 133.755 12.375C133.457 12.6037 133.231 12.9152 133.079 13.3097C132.93 13.7041 132.855 14.1449 132.855 14.6321C132.855 15.1326 132.931 15.5717 133.084 15.9496C133.236 16.3274 133.462 16.6224 133.76 16.8345C134.062 17.0466 134.433 17.1527 134.874 17.1527ZM146.255 18.669C145.771 18.669 145.333 18.5795 144.942 18.4006C144.551 18.2183 144.241 17.9548 144.013 17.6101C143.787 17.2654 143.675 16.8428 143.675 16.3423C143.675 15.9115 143.757 15.5568 143.923 15.2784C144.089 15 144.313 14.7796 144.594 14.6172C144.876 14.4548 145.191 14.3321 145.539 14.2493C145.887 14.1664 146.242 14.1035 146.603 14.0604C147.06 14.0073 147.431 13.9643 147.716 13.9311C148.001 13.8946 148.209 13.8366 148.338 13.7571C148.467 13.6776 148.532 13.5483 148.532 13.3693V13.3345C148.532 12.9003 148.409 12.5639 148.164 12.3253C147.922 12.0866 147.561 11.9673 147.08 11.9673C146.58 11.9673 146.185 12.0784 145.897 12.3004C145.612 12.5192 145.415 12.7628 145.305 13.0312L143.908 12.7131C144.074 12.2491 144.316 11.8745 144.634 11.5895C144.956 11.3011 145.325 11.0923 145.743 10.9631C146.16 10.8305 146.599 10.7642 147.06 10.7642C147.365 10.7642 147.688 10.8007 148.03 10.8736C148.374 10.9432 148.696 11.0724 148.994 11.2614C149.296 11.4503 149.543 11.7204 149.735 12.0717C149.927 12.4197 150.023 12.8722 150.023 13.429V18.5H148.572V17.456H148.512C148.416 17.6482 148.272 17.8371 148.079 18.0227C147.887 18.2083 147.64 18.3625 147.339 18.4851C147.037 18.6077 146.676 18.669 146.255 18.669ZM146.578 17.4759C146.989 17.4759 147.34 17.3946 147.632 17.2322C147.927 17.0698 148.151 16.8577 148.303 16.5959C148.459 16.3307 148.537 16.0473 148.537 15.7457V14.7614C148.484 14.8144 148.381 14.8641 148.229 14.9105C148.079 14.9536 147.909 14.9917 147.716 15.0249C147.524 15.0547 147.337 15.0829 147.155 15.1094C146.972 15.1326 146.82 15.1525 146.697 15.169C146.409 15.2055 146.145 15.2668 145.907 15.353C145.671 15.4392 145.483 15.5634 145.34 15.7259C145.201 15.8849 145.131 16.0971 145.131 16.3622C145.131 16.7301 145.267 17.0085 145.539 17.1974C145.811 17.383 146.157 17.4759 146.578 17.4759ZM153.49 13.9659V18.5H152.003V10.8636H153.43V12.1065H153.525C153.7 11.7022 153.975 11.3774 154.35 11.1321C154.728 10.8868 155.203 10.7642 155.777 10.7642C156.297 10.7642 156.753 10.8736 157.144 11.0923C157.535 11.3078 157.838 11.6293 158.054 12.0568C158.269 12.4844 158.377 13.013 158.377 13.6428V18.5H156.89V13.8217C156.89 13.2682 156.746 12.8357 156.458 12.5241C156.169 12.2093 155.773 12.0518 155.27 12.0518C154.925 12.0518 154.618 12.1264 154.35 12.2756C154.085 12.4247 153.874 12.6435 153.718 12.9318C153.566 13.2169 153.49 13.5616 153.49 13.9659ZM163.229 18.6491C162.613 18.6491 162.062 18.4917 161.578 18.1768C161.098 17.8587 160.72 17.4062 160.445 16.8196C160.173 16.2296 160.037 15.522 160.037 14.6967C160.037 13.8714 160.175 13.1655 160.45 12.5788C160.728 11.9922 161.109 11.5431 161.593 11.2315C162.077 10.92 162.626 10.7642 163.239 10.7642C163.713 10.7642 164.094 10.8438 164.382 11.0028C164.674 11.1586 164.9 11.3409 165.059 11.5497C165.221 11.7585 165.347 11.9425 165.436 12.1016H165.526V8.31818H167.012V18.5H165.561V17.3118H165.436C165.347 17.4742 165.218 17.6598 165.049 17.8686C164.883 18.0774 164.654 18.2597 164.363 18.4155C164.071 18.5713 163.693 18.6491 163.229 18.6491ZM163.557 17.3814C163.985 17.3814 164.346 17.2687 164.641 17.0433C164.939 16.8146 165.165 16.4981 165.317 16.0938C165.473 15.6894 165.551 15.2187 165.551 14.6818C165.551 14.1515 165.475 13.6875 165.322 13.2898C165.17 12.892 164.946 12.5821 164.651 12.3601C164.356 12.138 163.991 12.027 163.557 12.027C163.11 12.027 162.737 12.143 162.439 12.375C162.14 12.607 161.915 12.9235 161.762 13.3246C161.613 13.7256 161.539 14.178 161.539 14.6818C161.539 15.1922 161.615 15.6513 161.767 16.0589C161.92 16.4666 162.145 16.7898 162.444 17.0284C162.745 17.2637 163.116 17.3814 163.557 17.3814ZM176.13 18.6541C175.378 18.6541 174.73 18.4934 174.186 18.1719C173.646 17.8471 173.229 17.3913 172.934 16.8047C172.642 16.2147 172.496 15.5237 172.496 14.7315C172.496 13.9493 172.642 13.2599 172.934 12.6634C173.229 12.0668 173.64 11.6011 174.167 11.2663C174.697 10.9316 175.317 10.7642 176.026 10.7642C176.457 10.7642 176.874 10.8355 177.279 10.978C177.683 11.1205 178.046 11.3442 178.368 11.6491C178.689 11.9541 178.943 12.3501 179.128 12.8374C179.314 13.3213 179.407 13.9096 179.407 14.6023V15.1293H173.336V14.0156H177.95C177.95 13.6245 177.87 13.2782 177.711 12.9766C177.552 12.6716 177.328 12.4313 177.04 12.2557C176.755 12.08 176.42 11.9922 176.036 11.9922C175.618 11.9922 175.254 12.0949 174.942 12.3004C174.634 12.5026 174.395 12.7678 174.226 13.0959C174.06 13.4207 173.978 13.7737 173.978 14.1548V15.0249C173.978 15.5353 174.067 15.9695 174.246 16.3274C174.428 16.6854 174.682 16.9588 175.007 17.1477C175.332 17.3333 175.711 17.4261 176.145 17.4261C176.427 17.4261 176.684 17.3864 176.916 17.3068C177.148 17.224 177.348 17.1013 177.517 16.9389C177.686 16.7765 177.816 16.576 177.905 16.3374L179.312 16.5909C179.199 17.0052 178.997 17.3681 178.706 17.6797C178.417 17.9879 178.054 18.2282 177.617 18.4006C177.183 18.5696 176.687 18.6541 176.13 18.6541ZM182.542 13.9659V18.5H181.056V10.8636H182.483V12.1065H182.577C182.753 11.7022 183.028 11.3774 183.403 11.1321C183.78 10.8868 184.256 10.7642 184.829 10.7642C185.35 10.7642 185.805 10.8736 186.197 11.0923C186.588 11.3078 186.891 11.6293 187.106 12.0568C187.322 12.4844 187.43 13.013 187.43 13.6428V18.5H185.943V13.8217C185.943 13.2682 185.799 12.8357 185.51 12.5241C185.222 12.2093 184.826 12.0518 184.322 12.0518C183.978 12.0518 183.671 12.1264 183.403 12.2756C183.137 12.4247 182.927 12.6435 182.771 12.9318C182.619 13.2169 182.542 13.5616 182.542 13.9659ZM189.423 10.8636H190.91V18.9972C190.91 19.5076 190.817 19.9384 190.631 20.2898C190.449 20.6411 190.177 20.9079 189.816 21.0902C189.458 21.2725 189.015 21.3636 188.488 21.3636C188.435 21.3636 188.386 21.3636 188.339 21.3636C188.29 21.3636 188.238 21.362 188.185 21.3587V20.081C188.232 20.081 188.273 20.081 188.309 20.081C188.343 20.081 188.381 20.081 188.424 20.081C188.775 20.081 189.029 19.9865 189.184 19.7976C189.344 19.612 189.423 19.3419 189.423 18.9872V10.8636ZM190.159 9.68537C189.9 9.68537 189.678 9.59919 189.493 9.42685C189.31 9.25118 189.219 9.04238 189.219 8.80043C189.219 8.55516 189.31 8.34635 189.493 8.17401C189.678 7.99834 189.9 7.91051 190.159 7.91051C190.417 7.91051 190.638 7.99834 190.82 8.17401C191.006 8.34635 191.099 8.55516 191.099 8.80043C191.099 9.04238 191.006 9.25118 190.82 9.42685C190.638 9.59919 190.417 9.68537 190.159 9.68537ZM196.126 18.6541C195.41 18.6541 194.785 18.4901 194.252 18.1619C193.718 17.8338 193.304 17.3748 193.009 16.7848C192.714 16.1948 192.566 15.5054 192.566 14.7166C192.566 13.9245 192.714 13.2318 193.009 12.6385C193.304 12.0452 193.718 11.5845 194.252 11.2564C194.785 10.9283 195.41 10.7642 196.126 10.7642C196.842 10.7642 197.467 10.9283 198 11.2564C198.534 11.5845 198.948 12.0452 199.243 12.6385C199.538 13.2318 199.686 13.9245 199.686 14.7166C199.686 15.5054 199.538 16.1948 199.243 16.7848C198.948 17.3748 198.534 17.8338 198 18.1619C197.467 18.4901 196.842 18.6541 196.126 18.6541ZM196.131 17.4062C196.595 17.4062 196.98 17.2836 197.284 17.0384C197.589 16.7931 197.815 16.4666 197.961 16.0589C198.11 15.6513 198.184 15.2022 198.184 14.7116C198.184 14.2244 198.11 13.777 197.961 13.3693C197.815 12.9583 197.589 12.6286 197.284 12.38C196.98 12.1314 196.595 12.0071 196.131 12.0071C195.664 12.0071 195.276 12.1314 194.968 12.38C194.663 12.6286 194.436 12.9583 194.287 13.3693C194.141 13.777 194.068 14.2244 194.068 14.7116C194.068 15.2022 194.141 15.6513 194.287 16.0589C194.436 16.4666 194.663 16.7931 194.968 17.0384C195.276 17.2836 195.664 17.4062 196.131 17.4062ZM202.025 21.3636C201.803 21.3636 201.601 21.3454 201.418 21.3089C201.236 21.2758 201.1 21.2393 201.011 21.1996L201.369 19.9815C201.64 20.0545 201.882 20.0859 202.094 20.076C202.307 20.0661 202.494 19.9865 202.656 19.8374C202.822 19.6882 202.968 19.4446 203.094 19.1065L203.278 18.5994L200.484 10.8636H202.075L204.009 16.7898H204.088L206.022 10.8636H207.618L204.471 19.5192C204.325 19.9169 204.139 20.2533 203.914 20.5284C203.689 20.8068 203.42 21.0156 203.109 21.1548C202.797 21.294 202.436 21.3636 202.025 21.3636ZM209.015 18.5V10.8636H210.501V18.5H209.015ZM209.766 9.68537C209.507 9.68537 209.285 9.59919 209.099 9.42685C208.917 9.25118 208.826 9.04238 208.826 8.80043C208.826 8.55516 208.917 8.34635 209.099 8.17401C209.285 7.99834 209.507 7.91051 209.766 7.91051C210.024 7.91051 210.245 7.99834 210.427 8.17401C210.612 8.34635 210.705 8.55516 210.705 8.80043C210.705 9.04238 210.612 9.25118 210.427 9.42685C210.245 9.59919 210.024 9.68537 209.766 9.68537ZM213.988 13.9659V18.5H212.501V10.8636H213.928V12.1065H214.023C214.198 11.7022 214.473 11.3774 214.848 11.1321C215.226 10.8868 215.701 10.7642 216.275 10.7642C216.795 10.7642 217.251 10.8736 217.642 11.0923C218.033 11.3078 218.336 11.6293 218.552 12.0568C218.767 12.4844 218.875 13.013 218.875 13.6428V18.5H217.388V13.8217C217.388 13.2682 217.244 12.8357 216.956 12.5241C216.667 12.2093 216.271 12.0518 215.768 12.0518C215.423 12.0518 215.116 12.1264 214.848 12.2756C214.583 12.4247 214.372 12.6435 214.216 12.9318C214.064 13.2169 213.988 13.5616 213.988 13.9659ZM224.07 21.5227C223.464 21.5227 222.942 21.4432 222.504 21.2841C222.07 21.125 221.715 20.9145 221.44 20.6527C221.165 20.3909 220.96 20.1042 220.824 19.7926L222.101 19.2656C222.191 19.4115 222.31 19.5656 222.459 19.728C222.612 19.8937 222.817 20.0346 223.076 20.1506C223.338 20.2666 223.674 20.3246 224.085 20.3246C224.648 20.3246 225.114 20.187 225.482 19.9119C225.85 19.6402 226.034 19.206 226.034 18.6094V17.108H225.939C225.85 17.2704 225.721 17.451 225.552 17.6499C225.386 17.8487 225.157 18.0211 224.866 18.1669C224.574 18.3127 224.194 18.3857 223.727 18.3857C223.124 18.3857 222.58 18.2448 222.096 17.9631C221.616 17.678 221.235 17.2588 220.953 16.7053C220.675 16.1484 220.535 15.464 220.535 14.652C220.535 13.84 220.673 13.1439 220.948 12.5639C221.226 11.9839 221.608 11.5398 222.091 11.2315C222.575 10.92 223.124 10.7642 223.737 10.7642C224.211 10.7642 224.594 10.8438 224.885 11.0028C225.177 11.1586 225.404 11.3409 225.567 11.5497C225.732 11.7585 225.86 11.9425 225.949 12.1016H226.059V10.8636H227.515V18.669C227.515 19.3253 227.363 19.8639 227.058 20.2848C226.753 20.7057 226.34 21.0173 225.82 21.2195C225.303 21.4216 224.72 21.5227 224.07 21.5227ZM224.055 17.1527C224.483 17.1527 224.844 17.0533 225.139 16.8544C225.437 16.6522 225.663 16.3639 225.815 15.9893C225.971 15.6115 226.049 15.1591 226.049 14.6321C226.049 14.1184 225.973 13.666 225.82 13.2749C225.668 12.8838 225.444 12.5788 225.149 12.3601C224.854 12.138 224.489 12.027 224.055 12.027C223.608 12.027 223.235 12.143 222.937 12.375C222.638 12.6037 222.413 12.9152 222.26 13.3097C222.111 13.7041 222.037 14.1449 222.037 14.6321C222.037 15.1326 222.113 15.5717 222.265 15.9496C222.418 16.3274 222.643 16.6224 222.942 16.8345C223.243 17.0466 223.614 17.1527 224.055 17.1527ZM234.701 8.31818V18.5H233.214V8.31818H234.701ZM238.923 18.669C238.439 18.669 238.001 18.5795 237.61 18.4006C237.219 18.2183 236.909 17.9548 236.681 17.6101C236.455 17.2654 236.343 16.8428 236.343 16.3423C236.343 15.9115 236.425 15.5568 236.591 15.2784C236.757 15 236.981 14.7796 237.262 14.6172C237.544 14.4548 237.859 14.3321 238.207 14.2493C238.555 14.1664 238.91 14.1035 239.271 14.0604C239.728 14.0073 240.099 13.9643 240.384 13.9311C240.669 13.8946 240.877 13.8366 241.006 13.7571C241.135 13.6776 241.2 13.5483 241.2 13.3693V13.3345C241.2 12.9003 241.077 12.5639 240.832 12.3253C240.59 12.0866 240.229 11.9673 239.748 11.9673C239.248 11.9673 238.853 12.0784 238.565 12.3004C238.28 12.5192 238.083 12.7628 237.973 13.0312L236.576 12.7131C236.742 12.2491 236.984 11.8745 237.302 11.5895C237.624 11.3011 237.993 11.0923 238.411 10.9631C238.828 10.8305 239.267 10.7642 239.728 10.7642C240.033 10.7642 240.356 10.8007 240.698 10.8736C241.042 10.9432 241.364 11.0724 241.662 11.2614C241.964 11.4503 242.211 11.7204 242.403 12.0717C242.595 12.4197 242.691 12.8722 242.691 13.429V18.5H241.24V17.456H241.18C241.084 17.6482 240.94 17.8371 240.747 18.0227C240.555 18.2083 240.308 18.3625 240.007 18.4851C239.705 18.6077 239.344 18.669 238.923 18.669ZM239.246 17.4759C239.657 17.4759 240.008 17.3946 240.3 17.2322C240.595 17.0698 240.819 16.8577 240.971 16.5959C241.127 16.3307 241.205 16.0473 241.205 15.7457V14.7614C241.152 14.8144 241.049 14.8641 240.896 14.9105C240.747 14.9536 240.577 14.9917 240.384 15.0249C240.192 15.0547 240.005 15.0829 239.823 15.1094C239.64 15.1326 239.488 15.1525 239.365 15.169C239.077 15.2055 238.813 15.2668 238.575 15.353C238.339 15.4392 238.151 15.5634 238.008 15.7259C237.869 15.8849 237.799 16.0971 237.799 16.3622C237.799 16.7301 237.935 17.0085 238.207 17.1974C238.479 17.383 238.825 17.4759 239.246 17.4759ZM248.236 10.8636V12.0568H244.065V10.8636H248.236ZM245.183 9.03409H246.67V16.2578C246.67 16.5462 246.713 16.7633 246.799 16.9091C246.885 17.0516 246.996 17.1494 247.132 17.2024C247.271 17.2521 247.422 17.277 247.585 17.277C247.704 17.277 247.808 17.2687 247.898 17.2521C247.987 17.2356 248.057 17.2223 248.107 17.2124L248.375 18.4403C248.289 18.4735 248.166 18.5066 248.007 18.5398C247.848 18.5762 247.649 18.5961 247.411 18.5994C247.019 18.6061 246.655 18.5365 246.317 18.3906C245.979 18.2448 245.705 18.0194 245.496 17.7145C245.288 17.4096 245.183 17.0268 245.183 16.5661V9.03409ZM253.089 18.6541C252.337 18.6541 251.689 18.4934 251.145 18.1719C250.605 17.8471 250.188 17.3913 249.893 16.8047C249.601 16.2147 249.455 15.5237 249.455 14.7315C249.455 13.9493 249.601 13.2599 249.893 12.6634C250.188 12.0668 250.599 11.6011 251.126 11.2663C251.656 10.9316 252.276 10.7642 252.985 10.7642C253.416 10.7642 253.833 10.8355 254.238 10.978C254.642 11.1205 255.005 11.3442 255.327 11.6491C255.648 11.9541 255.902 12.3501 256.087 12.8374C256.273 13.3213 256.366 13.9096 256.366 14.6023V15.1293H250.295V14.0156H254.909C254.909 13.6245 254.829 13.2782 254.67 12.9766C254.511 12.6716 254.287 12.4313 253.999 12.2557C253.714 12.08 253.379 11.9922 252.995 11.9922C252.577 11.9922 252.213 12.0949 251.901 12.3004C251.593 12.5026 251.354 12.7678 251.185 13.0959C251.019 13.4207 250.937 13.7737 250.937 14.1548V15.0249C250.937 15.5353 251.026 15.9695 251.205 16.3274C251.387 16.6854 251.641 16.9588 251.966 17.1477C252.291 17.3333 252.67 17.4261 253.104 17.4261C253.386 17.4261 253.643 17.3864 253.875 17.3068C254.107 17.224 254.307 17.1013 254.476 16.9389C254.645 16.7765 254.775 16.576 254.864 16.3374L256.271 16.5909C256.158 17.0052 255.956 17.3681 255.665 17.6797C255.376 17.9879 255.013 18.2282 254.576 18.4006C254.142 18.5696 253.646 18.6541 253.089 18.6541ZM258.015 18.5V10.8636H259.452V12.0767H259.531C259.67 11.6657 259.916 11.3426 260.267 11.1072C260.622 10.8686 261.023 10.7493 261.47 10.7493C261.563 10.7493 261.672 10.7526 261.798 10.7592C261.928 10.7659 262.029 10.7741 262.102 10.7841V12.206C262.042 12.1894 261.936 12.1712 261.783 12.1513C261.631 12.1281 261.478 12.1165 261.326 12.1165C260.975 12.1165 260.661 12.1911 260.386 12.3402C260.115 12.486 259.899 12.6899 259.74 12.9517C259.581 13.2102 259.501 13.5052 259.501 13.8366V18.5H258.015Z" fill="#49454E"/>
</svg>
