<svg width="82" height="50" viewBox="0 0 82 50" fill="none" xmlns="http://www.w3.org/2000/svg">
<rect width="82" height="50" fill="white"/>
<path d="M21.1039 40.14C20.3666 40.14 19.6853 40.014 19.0599 39.762C18.4346 39.5007 17.8886 39.1413 17.4219 38.684C16.9646 38.2267 16.6099 37.6947 16.3579 37.088C16.1059 36.472 15.9799 35.8047 15.9799 35.086C15.9799 34.3767 16.1059 33.7187 16.3579 33.112C16.6193 32.496 16.9833 31.964 17.4499 31.516C17.9166 31.0587 18.4626 30.704 19.0879 30.452C19.7226 30.2 20.4039 30.074 21.1319 30.074C21.6453 30.074 22.1399 30.144 22.6159 30.284C23.0919 30.424 23.5213 30.62 23.9039 30.872C24.2866 31.124 24.6039 31.4087 24.8559 31.726L23.7079 32.93C23.4466 32.678 23.1759 32.468 22.8959 32.3C22.6253 32.132 22.3406 32.0013 22.0419 31.908C21.7433 31.8147 21.4353 31.768 21.1179 31.768C20.6513 31.768 20.2173 31.852 19.8159 32.02C19.4239 32.188 19.0786 32.4213 18.7799 32.72C18.4906 33.0187 18.2619 33.3687 18.0939 33.77C17.9259 34.1713 17.8419 34.61 17.8419 35.086C17.8419 35.5433 17.9259 35.9773 18.0939 36.388C18.2713 36.7987 18.5139 37.158 18.8219 37.466C19.1299 37.774 19.4846 38.0167 19.8859 38.194C20.2966 38.362 20.7306 38.446 21.1879 38.446C21.5333 38.446 21.8553 38.3947 22.1539 38.292C22.4526 38.1893 22.7186 38.0493 22.9519 37.872C23.1853 37.6853 23.3626 37.4707 23.4839 37.228C23.6146 36.9853 23.6799 36.724 23.6799 36.444V36.136L23.9319 36.43H21.0339V34.806H25.4719C25.4906 34.9087 25.5046 35.0253 25.5139 35.156C25.5233 35.2773 25.5279 35.3987 25.5279 35.52C25.5373 35.632 25.5419 35.73 25.5419 35.814C25.5419 36.458 25.4299 37.046 25.2059 37.578C24.9819 38.1007 24.6646 38.5533 24.2539 38.936C23.8526 39.3187 23.3813 39.6173 22.8399 39.832C22.3079 40.0373 21.7293 40.14 21.1039 40.14ZM27.1447 40V32.622H28.8387L28.8667 34.974L28.6287 34.442C28.7314 34.0687 28.9087 33.7327 29.1607 33.434C29.4127 33.1353 29.7021 32.902 30.0287 32.734C30.3647 32.5567 30.7147 32.468 31.0787 32.468C31.2374 32.468 31.3867 32.482 31.5267 32.51C31.6761 32.538 31.7974 32.5707 31.8907 32.608L31.4287 34.498C31.3261 34.442 31.2001 34.3953 31.0507 34.358C30.9014 34.3207 30.7521 34.302 30.6027 34.302C30.3694 34.302 30.1454 34.3487 29.9307 34.442C29.7254 34.526 29.5434 34.6473 29.3847 34.806C29.2261 34.9647 29.1001 35.1513 29.0067 35.366C28.9227 35.5713 28.8807 35.8047 28.8807 36.066V40H27.1447ZM35.5088 40.14C34.9022 40.14 34.3515 39.972 33.8568 39.636C33.3622 39.3 32.9655 38.8427 32.6668 38.264C32.3682 37.6853 32.2188 37.0273 32.2188 36.29C32.2188 35.5527 32.3682 34.8947 32.6668 34.316C32.9655 33.7373 33.3715 33.2847 33.8848 32.958C34.3982 32.6313 34.9768 32.468 35.6208 32.468C35.9942 32.468 36.3348 32.524 36.6428 32.636C36.9508 32.7387 37.2215 32.888 37.4548 33.084C37.6882 33.28 37.8795 33.504 38.0288 33.756C38.1875 34.008 38.2948 34.2787 38.3508 34.568L37.9728 34.47V32.622H39.7088V40H37.9588V38.236L38.3648 38.166C38.2995 38.418 38.1782 38.6653 38.0008 38.908C37.8328 39.1413 37.6182 39.3513 37.3568 39.538C37.1048 39.7153 36.8202 39.86 36.5028 39.972C36.1948 40.084 35.8635 40.14 35.5088 40.14ZM35.9848 38.614C36.3862 38.614 36.7408 38.516 37.0488 38.32C37.3568 38.124 37.5948 37.8533 37.7628 37.508C37.9402 37.1533 38.0288 36.7473 38.0288 36.29C38.0288 35.842 37.9402 35.4453 37.7628 35.1C37.5948 34.7547 37.3568 34.484 37.0488 34.288C36.7408 34.092 36.3862 33.994 35.9848 33.994C35.5835 33.994 35.2288 34.092 34.9208 34.288C34.6222 34.484 34.3888 34.7547 34.2208 35.1C34.0528 35.4453 33.9688 35.842 33.9688 36.29C33.9688 36.7473 34.0528 37.1533 34.2208 37.508C34.3888 37.8533 34.6222 38.124 34.9208 38.32C35.2288 38.516 35.5835 38.614 35.9848 38.614ZM41.7053 43.08V32.622H43.3993L43.4273 34.302L43.1333 34.176C43.1893 33.8867 43.3479 33.616 43.6093 33.364C43.8706 33.1027 44.1879 32.8927 44.5613 32.734C44.9439 32.5753 45.3406 32.496 45.7513 32.496C46.4046 32.496 46.9833 32.6593 47.4873 32.986C48.0006 33.3127 48.4019 33.7607 48.6913 34.33C48.9899 34.8993 49.1393 35.5573 49.1393 36.304C49.1393 37.0413 48.9899 37.6993 48.6913 38.278C48.4019 38.8473 48.0006 39.3 47.4873 39.636C46.9833 39.9627 46.4139 40.126 45.7793 40.126C45.3499 40.126 44.9346 40.042 44.5333 39.874C44.1413 39.706 43.8053 39.4867 43.5253 39.216C43.2546 38.9453 43.0866 38.6607 43.0213 38.362L43.4413 38.166V43.08H41.7053ZM45.4293 38.6C45.8213 38.6 46.1713 38.502 46.4793 38.306C46.7873 38.11 47.0253 37.8393 47.1933 37.494C47.3706 37.1487 47.4593 36.752 47.4593 36.304C47.4593 35.856 47.3753 35.464 47.2073 35.128C47.0393 34.7827 46.8013 34.512 46.4933 34.316C46.1853 34.12 45.8306 34.022 45.4293 34.022C45.0186 34.022 44.6593 34.12 44.3513 34.316C44.0526 34.5027 43.8146 34.7687 43.6373 35.114C43.4599 35.4593 43.3713 35.856 43.3713 36.304C43.3713 36.752 43.4599 37.1487 43.6373 37.494C43.8146 37.8393 44.0526 38.11 44.3513 38.306C44.6593 38.502 45.0186 38.6 45.4293 38.6ZM54.132 40.14C53.3573 40.14 52.6713 39.9767 52.074 39.65C51.486 39.3233 51.024 38.88 50.688 38.32C50.3613 37.7507 50.198 37.102 50.198 36.374C50.198 35.7953 50.2913 35.268 50.478 34.792C50.6647 34.316 50.9213 33.9053 51.248 33.56C51.584 33.2053 51.9807 32.9347 52.438 32.748C52.9047 32.552 53.4133 32.454 53.964 32.454C54.4493 32.454 54.902 32.5473 55.322 32.734C55.742 32.9207 56.106 33.1773 56.414 33.504C56.722 33.8213 56.9553 34.204 57.114 34.652C57.282 35.0907 57.3613 35.5713 57.352 36.094L57.338 36.696H51.36L51.038 35.52H55.896L55.672 35.758V35.45C55.644 35.1607 55.5507 34.9087 55.392 34.694C55.2333 34.47 55.028 34.2973 54.776 34.176C54.5333 34.0453 54.2627 33.98 53.964 33.98C53.5067 33.98 53.1193 34.0687 52.802 34.246C52.494 34.4233 52.2607 34.68 52.102 35.016C51.9433 35.3427 51.864 35.7533 51.864 36.248C51.864 36.724 51.962 37.1393 52.158 37.494C52.3633 37.8487 52.648 38.124 53.012 38.32C53.3853 38.5067 53.8193 38.6 54.314 38.6C54.6593 38.6 54.9767 38.544 55.266 38.432C55.5553 38.32 55.868 38.1193 56.204 37.83L57.058 39.02C56.806 39.2533 56.5167 39.454 56.19 39.622C55.8727 39.7807 55.5367 39.9067 55.182 40C54.8273 40.0933 54.4773 40.14 54.132 40.14ZM61.3411 40.14C60.6878 40.14 60.0998 40.0327 59.5771 39.818C59.0638 39.594 58.6438 39.2767 58.3171 38.866L59.4371 37.9C59.7171 38.2173 60.0298 38.446 60.3751 38.586C60.7205 38.726 61.0845 38.796 61.4671 38.796C61.6258 38.796 61.7658 38.7773 61.8871 38.74C62.0178 38.7027 62.1298 38.6467 62.2231 38.572C62.3165 38.4973 62.3865 38.4133 62.4331 38.32C62.4891 38.2173 62.5171 38.1053 62.5171 37.984C62.5171 37.76 62.4331 37.5827 62.2651 37.452C62.1718 37.3867 62.0225 37.3167 61.8171 37.242C61.6211 37.1673 61.3645 37.0927 61.0471 37.018C60.5431 36.8873 60.1231 36.738 59.7871 36.57C59.4511 36.3927 59.1898 36.1967 59.0031 35.982C58.8445 35.8047 58.7231 35.604 58.6391 35.38C58.5645 35.156 58.5271 34.9133 58.5271 34.652C58.5271 34.3253 58.5971 34.0313 58.7371 33.77C58.8865 33.4993 59.0871 33.266 59.3391 33.07C59.5911 32.874 59.8851 32.7247 60.2211 32.622C60.5571 32.5193 60.9071 32.468 61.2711 32.468C61.6445 32.468 62.0038 32.5147 62.3491 32.608C62.7038 32.7013 63.0305 32.8367 63.3291 33.014C63.6371 33.182 63.8985 33.3873 64.1131 33.63L63.1611 34.68C62.9838 34.512 62.7878 34.3627 62.5731 34.232C62.3678 34.1013 62.1578 33.9987 61.9431 33.924C61.7285 33.84 61.5278 33.798 61.3411 33.798C61.1638 33.798 61.0051 33.8167 60.8651 33.854C60.7251 33.882 60.6085 33.9287 60.5151 33.994C60.4218 34.0593 60.3471 34.1433 60.2911 34.246C60.2445 34.3393 60.2211 34.4513 60.2211 34.582C60.2305 34.694 60.2585 34.8013 60.3051 34.904C60.3611 34.9973 60.4358 35.0767 60.5291 35.142C60.6318 35.2073 60.7858 35.282 60.9911 35.366C61.1965 35.45 61.4625 35.5293 61.7891 35.604C62.2465 35.7253 62.6291 35.8607 62.9371 36.01C63.2451 36.1593 63.4878 36.332 63.6651 36.528C63.8425 36.696 63.9685 36.892 64.0431 37.116C64.1178 37.34 64.1551 37.5873 64.1551 37.858C64.1551 38.2967 64.0291 38.6887 63.7771 39.034C63.5345 39.3793 63.1985 39.65 62.7691 39.846C62.3491 40.042 61.8731 40.14 61.3411 40.14Z" fill="black"/>
<path d="M37.8491 13.3148C39.3139 13.3148 40.5065 12.1223 40.5065 10.6574C40.5065 9.19254 39.3139 8 37.8491 8C36.3842 8 35.1917 9.19254 35.1917 10.6574C35.1917 12.1223 36.3842 13.3148 37.8491 13.3148ZM36.9117 10.6574C36.9117 10.1414 37.3302 9.72001 37.8491 9.72001C38.3679 9.72001 38.7865 10.1385 38.7865 10.6574C38.7865 11.1763 38.3679 11.5948 37.8491 11.5948C37.3302 11.5948 36.9117 11.1763 36.9117 10.6574Z" fill="black"/>
<path d="M39.01 15.6828C39.01 17.1477 40.2025 18.3402 41.6674 18.3402C43.1323 18.3402 44.3248 17.1477 44.3248 15.6828C44.3248 14.2179 43.1323 13.0254 41.6674 13.0254C40.2025 13.0254 39.01 14.2179 39.01 15.6828ZM40.73 15.6828C40.73 15.1668 41.1486 14.7454 41.6674 14.7454C42.1863 14.7454 42.6048 15.1639 42.6048 15.6828C42.6048 16.2017 42.1863 16.6202 41.6674 16.6202C41.1486 16.6202 40.73 16.2017 40.73 15.6828Z" fill="black"/>
<path d="M45.7668 18.0537C44.3019 18.0537 43.1094 19.2462 43.1094 20.7111C43.1094 22.176 44.3019 23.3685 45.7668 23.3685C47.2317 23.3685 48.4242 22.176 48.4242 20.7111C48.4242 19.2462 47.2317 18.0537 45.7668 18.0537ZM46.7042 20.7111C46.7042 21.2271 46.2857 21.6485 45.7668 21.6485C45.2479 21.6485 44.8294 21.23 44.8294 20.7111C44.8294 20.1923 45.2479 19.7737 45.7668 19.7737C46.2857 19.7737 46.7042 20.1923 46.7042 20.7111Z" fill="black"/>
<path d="M35.051 19.3007C36.5158 19.3007 37.7084 18.1081 37.7084 16.6433C37.7084 15.1784 36.5158 13.9858 35.051 13.9858C33.5861 13.9858 32.3936 15.1784 32.3936 16.6433C32.3936 18.1081 33.5861 19.3007 35.051 19.3007ZM34.1136 16.6433C34.1136 16.1273 34.5321 15.7058 35.051 15.7058C35.5698 15.7058 35.9884 16.1244 35.9884 16.6433C35.9884 17.1621 35.5698 17.5807 35.051 17.5807C34.5321 17.5807 34.1136 17.1621 34.1136 16.6433Z" fill="black"/>
<path d="M39.1533 19.0137C37.6884 19.0137 36.4958 20.2062 36.4958 21.6711C36.4958 23.136 37.6884 24.3285 39.1533 24.3285C40.6181 24.3285 41.8107 23.136 41.8107 21.6711C41.8107 20.2062 40.6181 19.0137 39.1533 19.0137ZM39.1533 22.6056C38.6373 22.6056 38.2159 22.1871 38.2159 21.6682C38.2159 21.1493 38.6344 20.7308 39.1533 20.7308C39.6721 20.7308 40.0907 21.1493 40.0907 21.6682C40.0907 22.1871 39.6721 22.6056 39.1533 22.6056Z" fill="black"/>
<path d="M32.6574 20.1118C31.1925 20.1118 30 21.3044 30 22.7692C30 24.2341 31.1925 25.4266 32.6574 25.4266C34.1223 25.4266 35.3148 24.2341 35.3148 22.7692C35.3148 21.3044 34.1223 20.1118 32.6574 20.1118ZM33.5948 22.7692C33.5948 23.2852 33.1763 23.7066 32.6574 23.7066C32.1385 23.7066 31.72 23.2881 31.72 22.7692C31.72 22.2504 32.1385 21.8318 32.6574 21.8318C33.1763 21.8318 33.5948 22.2504 33.5948 22.7692Z" fill="black"/>
<path d="M49.9435 12.7415C49.8633 12.5265 49.7027 12.3573 49.4906 12.2627C49.2813 12.1681 49.0463 12.1624 48.8341 12.2426C48.0831 12.5265 46.7529 10.4997 46.128 8.92016C45.9531 8.47869 45.4543 8.26369 45.0129 8.43569C44.5714 8.61056 44.3564 9.10937 44.5284 9.55083C44.6115 9.75724 44.9039 10.471 45.3683 11.2708C45.1247 11.3912 44.9125 11.5432 44.7377 11.7295C44.428 12.0592 44.0869 12.6497 44.1987 13.6043C44.2503 14.0372 44.6172 14.364 45.053 14.364C45.0874 14.364 45.1218 14.364 45.1533 14.3583C45.6235 14.3038 45.9617 13.8738 45.9073 13.4037C45.8786 13.1686 45.9073 12.9966 45.9904 12.9077C46.0649 12.8246 46.214 12.7615 46.4003 12.7271C47.3951 13.848 48.4357 14.2321 49.4447 13.848C49.8891 13.6789 50.1127 13.1829 49.9435 12.7386V12.7415Z" fill="black"/>
</svg>
