<svg width="34" height="38" viewBox="0 0 34 38" fill="none" xmlns="http://www.w3.org/2000/svg">
<path d="M16.25 12.75H8.75C8.5375 12.75 8.35938 12.678 8.21563 12.5341C8.07188 12.3902 8 12.2118 8 11.999C8 11.7862 8.07188 11.6082 8.21563 11.4649C8.35938 11.3216 8.5375 11.25 8.75 11.25H16.25V3.75C16.25 3.5375 16.322 3.35938 16.4659 3.21563C16.6098 3.07188 16.7882 3 17.001 3C17.2138 3 17.3918 3.07188 17.5351 3.21563C17.6784 3.35938 17.75 3.5375 17.75 3.75V11.25H25.25C25.4625 11.25 25.6406 11.322 25.7844 11.4659C25.9281 11.6098 26 11.7882 26 12.001C26 12.2138 25.9281 12.3918 25.7844 12.5351C25.6406 12.6784 25.4625 12.75 25.25 12.75H17.75V20.25C17.75 20.4625 17.678 20.6406 17.5341 20.7844C17.3902 20.9281 17.2118 21 16.999 21C16.7862 21 16.6082 20.9281 16.4649 20.7844C16.3216 20.6406 16.25 20.4625 16.25 20.25V12.75Z" fill="#CAC4CF"/>
<path d="M7.45881 37V28.2727H8.77557V35.8665H12.7301V37H7.45881ZM14.13 37V30.4545H15.4041V37H14.13ZM14.7734 29.4446C14.5518 29.4446 14.3615 29.3707 14.2024 29.223C14.0462 29.0724 13.968 28.8935 13.968 28.6861C13.968 28.4759 14.0462 28.2969 14.2024 28.1491C14.3615 27.9986 14.5518 27.9233 14.7734 27.9233C14.995 27.9233 15.1839 27.9986 15.3402 28.1491C15.4993 28.2969 15.5788 28.4759 15.5788 28.6861C15.5788 28.8935 15.4993 29.0724 15.3402 29.223C15.1839 29.3707 14.995 29.4446 14.7734 29.4446ZM22.0231 32.0526L20.8683 32.2571C20.82 32.1094 20.7433 31.9687 20.6381 31.8352C20.5359 31.7017 20.3967 31.5923 20.2205 31.5071C20.0444 31.4219 19.8242 31.3793 19.56 31.3793C19.1992 31.3793 18.8981 31.4602 18.6566 31.6222C18.4151 31.7812 18.2944 31.9872 18.2944 32.2401C18.2944 32.4588 18.3754 32.6349 18.5373 32.7685C18.6992 32.902 18.9606 33.0114 19.3214 33.0966L20.3612 33.3352C20.9634 33.4744 21.4123 33.6889 21.7077 33.9787C22.0032 34.2685 22.1509 34.6449 22.1509 35.108C22.1509 35.5 22.0373 35.8494 21.81 36.1562C21.5856 36.4602 21.2717 36.6989 20.8683 36.8722C20.4677 37.0455 20.0032 37.1321 19.4748 37.1321C18.7418 37.1321 18.1438 36.9759 17.6808 36.6634C17.2177 36.348 16.9336 35.9006 16.8285 35.321L18.06 35.1335C18.1367 35.4545 18.2944 35.6974 18.533 35.8622C18.7717 36.0241 19.0827 36.1051 19.4663 36.1051C19.8839 36.1051 20.2177 36.0185 20.4677 35.8452C20.7177 35.669 20.8427 35.4545 20.8427 35.2017C20.8427 34.9972 20.766 34.8253 20.6126 34.6861C20.462 34.5469 20.2305 34.4418 19.918 34.3707L18.81 34.1278C18.1992 33.9886 17.7475 33.767 17.4549 33.4631C17.1651 33.1591 17.0202 32.7741 17.0202 32.3082C17.0202 31.9219 17.1282 31.5838 17.3441 31.294C17.56 31.0043 17.8583 30.7784 18.239 30.6165C18.6197 30.4517 19.0558 30.3693 19.5472 30.3693C20.2546 30.3693 20.8114 30.5227 21.2177 30.8295C21.6239 31.1335 21.8924 31.5412 22.0231 32.0526ZM26.6072 30.4545V31.4773H23.032V30.4545H26.6072ZM23.9908 28.8864H25.2649V35.0781C25.2649 35.3253 25.3018 35.5114 25.3757 35.6364C25.4496 35.7585 25.5447 35.8423 25.6612 35.8878C25.7805 35.9304 25.9098 35.9517 26.049 35.9517C26.1513 35.9517 26.2408 35.9446 26.3175 35.9304C26.3942 35.9162 26.4538 35.9048 26.4964 35.8963L26.7266 36.9489C26.6527 36.9773 26.5476 37.0057 26.4112 37.0341C26.2749 37.0653 26.1044 37.0824 25.8999 37.0852C25.5646 37.0909 25.2521 37.0312 24.9624 36.9062C24.6726 36.7812 24.4382 36.5881 24.2592 36.3267C24.0803 36.0653 23.9908 35.7372 23.9908 35.3423V28.8864Z" fill="#CAC4CF"/>
</svg>
