<?xml version="1.0" standalone="no"?>
<!DOCTYPE svg PUBLIC "-//W3C//DTD SVG 20010904//EN"
 "http://www.w3.org/TR/2001/REC-SVG-20010904/DTD/svg10.dtd">
<svg version="1.0" xmlns="http://www.w3.org/2000/svg"
 width="722.000000pt" height="487.000000pt" viewBox="0 0 722.000000 487.000000"
 preserveAspectRatio="xMidYMid meet">

<g transform="translate(0.000000,487.000000) scale(0.100000,-0.100000)"
fill="#000000" stroke="none">
<path d="M3502 4148 c-46 -27 -81 -55 -79 -61 8 -19 139 -209 142 -205 7 7
125 267 125 275 0 13 -60 43 -83 42 -12 0 -59 -23 -105 -51z"/>
<path d="M3701 4078 c-108 -237 -111 -242 -125 -223 -12 16 -13 16 -19 1 -4
-9 -4 -23 -1 -31 7 -17 24 -20 24 -5 0 29 32 -12 184 -235 92 -135 171 -245
174 -245 8 0 286 510 281 515 -2 1 -98 58 -214 125 -115 67 -225 131 -243 142
l-32 20 -29 -64z"/>
<path d="M2925 3812 l-440 -257 0 -63 0 -62 275 -335 c151 -184 277 -332 281
-327 10 9 499 1057 499 1068 0 15 -154 234 -164 234 -6 -1 -209 -117 -451
-258z"/>
<path d="M4111 3565 c-79 -146 -147 -265 -151 -265 -5 0 -11 6 -14 13 -5 10
-7 10 -12 0 -3 -7 -9 -13 -14 -13 -4 0 -76 100 -159 223 -171 251 -188 274
-194 267 -16 -17 -498 -1064 -494 -1073 6 -15 307 -381 315 -384 4 -2 124 212
266 475 143 262 261 479 263 482 3 3 9 -3 15 -13 9 -17 11 -17 22 -2 10 13 27
-7 113 -132 56 -81 185 -268 286 -415 l184 -266 101 187 102 188 -2 358 -3
359 -235 138 c-129 76 -237 138 -240 138 -3 0 -70 -120 -149 -265z"/>
<path d="M2480 2805 l1 -570 123 -71 124 -71 143 306 c78 168 144 308 146 310
1 2 9 -2 18 -9 12 -10 16 -9 21 5 9 23 -14 45 -26 25 -6 -10 -12 -11 -18 -5
-5 6 -120 147 -257 315 -136 168 -254 312 -262 320 -11 12 -13 -77 -13 -555z"/>
<path d="M3918 3208 c-72 -124 -491 -901 -492 -912 -1 -14 440 -556 453 -556
5 0 93 49 196 109 l187 110 124 227 c68 125 124 232 124 237 0 7 -539 797
-560 820 -4 5 -19 -11 -32 -35z"/>
<path d="M4661 2612 c-100 -184 -101 -185 -117 -171 -11 9 -15 8 -20 -4 -9
-25 5 -40 23 -25 12 10 17 9 23 -2 24 -42 127 -184 135 -187 33 -10 35 12 33
270 l-3 257 -74 -138z"/>
<path d="M2916 2402 c-71 -152 -135 -289 -142 -303 -13 -26 -13 -26 170 -132
101 -59 185 -107 188 -107 3 0 58 97 122 214 l117 215 -158 195 c-87 107 -160
195 -163 195 -3 1 -63 -124 -134 -277z"/>
<path d="M4475 2273 c-32 -60 -78 -146 -103 -192 -25 -47 -41 -82 -36 -79 117
68 330 191 331 193 4 2 -122 184 -128 185 -3 0 -32 -48 -64 -107z"/>
<path d="M3385 2308 c-10 -26 2 -55 17 -40 8 8 8 18 1 34 -10 21 -12 21 -18 6z"/>
<path d="M3323 2117 c-39 -72 -89 -166 -112 -207 l-40 -75 209 -123 c115 -67
219 -122 230 -122 31 0 231 120 223 134 -14 22 -425 521 -431 523 -4 2 -39
-57 -79 -130z"/>
<path d="M4070 965 c0 -34 1 -35 40 -35 39 0 40 1 40 35 0 34 -1 35 -40 35
-39 0 -40 -1 -40 -35z"/>
<path d="M3610 900 c0 -23 -4 -30 -20 -30 -16 0 -20 -7 -20 -35 0 -28 4 -35
20 -35 19 0 20 -7 20 -134 0 -128 1 -136 22 -150 12 -9 42 -16 66 -16 43 0 43
0 40 33 -2 24 -8 33 -25 35 -22 3 -23 7 -23 117 0 110 1 114 23 117 17 2 22
10 22 33 0 23 -5 31 -22 33 -18 3 -23 10 -23 33 0 27 -2 29 -40 29 -38 0 -40
-2 -40 -30z"/>
<path d="M4950 901 c0 -20 -6 -30 -20 -34 -14 -3 -20 -14 -20 -32 0 -18 6 -29
20 -32 19 -5 20 -14 20 -130 0 -118 1 -125 25 -148 18 -18 35 -25 65 -25 39 0
40 1 40 35 0 31 -3 35 -25 35 l-25 0 0 115 0 115 25 0 c22 0 25 4 25 35 0 31
-3 35 -25 35 -21 0 -25 5 -25 30 0 28 -2 30 -40 30 -37 0 -40 -2 -40 -29z"/>
<path d="M2120 685 l0 -185 40 0 40 0 0 150 0 150 35 0 35 0 0 -150 0 -150 40
0 40 0 0 163 c0 146 -2 166 -18 180 -29 26 -78 32 -107 13 -22 -14 -25 -15
-25 -1 0 11 -11 15 -40 15 l-40 0 0 -185z"/>
<path d="M2515 863 c-51 -14 -55 -27 -55 -178 0 -178 0 -178 107 -183 92 -5
118 10 129 71 l6 37 -40 0 c-34 0 -41 -3 -44 -22 -2 -19 -10 -24 -40 -26 l-38
-3 0 50 0 51 81 0 81 0 -3 85 c-5 105 -14 116 -100 120 -35 2 -73 1 -84 -2z
m103 -105 l3 -48 -40 0 -41 0 0 43 c0 52 5 59 45 55 28 -3 30 -6 33 -50z"/>
<path d="M2775 848 c6 -26 65 -338 65 -344 0 -2 22 -4 48 -4 l49 0 18 121 c10
66 22 122 25 124 4 3 15 -44 24 -103 25 -153 20 -144 74 -140 l46 3 33 165
c41 211 41 200 -1 200 -38 0 -33 15 -67 -203 -6 -43 -14 -75 -17 -72 -3 3 -15
65 -26 138 l-21 132 -41 3 -42 3 -11 -63 c-6 -35 -16 -98 -23 -140 -6 -43 -14
-75 -17 -72 -3 3 -15 65 -26 137 l-20 132 -38 3 c-35 3 -37 2 -32 -20z"/>
<path d="M3320 862 c-14 -4 -31 -19 -38 -32 -17 -32 -11 -136 9 -155 8 -8 39
-18 69 -22 l55 -8 0 -40 c0 -38 -2 -40 -30 -40 -23 0 -31 5 -33 23 -3 18 -10
22 -38 22 -33 0 -34 -1 -34 -39 0 -54 25 -71 107 -71 87 0 103 17 103 109 0
82 -10 93 -84 101 l-51 5 0 45 c0 42 2 45 28 48 23 3 27 0 27 -22 0 -24 4 -26
40 -26 39 0 40 1 40 33 0 21 -8 41 -19 51 -21 19 -111 30 -151 18z"/>
<path d="M3827 863 c-4 -3 -7 -87 -7 -185 l0 -178 40 0 40 0 0 130 c0 117 2
132 20 150 11 11 29 20 40 20 16 0 20 7 20 35 0 41 -19 46 -50 15 -11 -11 -22
-20 -25 -20 -3 0 -5 9 -5 20 0 16 -7 20 -33 20 -19 0 -37 -3 -40 -7z"/>
<path d="M4070 685 l0 -185 40 0 40 0 0 185 0 185 -40 0 -40 0 0 -185z"/>
<path d="M4315 863 c-51 -14 -55 -27 -55 -178 0 -178 0 -178 107 -183 92 -5
118 10 129 71 l6 37 -40 0 c-34 0 -41 -3 -44 -22 -2 -19 -10 -24 -40 -26 l-38
-3 0 50 0 51 81 0 81 0 -3 85 c-5 105 -14 116 -100 120 -35 2 -73 1 -84 -2z
m103 -105 l3 -48 -40 0 -41 0 0 43 c0 52 5 59 45 55 28 -3 30 -6 33 -50z"/>
<path d="M4600 685 l0 -185 40 0 40 0 0 150 0 150 35 0 35 0 0 -150 0 -150 40
0 40 0 0 163 c0 146 -2 166 -18 180 -29 26 -78 32 -107 13 -22 -14 -25 -15
-25 -1 0 11 -11 15 -40 15 l-40 0 0 -185z"/>
</g>
</svg>
