<svg width="345" height="41" viewBox="0 0 345 41" fill="none" xmlns="http://www.w3.org/2000/svg">
<path d="M1.11861 11V0.818182H4.74787C5.5367 0.818182 6.19129 0.954072 6.71165 1.22585C7.23532 1.49763 7.62642 1.87382 7.88494 2.3544C8.14347 2.83168 8.27273 3.38352 8.27273 4.00994C8.27273 4.63305 8.14181 5.18158 7.87997 5.65554C7.62145 6.12618 7.23035 6.49242 6.70668 6.75426C6.18632 7.0161 5.53172 7.14702 4.7429 7.14702H1.99361V5.82457H4.60369C5.10085 5.82457 5.50521 5.75331 5.81676 5.6108C6.13163 5.46828 6.36198 5.26113 6.50781 4.98935C6.65365 4.71757 6.72656 4.3911 6.72656 4.00994C6.72656 3.62547 6.65199 3.29238 6.50284 3.01065C6.35701 2.72893 6.12666 2.51349 5.81179 2.36435C5.50024 2.21188 5.09091 2.13565 4.58381 2.13565H2.65483V11H1.11861ZM6.14489 6.40625L8.66051 11H6.91051L4.4446 6.40625H6.14489ZM13.2182 11.1541C12.4658 11.1541 11.8179 10.9934 11.2743 10.6719C10.7341 10.3471 10.3165 9.89134 10.0215 9.30469C9.72982 8.71473 9.58398 8.02367 9.58398 7.23153C9.58398 6.44934 9.72982 5.75994 10.0215 5.16335C10.3165 4.56676 10.7275 4.10109 11.2544 3.76633C11.7847 3.43158 12.4045 3.2642 13.1138 3.2642C13.5447 3.2642 13.9623 3.33546 14.3667 3.47798C14.771 3.6205 15.1339 3.84422 15.4554 4.14915C15.7769 4.45407 16.0305 4.85014 16.2161 5.33736C16.4017 5.82126 16.4945 6.40956 16.4945 7.10227V7.62926H10.4242V6.51562H15.0378C15.0378 6.12453 14.9583 5.77817 14.7992 5.47656C14.6401 5.17164 14.4164 4.93134 14.128 4.75568C13.843 4.58002 13.5082 4.49219 13.1238 4.49219C12.7061 4.49219 12.3416 4.59493 12.03 4.80043C11.7218 5.0026 11.4831 5.26776 11.3141 5.59588C11.1484 5.92069 11.0655 6.27367 11.0655 6.65483V7.52486C11.0655 8.03527 11.155 8.46946 11.334 8.82741C11.5163 9.18537 11.7698 9.45881 12.0946 9.64773C12.4194 9.83333 12.7989 9.92614 13.2331 9.92614C13.5149 9.92614 13.7717 9.88636 14.0037 9.80682C14.2357 9.72396 14.4363 9.60133 14.6053 9.43892C14.7743 9.27652 14.9036 9.07599 14.9931 8.83736L16.4 9.09091C16.2873 9.50521 16.0852 9.86813 15.7935 10.1797C15.5051 10.4879 15.1422 10.7282 14.7047 10.9006C14.2705 11.0696 13.775 11.1541 13.2182 11.1541ZM20.3661 11.169C19.8822 11.169 19.4447 11.0795 19.0536 10.9006C18.6625 10.7183 18.3526 10.4548 18.1239 10.1101C17.8986 9.76539 17.7859 9.3428 17.7859 8.84233C17.7859 8.41146 17.8687 8.05682 18.0344 7.77841C18.2002 7.5 18.4239 7.27959 18.7056 7.11719C18.9873 6.95478 19.3022 6.83215 19.6502 6.74929C19.9982 6.66643 20.3529 6.60346 20.7141 6.56037C21.1715 6.50734 21.5427 6.46425 21.8278 6.43111C22.1128 6.39465 22.32 6.33665 22.4492 6.2571C22.5785 6.17756 22.6431 6.0483 22.6431 5.86932V5.83452C22.6431 5.40033 22.5205 5.06392 22.2752 4.82528C22.0333 4.58665 21.672 4.46733 21.1914 4.46733C20.6909 4.46733 20.2965 4.57836 20.0082 4.80043C19.7231 5.01918 19.5259 5.26278 19.4165 5.53125L18.0195 5.21307C18.1853 4.74905 18.4272 4.37453 18.7454 4.08949C19.0669 3.80114 19.4364 3.59233 19.854 3.46307C20.2717 3.33049 20.7108 3.2642 21.1715 3.2642C21.4764 3.2642 21.7996 3.30066 22.141 3.37358C22.4857 3.44318 22.8072 3.57244 23.1055 3.76136C23.4071 3.95028 23.654 4.22041 23.8462 4.57173C24.0385 4.91974 24.1346 5.37216 24.1346 5.92898V11H22.6829V9.95597H22.6232C22.5271 10.1482 22.3829 10.3371 22.1907 10.5227C21.9985 10.7083 21.7515 10.8625 21.4499 10.9851C21.1483 11.1077 20.7871 11.169 20.3661 11.169ZM20.6893 9.97585C21.1003 9.97585 21.4516 9.89465 21.7433 9.73224C22.0382 9.56984 22.262 9.35772 22.4144 9.09588C22.5702 8.83073 22.6481 8.54735 22.6481 8.24574V7.26136C22.5951 7.31439 22.4923 7.36411 22.3398 7.41051C22.1907 7.4536 22.02 7.49171 21.8278 7.52486C21.6355 7.55469 21.4483 7.58286 21.266 7.60938C21.0837 7.63258 20.9312 7.65246 20.8086 7.66903C20.5202 7.70549 20.2567 7.76681 20.0181 7.85298C19.7828 7.93916 19.5939 8.06345 19.4513 8.22585C19.3121 8.38494 19.2425 8.59706 19.2425 8.86222C19.2425 9.23011 19.3784 9.50852 19.6502 9.69744C19.922 9.88305 20.2683 9.97585 20.6893 9.97585ZM27.601 0.818182V11H26.1145V0.818182H27.601ZM33.4252 11V0.818182H37.0545C37.8467 0.818182 38.5029 0.962358 39.0233 1.25071C39.5436 1.53906 39.9331 1.93347 40.1916 2.43395C40.4501 2.93111 40.5794 3.49124 40.5794 4.11435C40.5794 4.74077 40.4484 5.30421 40.1866 5.80469C39.9281 6.30185 39.537 6.69626 39.0133 6.98793C38.493 7.27628 37.8384 7.42045 37.0495 7.42045H34.5538V6.1179H36.9103C37.4108 6.1179 37.8168 6.03172 38.1284 5.85938C38.4399 5.68371 38.6686 5.44508 38.8145 5.14347C38.9603 4.84186 39.0332 4.49882 39.0332 4.11435C39.0332 3.72988 38.9603 3.38849 38.8145 3.0902C38.6686 2.7919 38.4383 2.55824 38.1234 2.3892C37.8118 2.22017 37.4009 2.13565 36.8904 2.13565H34.9615V11H33.4252ZM42.261 11V3.36364H43.6978V4.5767H43.7773C43.9165 4.16572 44.1618 3.84257 44.5131 3.60724C44.8678 3.36861 45.2688 3.24929 45.7163 3.24929C45.8091 3.24929 45.9184 3.2526 46.0444 3.25923C46.1737 3.26586 46.2747 3.27415 46.3477 3.28409V4.70597C46.288 4.68939 46.1819 4.67116 46.0295 4.65128C45.877 4.62808 45.7246 4.61648 45.5721 4.61648C45.2208 4.61648 44.9076 4.69105 44.6325 4.8402C44.3607 4.98603 44.1452 5.18987 43.9862 5.4517C43.8271 5.71023 43.7475 6.00521 43.7475 6.33665V11H42.261ZM47.6341 11V3.36364H49.1206V11H47.6341ZM48.3848 2.18537C48.1262 2.18537 47.9042 2.09919 47.7186 1.92685C47.5363 1.75118 47.4451 1.54238 47.4451 1.30043C47.4451 1.05516 47.5363 0.846354 47.7186 0.674005C47.9042 0.498342 48.1262 0.410511 48.3848 0.410511C48.6433 0.410511 48.8637 0.498342 49.046 0.674005C49.2316 0.846354 49.3244 1.05516 49.3244 1.30043C49.3244 1.54238 49.2316 1.75118 49.046 1.92685C48.8637 2.09919 48.6433 2.18537 48.3848 2.18537ZM54.337 11.1541C53.5979 11.1541 52.9615 10.9867 52.4279 10.652C51.8976 10.3139 51.4899 9.84825 51.2049 9.25497C50.9199 8.66169 50.7773 7.98224 50.7773 7.21662C50.7773 6.44105 50.9232 5.75663 51.2148 5.16335C51.5065 4.56676 51.9175 4.10109 52.4478 3.76633C52.9781 3.43158 53.6029 3.2642 54.3221 3.2642C54.9021 3.2642 55.4192 3.37192 55.8732 3.58736C56.3273 3.79948 56.6935 4.09777 56.9719 4.48224C57.2537 4.86671 57.421 5.31581 57.4741 5.82955H56.0273C55.9478 5.47159 55.7655 5.16335 55.4805 4.90483C55.1987 4.64631 54.8209 4.51705 54.3469 4.51705C53.9326 4.51705 53.5697 4.62642 53.2582 4.84517C52.9499 5.06061 52.7096 5.36884 52.5373 5.76989C52.3649 6.16761 52.2788 6.63826 52.2788 7.18182C52.2788 7.73864 52.3633 8.21922 52.5323 8.62358C52.7013 9.02794 52.94 9.34115 53.2482 9.56321C53.5598 9.78527 53.926 9.89631 54.3469 9.89631C54.6287 9.89631 54.8839 9.84493 55.1126 9.74219C55.3446 9.63613 55.5385 9.48532 55.6942 9.28977C55.8533 9.09422 55.9644 8.8589 56.0273 8.58381H57.4741C57.421 9.07765 57.2603 9.51847 56.9918 9.90625C56.7234 10.294 56.3638 10.599 55.913 10.821C55.4656 11.0431 54.9402 11.1541 54.337 11.1541ZM62.3549 11.1541C61.6026 11.1541 60.9546 10.9934 60.411 10.6719C59.8708 10.3471 59.4532 9.89134 59.1582 9.30469C58.8665 8.71473 58.7207 8.02367 58.7207 7.23153C58.7207 6.44934 58.8665 5.75994 59.1582 5.16335C59.4532 4.56676 59.8642 4.10109 60.3912 3.76633C60.9215 3.43158 61.5413 3.2642 62.2505 3.2642C62.6814 3.2642 63.099 3.33546 63.5034 3.47798C63.9077 3.6205 64.2707 3.84422 64.5922 4.14915C64.9136 4.45407 65.1672 4.85014 65.3528 5.33736C65.5384 5.82126 65.6312 6.40956 65.6312 7.10227V7.62926H59.5609V6.51562H64.1745C64.1745 6.12453 64.095 5.77817 63.9359 5.47656C63.7768 5.17164 63.5531 4.93134 63.2647 4.75568C62.9797 4.58002 62.6449 4.49219 62.2605 4.49219C61.8429 4.49219 61.4783 4.59493 61.1667 4.80043C60.8585 5.0026 60.6199 5.26776 60.4508 5.59588C60.2851 5.92069 60.2022 6.27367 60.2022 6.65483V7.52486C60.2022 8.03527 60.2917 8.46946 60.4707 8.82741C60.653 9.18537 60.9065 9.45881 61.2314 9.64773C61.5562 9.83333 61.9357 9.92614 62.3699 9.92614C62.6516 9.92614 62.9084 9.88636 63.1404 9.80682C63.3725 9.72396 63.573 9.60133 63.742 9.43892C63.911 9.27652 64.0403 9.07599 64.1298 8.83736L65.5368 9.09091C65.4241 9.50521 65.2219 9.86813 64.9302 10.1797C64.6419 10.4879 64.2789 10.7282 63.8414 10.9006C63.4073 11.0696 62.9118 11.1541 62.3549 11.1541ZM79.405 0.818182L82.2388 9.1108H82.3532L85.187 0.818182H86.8475L83.1834 11H81.4086L77.7445 0.818182H79.405ZM90.7241 11.1541C89.9717 11.1541 89.3237 10.9934 88.7802 10.6719C88.2399 10.3471 87.8223 9.89134 87.5273 9.30469C87.2357 8.71473 87.0898 8.02367 87.0898 7.23153C87.0898 6.44934 87.2357 5.75994 87.5273 5.16335C87.8223 4.56676 88.2333 4.10109 88.7603 3.76633C89.2906 3.43158 89.9104 3.2642 90.6197 3.2642C91.0505 3.2642 91.4682 3.33546 91.8725 3.47798C92.2769 3.6205 92.6398 3.84422 92.9613 4.14915C93.2828 4.45407 93.5363 4.85014 93.7219 5.33736C93.9076 5.82126 94.0004 6.40956 94.0004 7.10227V7.62926H87.93V6.51562H92.5437C92.5437 6.12453 92.4641 5.77817 92.305 5.47656C92.146 5.17164 91.9222 4.93134 91.6339 4.75568C91.3488 4.58002 91.0141 4.49219 90.6296 4.49219C90.212 4.49219 89.8474 4.59493 89.5359 4.80043C89.2276 5.0026 88.989 5.26776 88.82 5.59588C88.6542 5.92069 88.5714 6.27367 88.5714 6.65483V7.52486C88.5714 8.03527 88.6609 8.46946 88.8398 8.82741C89.0221 9.18537 89.2757 9.45881 89.6005 9.64773C89.9253 9.83333 90.3048 9.92614 90.739 9.92614C91.0207 9.92614 91.2776 9.88636 91.5096 9.80682C91.7416 9.72396 91.9421 9.60133 92.1112 9.43892C92.2802 9.27652 92.4094 9.07599 92.4989 8.83736L93.9059 9.09091C93.7932 9.50521 93.591 9.86813 93.2994 10.1797C93.011 10.4879 92.6481 10.7282 92.2106 10.9006C91.7764 11.0696 91.2809 11.1541 90.7241 11.1541ZM101.372 5.22798L100.025 5.46662C99.9683 5.29427 99.8788 5.13021 99.7562 4.97443C99.6369 4.81865 99.4745 4.69105 99.269 4.59162C99.0635 4.49219 98.8066 4.44247 98.4984 4.44247C98.0775 4.44247 97.7261 4.53693 97.4444 4.72585C97.1627 4.91146 97.0218 5.15175 97.0218 5.44673C97.0218 5.70194 97.1163 5.90743 97.3052 6.06321C97.4941 6.21899 97.7991 6.34659 98.22 6.44602L99.4331 6.72443C100.136 6.88684 100.659 7.13707 101.004 7.47514C101.349 7.81321 101.521 8.25237 101.521 8.79261C101.521 9.25 101.389 9.65767 101.123 10.0156C100.862 10.3703 100.495 10.6487 100.025 10.8509C99.5574 11.053 99.0154 11.1541 98.399 11.1541C97.5439 11.1541 96.8462 10.9718 96.3059 10.6072C95.7657 10.2393 95.4342 9.71733 95.3116 9.04119L96.7484 8.82244C96.8379 9.19697 97.0218 9.48035 97.3002 9.67259C97.5787 9.86151 97.9416 9.95597 98.389 9.95597C98.8762 9.95597 99.2657 9.85488 99.5574 9.6527C99.849 9.44721 99.9949 9.19697 99.9949 8.90199C99.9949 8.66335 99.9054 8.46283 99.7264 8.30043C99.5507 8.13802 99.2806 8.01539 98.916 7.93253L97.6234 7.64915C96.9108 7.48674 96.3838 7.22822 96.0424 6.87358C95.7044 6.51894 95.5353 6.06984 95.5353 5.52628C95.5353 5.07552 95.6613 4.68111 95.9132 4.34304C96.1651 4.00497 96.5131 3.74148 96.9572 3.55256C97.4013 3.36032 97.9101 3.2642 98.4835 3.2642C99.3088 3.2642 99.9584 3.44318 100.432 3.80114C100.906 4.15578 101.22 4.63139 101.372 5.22798ZM106.72 3.36364V4.55682H102.549V3.36364H106.72ZM103.668 1.53409H105.154V8.75781C105.154 9.04616 105.197 9.26326 105.283 9.40909C105.37 9.55161 105.481 9.64938 105.616 9.70241C105.756 9.75213 105.906 9.77699 106.069 9.77699C106.188 9.77699 106.293 9.7687 106.382 9.75213C106.472 9.73556 106.541 9.7223 106.591 9.71236L106.859 10.9403C106.773 10.9735 106.651 11.0066 106.491 11.0398C106.332 11.0762 106.134 11.0961 105.895 11.0994C105.504 11.1061 105.139 11.0365 104.801 10.8906C104.463 10.7448 104.19 10.5194 103.981 10.2145C103.772 9.90956 103.668 9.52675 103.668 9.06605V1.53409ZM108.365 11V3.36364H109.851V11H108.365ZM109.115 2.18537C108.857 2.18537 108.635 2.09919 108.449 1.92685C108.267 1.75118 108.176 1.54238 108.176 1.30043C108.176 1.05516 108.267 0.846354 108.449 0.674005C108.635 0.498342 108.857 0.410511 109.115 0.410511C109.374 0.410511 109.594 0.498342 109.776 0.674005C109.962 0.846354 110.055 1.05516 110.055 1.30043C110.055 1.54238 109.962 1.75118 109.776 1.92685C109.594 2.09919 109.374 2.18537 109.115 2.18537ZM111.851 11V3.36364H113.278V4.60653H113.372C113.531 4.18561 113.791 3.85748 114.153 3.62216C114.514 3.38352 114.946 3.2642 115.45 3.2642C115.961 3.2642 116.388 3.38352 116.733 3.62216C117.081 3.8608 117.338 4.18892 117.504 4.60653H117.583C117.765 4.19886 118.055 3.87405 118.453 3.6321C118.851 3.38684 119.325 3.2642 119.875 3.2642C120.568 3.2642 121.133 3.4813 121.57 3.91548C122.011 4.34967 122.232 5.00426 122.232 5.87926V11H120.745V6.01847C120.745 5.50142 120.604 5.12689 120.322 4.89489C120.041 4.66288 119.704 4.54688 119.313 4.54688C118.829 4.54688 118.453 4.69602 118.185 4.99432C117.916 5.2893 117.782 5.6688 117.782 6.13281V11H116.3V5.92401C116.3 5.50971 116.171 5.17661 115.913 4.92472C115.654 4.67282 115.318 4.54688 114.903 4.54688C114.622 4.54688 114.362 4.62145 114.123 4.7706C113.888 4.91643 113.697 5.12026 113.551 5.3821C113.409 5.64394 113.337 5.94721 113.337 6.2919V11H111.851ZM126.446 11.169C125.962 11.169 125.525 11.0795 125.134 10.9006C124.743 10.7183 124.433 10.4548 124.204 10.1101C123.979 9.76539 123.866 9.3428 123.866 8.84233C123.866 8.41146 123.949 8.05682 124.115 7.77841C124.28 7.5 124.504 7.27959 124.786 7.11719C125.067 6.95478 125.382 6.83215 125.73 6.74929C126.078 6.66643 126.433 6.60346 126.794 6.56037C127.252 6.50734 127.623 6.46425 127.908 6.43111C128.193 6.39465 128.4 6.33665 128.529 6.2571C128.659 6.17756 128.723 6.0483 128.723 5.86932V5.83452C128.723 5.40033 128.601 5.06392 128.355 4.82528C128.113 4.58665 127.752 4.46733 127.271 4.46733C126.771 4.46733 126.377 4.57836 126.088 4.80043C125.803 5.01918 125.606 5.26278 125.497 5.53125L124.1 5.21307C124.265 4.74905 124.507 4.37453 124.825 4.08949C125.147 3.80114 125.517 3.59233 125.934 3.46307C126.352 3.33049 126.791 3.2642 127.252 3.2642C127.557 3.2642 127.88 3.30066 128.221 3.37358C128.566 3.44318 128.887 3.57244 129.186 3.76136C129.487 3.95028 129.734 4.22041 129.926 4.57173C130.119 4.91974 130.215 5.37216 130.215 5.92898V11H128.763V9.95597H128.703C128.607 10.1482 128.463 10.3371 128.271 10.5227C128.079 10.7083 127.832 10.8625 127.53 10.9851C127.228 11.1077 126.867 11.169 126.446 11.169ZM126.769 9.97585C127.18 9.97585 127.532 9.89465 127.823 9.73224C128.118 9.56984 128.342 9.35772 128.494 9.09588C128.65 8.83073 128.728 8.54735 128.728 8.24574V7.26136C128.675 7.31439 128.572 7.36411 128.42 7.41051C128.271 7.4536 128.1 7.49171 127.908 7.52486C127.716 7.55469 127.528 7.58286 127.346 7.60938C127.164 7.63258 127.011 7.65246 126.889 7.66903C126.6 7.70549 126.337 7.76681 126.098 7.85298C125.863 7.93916 125.674 8.06345 125.531 8.22585C125.392 8.38494 125.323 8.59706 125.323 8.86222C125.323 9.23011 125.459 9.50852 125.73 9.69744C126.002 9.88305 126.348 9.97585 126.769 9.97585ZM135.759 3.36364V4.55682H131.588V3.36364H135.759ZM132.707 1.53409H134.193V8.75781C134.193 9.04616 134.236 9.26326 134.322 9.40909C134.409 9.55161 134.52 9.64938 134.656 9.70241C134.795 9.75213 134.946 9.77699 135.108 9.77699C135.227 9.77699 135.332 9.7687 135.421 9.75213C135.511 9.73556 135.58 9.7223 135.63 9.71236L135.898 10.9403C135.812 10.9735 135.69 11.0066 135.531 11.0398C135.371 11.0762 135.173 11.0961 134.934 11.0994C134.543 11.1061 134.178 11.0365 133.84 10.8906C133.502 10.7448 133.229 10.5194 133.02 10.2145C132.811 9.90956 132.707 9.52675 132.707 9.06605V1.53409ZM140.613 11.1541C139.86 11.1541 139.212 10.9934 138.669 10.6719C138.129 10.3471 137.711 9.89134 137.416 9.30469C137.124 8.71473 136.979 8.02367 136.979 7.23153C136.979 6.44934 137.124 5.75994 137.416 5.16335C137.711 4.56676 138.122 4.10109 138.649 3.76633C139.179 3.43158 139.799 3.2642 140.508 3.2642C140.939 3.2642 141.357 3.33546 141.761 3.47798C142.166 3.6205 142.528 3.84422 142.85 4.14915C143.171 4.45407 143.425 4.85014 143.611 5.33736C143.796 5.82126 143.889 6.40956 143.889 7.10227V7.62926H137.819V6.51562H142.432C142.432 6.12453 142.353 5.77817 142.194 5.47656C142.035 5.17164 141.811 4.93134 141.523 4.75568C141.238 4.58002 140.903 4.49219 140.518 4.49219C140.101 4.49219 139.736 4.59493 139.425 4.80043C139.116 5.0026 138.878 5.26776 138.709 5.59588C138.543 5.92069 138.46 6.27367 138.46 6.65483V7.52486C138.46 8.03527 138.55 8.46946 138.729 8.82741C138.911 9.18537 139.164 9.45881 139.489 9.64773C139.814 9.83333 140.193 9.92614 140.628 9.92614C140.909 9.92614 141.166 9.88636 141.398 9.80682C141.63 9.72396 141.831 9.60133 142 9.43892C142.169 9.27652 142.298 9.07599 142.388 8.83736L143.795 9.09091C143.682 9.50521 143.48 9.86813 143.188 10.1797C142.9 10.4879 142.537 10.7282 142.099 10.9006C141.665 11.0696 141.17 11.1541 140.613 11.1541ZM148.397 11.1491C147.781 11.1491 147.23 10.9917 146.746 10.6768C146.266 10.3587 145.888 9.90625 145.613 9.3196C145.341 8.72964 145.205 8.02202 145.205 7.19673C145.205 6.37145 145.343 5.66548 145.618 5.07884C145.896 4.49219 146.277 4.04309 146.761 3.73153C147.245 3.41998 147.794 3.2642 148.407 3.2642C148.881 3.2642 149.262 3.34375 149.55 3.50284C149.842 3.65862 150.067 3.84091 150.227 4.04972C150.389 4.25852 150.515 4.44247 150.604 4.60156H150.694V0.818182H152.18V11H150.729V9.81179H150.604C150.515 9.9742 150.386 10.1598 150.217 10.3686C150.051 10.5774 149.822 10.7597 149.531 10.9155C149.239 11.0713 148.861 11.1491 148.397 11.1491ZM148.725 9.88139C149.153 9.88139 149.514 9.7687 149.809 9.54332C150.107 9.31463 150.333 8.99811 150.485 8.59375C150.641 8.18939 150.719 7.71875 150.719 7.18182C150.719 6.65151 150.643 6.1875 150.49 5.78977C150.338 5.39205 150.114 5.08215 149.819 4.86009C149.524 4.63802 149.159 4.52699 148.725 4.52699C148.278 4.52699 147.905 4.64299 147.607 4.875C147.308 5.10701 147.083 5.42353 146.93 5.82457C146.781 6.22562 146.707 6.67803 146.707 7.18182C146.707 7.69223 146.783 8.15128 146.935 8.55895C147.088 8.96662 147.313 9.28977 147.612 9.52841C147.913 9.76373 148.284 9.88139 148.725 9.88139ZM158.126 11V0.818182H161.756C162.548 0.818182 163.204 0.962358 163.724 1.25071C164.245 1.53906 164.634 1.93347 164.893 2.43395C165.151 2.93111 165.281 3.49124 165.281 4.11435C165.281 4.74077 165.15 5.30421 164.888 5.80469C164.629 6.30185 164.238 6.69626 163.714 6.98793C163.194 7.27628 162.54 7.42045 161.751 7.42045H159.255V6.1179H161.612C162.112 6.1179 162.518 6.03172 162.83 5.85938C163.141 5.68371 163.37 5.44508 163.516 5.14347C163.661 4.84186 163.734 4.49882 163.734 4.11435C163.734 3.72988 163.661 3.38849 163.516 3.0902C163.37 2.7919 163.139 2.55824 162.825 2.3892C162.513 2.22017 162.102 2.13565 161.592 2.13565H159.663V11H158.126ZM166.962 11V3.36364H168.399V4.5767H168.479C168.618 4.16572 168.863 3.84257 169.214 3.60724C169.569 3.36861 169.97 3.24929 170.417 3.24929C170.51 3.24929 170.62 3.2526 170.746 3.25923C170.875 3.26586 170.976 3.27415 171.049 3.28409V4.70597C170.989 4.68939 170.883 4.67116 170.731 4.65128C170.578 4.62808 170.426 4.61648 170.273 4.61648C169.922 4.61648 169.609 4.69105 169.334 4.8402C169.062 4.98603 168.846 5.18987 168.687 5.4517C168.528 5.71023 168.449 6.00521 168.449 6.33665V11H166.962ZM172.335 11V3.36364H173.822V11H172.335ZM173.086 2.18537C172.827 2.18537 172.605 2.09919 172.42 1.92685C172.237 1.75118 172.146 1.54238 172.146 1.30043C172.146 1.05516 172.237 0.846354 172.42 0.674005C172.605 0.498342 172.827 0.410511 173.086 0.410511C173.344 0.410511 173.565 0.498342 173.747 0.674005C173.933 0.846354 174.026 1.05516 174.026 1.30043C174.026 1.54238 173.933 1.75118 173.747 1.92685C173.565 2.09919 173.344 2.18537 173.086 2.18537ZM179.038 11.1541C178.299 11.1541 177.663 10.9867 177.129 10.652C176.599 10.3139 176.191 9.84825 175.906 9.25497C175.621 8.66169 175.479 7.98224 175.479 7.21662C175.479 6.44105 175.624 5.75663 175.916 5.16335C176.208 4.56676 176.619 4.10109 177.149 3.76633C177.679 3.43158 178.304 3.2642 179.023 3.2642C179.603 3.2642 180.12 3.37192 180.574 3.58736C181.028 3.79948 181.395 4.09777 181.673 4.48224C181.955 4.86671 182.122 5.31581 182.175 5.82955H180.729C180.649 5.47159 180.467 5.16335 180.182 4.90483C179.9 4.64631 179.522 4.51705 179.048 4.51705C178.634 4.51705 178.271 4.62642 177.959 4.84517C177.651 5.06061 177.411 5.36884 177.238 5.76989C177.066 6.16761 176.98 6.63826 176.98 7.18182C176.98 7.73864 177.064 8.21922 177.233 8.62358C177.403 9.02794 177.641 9.34115 177.949 9.56321C178.261 9.78527 178.627 9.89631 179.048 9.89631C179.33 9.89631 179.585 9.84493 179.814 9.74219C180.046 9.63613 180.24 9.48532 180.395 9.28977C180.555 9.09422 180.666 8.8589 180.729 8.58381H182.175C182.122 9.07765 181.961 9.51847 181.693 9.90625C181.425 10.294 181.065 10.599 180.614 10.821C180.167 11.0431 179.641 11.1541 179.038 11.1541ZM187.056 11.1541C186.304 11.1541 185.656 10.9934 185.112 10.6719C184.572 10.3471 184.154 9.89134 183.859 9.30469C183.568 8.71473 183.422 8.02367 183.422 7.23153C183.422 6.44934 183.568 5.75994 183.859 5.16335C184.154 4.56676 184.565 4.10109 185.092 3.76633C185.623 3.43158 186.242 3.2642 186.952 3.2642C187.383 3.2642 187.8 3.33546 188.205 3.47798C188.609 3.6205 188.972 3.84422 189.293 4.14915C189.615 4.45407 189.868 4.85014 190.054 5.33736C190.24 5.82126 190.332 6.40956 190.332 7.10227V7.62926H184.262V6.51562H188.876C188.876 6.12453 188.796 5.77817 188.637 5.47656C188.478 5.17164 188.254 4.93134 187.966 4.75568C187.681 4.58002 187.346 4.49219 186.962 4.49219C186.544 4.49219 186.179 4.59493 185.868 4.80043C185.56 5.0026 185.321 5.26776 185.152 5.59588C184.986 5.92069 184.903 6.27367 184.903 6.65483V7.52486C184.903 8.03527 184.993 8.46946 185.172 8.82741C185.354 9.18537 185.608 9.45881 185.933 9.64773C186.257 9.83333 186.637 9.92614 187.071 9.92614C187.353 9.92614 187.61 9.88636 187.842 9.80682C188.074 9.72396 188.274 9.60133 188.443 9.43892C188.612 9.27652 188.741 9.07599 188.831 8.83736L190.238 9.09091C190.125 9.50521 189.923 9.86813 189.631 10.1797C189.343 10.4879 188.98 10.7282 188.543 10.9006C188.108 11.0696 187.613 11.1541 187.056 11.1541Z" fill="#49454E"/>
<path d="M73 1H74L71 11H70L73 1Z" fill="#49454E"/>
<path d="M7.86648 37.2386C6.59375 37.2386 5.46023 37.0199 4.46591 36.5824C3.47727 36.1392 2.69602 35.5312 2.12216 34.7585C1.55398 33.9801 1.26136 33.0824 1.24432 32.0653H4.96023C4.98295 32.4915 5.12216 32.8665 5.37784 33.1903C5.6392 33.5085 5.9858 33.7557 6.41761 33.9318C6.84943 34.108 7.33523 34.196 7.875 34.196C8.4375 34.196 8.93466 34.0966 9.36648 33.8977C9.7983 33.6989 10.1364 33.4233 10.3807 33.071C10.625 32.7187 10.7472 32.3125 10.7472 31.8523C10.7472 31.3864 10.6165 30.9744 10.3551 30.6165C10.0994 30.2528 9.73011 29.9687 9.24716 29.7642C8.76989 29.5597 8.2017 29.4574 7.54261 29.4574H5.91477V26.7472H7.54261C8.09943 26.7472 8.59091 26.6506 9.01705 26.4574C9.44886 26.2642 9.78409 25.9972 10.0227 25.6562C10.2614 25.3097 10.3807 24.9062 10.3807 24.446C10.3807 24.0085 10.2756 23.625 10.0653 23.2955C9.8608 22.9602 9.57102 22.6989 9.19602 22.5114C8.8267 22.3239 8.39489 22.2301 7.90057 22.2301C7.40057 22.2301 6.94318 22.321 6.52841 22.5028C6.11364 22.679 5.78125 22.9318 5.53125 23.2614C5.28125 23.5909 5.14773 23.9773 5.13068 24.4205H1.59375C1.6108 23.4148 1.89773 22.5284 2.45455 21.7614C3.01136 20.9943 3.76136 20.3949 4.70455 19.9631C5.65341 19.5256 6.72443 19.3068 7.91761 19.3068C9.12216 19.3068 10.1761 19.5256 11.0795 19.9631C11.983 20.4006 12.6847 20.9915 13.1847 21.7358C13.6903 22.4744 13.9403 23.304 13.9347 24.2244C13.9403 25.2017 13.6364 26.017 13.0227 26.6705C12.4148 27.3239 11.6222 27.7386 10.6449 27.9148V28.0511C11.929 28.2159 12.9063 28.6619 13.5767 29.3892C14.2528 30.1108 14.5881 31.0142 14.5824 32.0994C14.5881 33.0938 14.3011 33.9773 13.7216 34.75C13.1477 35.5227 12.3551 36.1307 11.3438 36.5739C10.3324 37.017 9.1733 37.2386 7.86648 37.2386ZM17.2351 37V34.3409L23.4482 28.5881C23.9766 28.0767 24.4197 27.6165 24.7777 27.2074C25.1413 26.7983 25.4169 26.3977 25.6044 26.0057C25.7919 25.608 25.8857 25.179 25.8857 24.7188C25.8857 24.2074 25.7692 23.767 25.5362 23.3977C25.3033 23.0227 24.9851 22.7358 24.5817 22.5369C24.1783 22.3324 23.7209 22.2301 23.2095 22.2301C22.6754 22.2301 22.2095 22.3381 21.8118 22.554C21.4141 22.7699 21.1072 23.0795 20.8913 23.483C20.6754 23.8864 20.5675 24.3665 20.5675 24.9233H17.0646C17.0646 23.7812 17.3232 22.7898 17.8402 21.9489C18.3572 21.108 19.0817 20.4574 20.0135 19.9972C20.9453 19.5369 22.0192 19.3068 23.2351 19.3068C24.4851 19.3068 25.5732 19.5284 26.4993 19.9716C27.4311 20.4091 28.1555 21.017 28.6726 21.7955C29.1896 22.5739 29.4482 23.4659 29.4482 24.4716C29.4482 25.1307 29.3175 25.7812 29.0561 26.4233C28.8004 27.0653 28.343 27.7784 27.6839 28.5625C27.0249 29.3409 26.0959 30.2756 24.897 31.3665L22.3487 33.8636V33.983H29.6783V37H17.2351ZM38.6676 19.3068C39.5653 19.3068 40.429 19.4574 41.2585 19.7585C42.0938 20.0597 42.8381 20.5398 43.4915 21.1989C44.1506 21.858 44.6705 22.733 45.0511 23.8239C45.4375 24.9091 45.6335 26.2415 45.6392 27.821C45.6392 29.304 45.4716 30.6278 45.1364 31.7926C44.8068 32.9517 44.3324 33.9375 43.7131 34.75C43.0938 35.5625 42.3466 36.1818 41.4716 36.608C40.5966 37.0284 39.6193 37.2386 38.5398 37.2386C37.375 37.2386 36.3466 37.0142 35.4545 36.5653C34.5625 36.1108 33.8438 35.4943 33.2983 34.7159C32.7585 33.9318 32.4318 33.0511 32.3182 32.0739H35.9574C36.0994 32.7102 36.3977 33.2045 36.8523 33.5568C37.3068 33.9034 37.8693 34.0767 38.5398 34.0767C39.6761 34.0767 40.5398 33.5824 41.1307 32.5938C41.7216 31.5994 42.0199 30.2386 42.0256 28.5114H41.9062C41.6449 29.0227 41.2926 29.4631 40.8494 29.8324C40.4063 30.196 39.8977 30.4773 39.3239 30.6761C38.7557 30.875 38.1506 30.9744 37.5085 30.9744C36.4801 30.9744 35.5625 30.733 34.7557 30.25C33.9489 29.767 33.3125 29.1023 32.8466 28.2557C32.3807 27.4091 32.1477 26.4432 32.1477 25.358C32.142 24.1875 32.4119 23.1449 32.9574 22.2301C33.5028 21.3153 34.2642 20.5994 35.2415 20.0824C36.2244 19.5597 37.3665 19.3011 38.6676 19.3068ZM38.6932 22.2045C38.1193 22.2045 37.608 22.3409 37.1591 22.6136C36.7159 22.8864 36.3636 23.2528 36.1023 23.7131C35.8466 24.1733 35.7216 24.6875 35.7273 25.2557C35.7273 25.8295 35.8523 26.3466 36.1023 26.8068C36.358 27.2614 36.7045 27.625 37.142 27.8977C37.5852 28.1648 38.0909 28.2983 38.6591 28.2983C39.0852 28.2983 39.4801 28.2187 39.8438 28.0597C40.2074 27.9006 40.5227 27.6818 40.7898 27.4034C41.0625 27.1193 41.2756 26.7926 41.429 26.4233C41.5824 26.054 41.6591 25.6619 41.6591 25.2472C41.6534 24.696 41.5227 24.1903 41.267 23.7301C41.0114 23.2699 40.6591 22.9006 40.2102 22.6222C39.7614 22.3437 39.2557 22.2045 38.6932 22.2045ZM49.6491 37.2216C49.0866 37.2216 48.6037 37.0227 48.2003 36.625C47.8026 36.2216 47.6037 35.7386 47.6037 35.1761C47.6037 34.6193 47.8026 34.142 48.2003 33.7443C48.6037 33.3466 49.0866 33.1477 49.6491 33.1477C50.1946 33.1477 50.6719 33.3466 51.081 33.7443C51.4901 34.142 51.6946 34.6193 51.6946 35.1761C51.6946 35.5511 51.598 35.8949 51.4048 36.2074C51.2173 36.5142 50.9702 36.7614 50.6634 36.9489C50.3565 37.1307 50.0185 37.2216 49.6491 37.2216ZM60.6286 19.3068C61.5263 19.3068 62.3899 19.4574 63.2195 19.7585C64.0547 20.0597 64.799 20.5398 65.4524 21.1989C66.1115 21.858 66.6314 22.733 67.0121 23.8239C67.3984 24.9091 67.5945 26.2415 67.6001 27.821C67.6001 29.304 67.4325 30.6278 67.0973 31.7926C66.7678 32.9517 66.2933 33.9375 65.674 34.75C65.0547 35.5625 64.3075 36.1818 63.4325 36.608C62.5575 37.0284 61.5803 37.2386 60.5007 37.2386C59.3359 37.2386 58.3075 37.0142 57.4155 36.5653C56.5234 36.1108 55.8047 35.4943 55.2592 34.7159C54.7195 33.9318 54.3928 33.0511 54.2791 32.0739H57.9183C58.0604 32.7102 58.3587 33.2045 58.8132 33.5568C59.2678 33.9034 59.8303 34.0767 60.5007 34.0767C61.6371 34.0767 62.5007 33.5824 63.0916 32.5938C63.6825 31.5994 63.9808 30.2386 63.9865 28.5114H63.8672C63.6058 29.0227 63.2536 29.4631 62.8104 29.8324C62.3672 30.196 61.8587 30.4773 61.2848 30.6761C60.7166 30.875 60.1115 30.9744 59.4695 30.9744C58.4411 30.9744 57.5234 30.733 56.7166 30.25C55.9098 29.767 55.2734 29.1023 54.8075 28.2557C54.3416 27.4091 54.1087 26.4432 54.1087 25.358C54.103 24.1875 54.3729 23.1449 54.9183 22.2301C55.4638 21.3153 56.2251 20.5994 57.2024 20.0824C58.1854 19.5597 59.3274 19.3011 60.6286 19.3068ZM60.6541 22.2045C60.0803 22.2045 59.5689 22.3409 59.12 22.6136C58.6768 22.8864 58.3246 23.2528 58.0632 23.7131C57.8075 24.1733 57.6825 24.6875 57.6882 25.2557C57.6882 25.8295 57.8132 26.3466 58.0632 26.8068C58.3189 27.2614 58.6655 27.625 59.103 27.8977C59.5462 28.1648 60.0518 28.2983 60.62 28.2983C61.0462 28.2983 61.4411 28.2187 61.8047 28.0597C62.1683 27.9006 62.4837 27.6818 62.7507 27.4034C63.0234 27.1193 63.2365 26.7926 63.3899 26.4233C63.5433 26.054 63.62 25.6619 63.62 25.2472C63.6143 24.696 63.4837 24.1903 63.228 23.7301C62.9723 23.2699 62.62 22.9006 62.1712 22.6222C61.7223 22.3437 61.2166 22.2045 60.6541 22.2045ZM76.4723 19.3068C77.37 19.3068 78.2337 19.4574 79.0632 19.7585C79.8984 20.0597 80.6428 20.5398 81.2962 21.1989C81.9553 21.858 82.4751 22.733 82.8558 23.8239C83.2422 24.9091 83.4382 26.2415 83.4439 27.821C83.4439 29.304 83.2763 30.6278 82.9411 31.7926C82.6115 32.9517 82.1371 33.9375 81.5178 34.75C80.8984 35.5625 80.1513 36.1818 79.2763 36.608C78.4013 37.0284 77.424 37.2386 76.3445 37.2386C75.1797 37.2386 74.1513 37.0142 73.2592 36.5653C72.3672 36.1108 71.6484 35.4943 71.103 34.7159C70.5632 33.9318 70.2365 33.0511 70.1229 32.0739H73.7621C73.9041 32.7102 74.2024 33.2045 74.657 33.5568C75.1115 33.9034 75.674 34.0767 76.3445 34.0767C77.4808 34.0767 78.3445 33.5824 78.9354 32.5938C79.5263 31.5994 79.8246 30.2386 79.8303 28.5114H79.7109C79.4496 29.0227 79.0973 29.4631 78.6541 29.8324C78.2109 30.196 77.7024 30.4773 77.1286 30.6761C76.5604 30.875 75.9553 30.9744 75.3132 30.9744C74.2848 30.9744 73.3672 30.733 72.5604 30.25C71.7536 29.767 71.1172 29.1023 70.6513 28.2557C70.1854 27.4091 69.9524 26.4432 69.9524 25.358C69.9467 24.1875 70.2166 23.1449 70.7621 22.2301C71.3075 21.3153 72.0689 20.5994 73.0462 20.0824C74.0291 19.5597 75.1712 19.3011 76.4723 19.3068ZM76.4979 22.2045C75.924 22.2045 75.4126 22.3409 74.9638 22.6136C74.5206 22.8864 74.1683 23.2528 73.907 23.7131C73.6513 24.1733 73.5263 24.6875 73.532 25.2557C73.532 25.8295 73.657 26.3466 73.907 26.8068C74.1626 27.2614 74.5092 27.625 74.9467 27.8977C75.3899 28.1648 75.8956 28.2983 76.4638 28.2983C76.8899 28.2983 77.2848 28.2187 77.6484 28.0597C78.0121 27.9006 78.3274 27.6818 78.5945 27.4034C78.8672 27.1193 79.0803 26.7926 79.2337 26.4233C79.3871 26.054 79.4638 25.6619 79.4638 25.2472C79.4581 24.696 79.3274 24.1903 79.0717 23.7301C78.8161 23.2699 78.4638 22.9006 78.0149 22.6222C77.5661 22.3437 77.0604 22.2045 76.4979 22.2045ZM91.8643 39.1818V17.3636H93.2621V39.1818H91.8643ZM95.5717 24.5653C95.5036 23.8778 95.2109 23.3437 94.6939 22.9631C94.1768 22.5824 93.4751 22.392 92.5888 22.392C91.9865 22.392 91.478 22.4773 91.0632 22.6477C90.6484 22.8125 90.3303 23.0426 90.1087 23.3381C89.8928 23.6335 89.7848 23.9688 89.7848 24.3438C89.7734 24.6562 89.8388 24.929 89.9808 25.1619C90.1286 25.3949 90.3303 25.5966 90.5859 25.767C90.8416 25.9318 91.1371 26.0767 91.4723 26.2017C91.8075 26.321 92.1655 26.4233 92.5462 26.5085L94.1143 26.8835C94.8757 27.054 95.5746 27.2812 96.2109 27.5653C96.8473 27.8494 97.3984 28.1989 97.8643 28.6136C98.3303 29.0284 98.6911 29.517 98.9467 30.0795C99.2081 30.642 99.3416 31.2869 99.3473 32.0142C99.3416 33.0824 99.0689 34.0085 98.5291 34.7926C97.995 35.571 97.2223 36.1761 96.2109 36.608C95.2053 37.0341 93.9922 37.2472 92.5717 37.2472C91.1626 37.2472 89.9354 37.0312 88.8899 36.5994C87.8501 36.1676 87.0376 35.5284 86.4524 34.6818C85.8729 33.8295 85.5689 32.7756 85.5405 31.5199H89.1115C89.1513 32.1051 89.3189 32.5937 89.6143 32.9858C89.9155 33.3722 90.3161 33.6648 90.8161 33.8636C91.3217 34.0568 91.8928 34.1534 92.5291 34.1534C93.1541 34.1534 93.6967 34.0625 94.157 33.8807C94.6229 33.6989 94.9837 33.446 95.2393 33.1222C95.495 32.7983 95.6229 32.4261 95.6229 32.0057C95.6229 31.6136 95.5064 31.2841 95.2734 31.017C95.0462 30.75 94.7109 30.5227 94.2678 30.3352C93.8303 30.1477 93.2933 29.9773 92.657 29.8239L90.7564 29.3466C89.2848 28.9886 88.1229 28.429 87.2706 27.6676C86.4183 26.9062 85.995 25.8807 86.0007 24.5909C85.995 23.5341 86.2763 22.6108 86.8445 21.821C87.4183 21.0312 88.2053 20.4148 89.2053 19.9716C90.2053 19.5284 91.3416 19.3068 92.6143 19.3068C93.9098 19.3068 95.0405 19.5284 96.0064 19.9716C96.978 20.4148 97.7337 21.0312 98.2734 21.821C98.8132 22.6108 99.0916 23.5256 99.1087 24.5653H95.5717ZM116.632 37.1591C115.814 37.1591 115.087 37.0189 114.45 36.7386C113.818 36.4583 113.318 36.0682 112.95 35.5682C112.583 35.0682 112.388 34.4905 112.365 33.8352H114.501C114.52 34.1496 114.625 34.4242 114.814 34.6591C115.003 34.8902 115.255 35.0701 115.57 35.1989C115.884 35.3277 116.236 35.392 116.626 35.392C117.043 35.392 117.412 35.3201 117.734 35.1761C118.056 35.0284 118.308 34.8239 118.49 34.5625C118.672 34.3011 118.761 34 118.757 33.6591C118.761 33.3068 118.67 32.9962 118.484 32.7273C118.299 32.4583 118.03 32.2481 117.678 32.0966C117.329 31.9451 116.909 31.8693 116.416 31.8693H115.388V30.2443H116.416C116.821 30.2443 117.176 30.1742 117.479 30.0341C117.786 29.8939 118.026 29.697 118.2 29.4432C118.375 29.1856 118.46 28.8883 118.456 28.5511C118.46 28.2216 118.386 27.9356 118.234 27.6932C118.087 27.447 117.876 27.2557 117.604 27.1193C117.335 26.983 117.018 26.9148 116.655 26.9148C116.299 26.9148 115.969 26.9792 115.666 27.108C115.363 27.2367 115.119 27.4205 114.933 27.6591C114.748 27.8939 114.649 28.1742 114.638 28.5H112.609C112.625 27.8485 112.812 27.2765 113.172 26.7841C113.536 26.2879 114.02 25.9015 114.626 25.625C115.232 25.3447 115.912 25.2045 116.666 25.2045C117.443 25.2045 118.117 25.3504 118.689 25.642C119.265 25.9299 119.71 26.3182 120.024 26.8068C120.339 27.2955 120.496 27.8352 120.496 28.4261C120.5 29.0814 120.306 29.6307 119.916 30.0739C119.53 30.517 119.022 30.8068 118.393 30.9432V31.0341C119.212 31.1477 119.839 31.4508 120.274 31.9432C120.714 32.4318 120.931 33.0398 120.928 33.767C120.928 34.4186 120.742 35.0019 120.371 35.517C120.003 36.0284 119.496 36.4299 118.848 36.7216C118.204 37.0133 117.465 37.1591 116.632 37.1591ZM122.668 34.8409V33.1648L127.605 25.3636H129.003V27.75H128.151L124.827 33.017V33.108H131.719V34.8409H122.668ZM128.219 37V34.3295L128.241 33.5795V25.3636H130.23V37H128.219ZM137.58 37.1591C136.822 37.1591 136.144 37.017 135.545 36.733C134.947 36.4451 134.472 36.0511 134.119 35.5511C133.771 35.0511 133.585 34.4792 133.562 33.8352H135.608C135.646 34.3125 135.852 34.7027 136.227 35.0057C136.602 35.3049 137.053 35.4545 137.58 35.4545C137.992 35.4545 138.36 35.3598 138.682 35.1705C139.004 34.9811 139.258 34.7178 139.443 34.3807C139.629 34.0436 139.72 33.6591 139.716 33.2273C139.72 32.7879 139.627 32.3977 139.438 32.0568C139.248 31.7159 138.989 31.4489 138.659 31.2557C138.33 31.0587 137.951 30.9602 137.523 30.9602C137.174 30.9564 136.831 31.0208 136.494 31.1534C136.157 31.286 135.89 31.4602 135.693 31.6761L133.79 31.3636L134.398 25.3636H141.148V27.125H136.142L135.807 30.2102H135.875C136.091 29.9564 136.396 29.7462 136.79 29.5795C137.184 29.4091 137.616 29.3239 138.085 29.3239C138.79 29.3239 139.419 29.4905 139.972 29.8239C140.525 30.1534 140.96 30.608 141.278 31.1875C141.597 31.767 141.756 32.4299 141.756 33.1761C141.756 33.9451 141.578 34.6307 141.222 35.233C140.869 35.8314 140.379 36.303 139.75 36.6477C139.125 36.9886 138.402 37.1591 137.58 37.1591ZM144.558 37.125C144.214 37.125 143.918 37.0038 143.672 36.7614C143.426 36.5189 143.304 36.2235 143.308 35.875C143.304 35.5341 143.426 35.2424 143.672 35C143.918 34.7576 144.214 34.6364 144.558 34.6364C144.892 34.6364 145.181 34.7576 145.428 35C145.678 35.2424 145.804 35.5341 145.808 35.875C145.804 36.1061 145.744 36.3163 145.626 36.5057C145.513 36.6951 145.361 36.8466 145.172 36.9602C144.986 37.0701 144.782 37.125 144.558 37.125ZM147.909 37V35.4773L151.949 31.517C152.335 31.1269 152.657 30.7803 152.915 30.4773C153.172 30.1742 153.366 29.8807 153.494 29.5966C153.623 29.3125 153.688 29.0095 153.688 28.6875C153.688 28.3201 153.604 28.0057 153.438 27.7443C153.271 27.4792 153.042 27.2746 152.75 27.1307C152.458 26.9867 152.127 26.9148 151.756 26.9148C151.373 26.9148 151.038 26.9943 150.75 27.1534C150.462 27.3087 150.239 27.5303 150.08 27.8182C149.924 28.1061 149.847 28.4489 149.847 28.8466H147.841C147.841 28.108 148.009 27.4659 148.347 26.9205C148.684 26.375 149.148 25.9527 149.739 25.6534C150.333 25.3542 151.015 25.2045 151.784 25.2045C152.564 25.2045 153.25 25.3504 153.841 25.642C154.432 25.9337 154.89 26.3333 155.216 26.8409C155.545 27.3485 155.71 27.928 155.71 28.5795C155.71 29.0152 155.627 29.4432 155.46 29.8636C155.294 30.2841 155 30.75 154.58 31.2614C154.163 31.7727 153.578 32.392 152.824 33.1193L150.818 35.1591V35.2386H155.886V37H147.909ZM162.58 25.3636V37H160.472V27.4148H160.403L157.682 29.1534V27.2216L160.574 25.3636H162.58ZM169.284 38.4545V23.9091H170.216V38.4545H169.284ZM171.972 28.5625C171.919 28.0663 171.695 27.6799 171.301 27.4034C170.911 27.1269 170.403 26.9886 169.778 26.9886C169.339 26.9886 168.962 27.0549 168.648 27.1875C168.333 27.3201 168.093 27.5 167.926 27.7273C167.759 27.9545 167.674 28.214 167.67 28.5057C167.67 28.7481 167.725 28.9583 167.835 29.1364C167.949 29.3144 168.102 29.4659 168.295 29.5909C168.489 29.7121 168.703 29.8144 168.938 29.8977C169.172 29.9811 169.409 30.0511 169.648 30.108L170.739 30.3807C171.178 30.483 171.6 30.6212 172.006 30.7955C172.415 30.9697 172.78 31.1894 173.102 31.4545C173.428 31.7197 173.686 32.0398 173.875 32.4148C174.064 32.7898 174.159 33.2292 174.159 33.733C174.159 34.4148 173.985 35.0152 173.636 35.5341C173.288 36.0492 172.784 36.4527 172.125 36.7443C171.47 37.0322 170.676 37.1761 169.744 37.1761C168.839 37.1761 168.053 37.036 167.386 36.7557C166.723 36.4754 166.205 36.0663 165.83 35.5284C165.458 34.9905 165.258 34.3352 165.227 33.5625H167.301C167.331 33.9678 167.456 34.3049 167.676 34.5739C167.896 34.8428 168.182 35.0436 168.534 35.1761C168.89 35.3087 169.288 35.375 169.727 35.375C170.186 35.375 170.587 35.3068 170.932 35.1705C171.28 35.0303 171.553 34.8371 171.75 34.5909C171.947 34.3409 172.047 34.0492 172.051 33.7159C172.047 33.4129 171.958 33.1629 171.784 32.9659C171.61 32.7652 171.366 32.5985 171.051 32.4659C170.741 32.3295 170.377 32.2083 169.96 32.1023L168.636 31.7614C167.678 31.5152 166.92 31.142 166.364 30.642C165.811 30.1383 165.534 29.4697 165.534 28.6364C165.534 27.9508 165.72 27.3504 166.091 26.8352C166.466 26.3201 166.975 25.9205 167.619 25.6364C168.263 25.3485 168.992 25.2045 169.807 25.2045C170.633 25.2045 171.356 25.3485 171.977 25.6364C172.602 25.9205 173.093 26.3163 173.449 26.8239C173.805 27.3277 173.989 27.9072 174 28.5625H171.972Z" fill="#6D23F9"/>
<path d="M108 25H109.5L105.5 38H104L108 25Z" fill="#6D23F9"/>
<rect x="239.75" y="1.75" width="104.5" height="38.5" rx="19.25" fill="#6D23F9"/>
<rect x="239.75" y="1.75" width="104.5" height="38.5" rx="19.25" stroke="#6D23F9" stroke-width="1.5"/>
<path d="M250.119 26V15.8182H251.655V24.6776H256.268V26H250.119ZM261.118 26.1541C260.402 26.1541 259.778 25.9901 259.244 25.6619C258.71 25.3338 258.296 24.8748 258.001 24.2848C257.706 23.6948 257.559 23.0054 257.559 22.2166C257.559 21.4245 257.706 20.7318 258.001 20.1385C258.296 19.5452 258.71 19.0845 259.244 18.7564C259.778 18.4283 260.402 18.2642 261.118 18.2642C261.834 18.2642 262.459 18.4283 262.993 18.7564C263.526 19.0845 263.94 19.5452 264.235 20.1385C264.53 20.7318 264.678 21.4245 264.678 22.2166C264.678 23.0054 264.53 23.6948 264.235 24.2848C263.94 24.8748 263.526 25.3338 262.993 25.6619C262.459 25.9901 261.834 26.1541 261.118 26.1541ZM261.123 24.9062C261.587 24.9062 261.972 24.7836 262.277 24.5384C262.582 24.2931 262.807 23.9666 262.953 23.5589C263.102 23.1513 263.176 22.7022 263.176 22.2116C263.176 21.7244 263.102 21.277 262.953 20.8693C262.807 20.4583 262.582 20.1286 262.277 19.88C261.972 19.6314 261.587 19.5071 261.123 19.5071C260.656 19.5071 260.268 19.6314 259.96 19.88C259.655 20.1286 259.428 20.4583 259.279 20.8693C259.133 21.277 259.06 21.7244 259.06 22.2116C259.06 22.7022 259.133 23.1513 259.279 23.5589C259.428 23.9666 259.655 24.2931 259.96 24.5384C260.268 24.7836 260.656 24.9062 261.123 24.9062ZM267.76 26L265.513 18.3636H267.049L268.546 23.9716H268.62L270.122 18.3636H271.658L273.15 23.9467H273.224L274.711 18.3636H276.247L274.005 26H272.488L270.937 20.4865H270.823L269.272 26H267.76ZM280.716 26.1541C279.964 26.1541 279.316 25.9934 278.772 25.6719C278.232 25.3471 277.815 24.8913 277.52 24.3047C277.228 23.7147 277.082 23.0237 277.082 22.2315C277.082 21.4493 277.228 20.7599 277.52 20.1634C277.815 19.5668 278.225 19.1011 278.752 18.7663C279.283 18.4316 279.903 18.2642 280.612 18.2642C281.043 18.2642 281.46 18.3355 281.865 18.478C282.269 18.6205 282.632 18.8442 282.953 19.1491C283.275 19.4541 283.529 19.8501 283.714 20.3374C283.9 20.8213 283.993 21.4096 283.993 22.1023V22.6293H277.922V21.5156H282.536C282.536 21.1245 282.456 20.7782 282.297 20.4766C282.138 20.1716 281.914 19.9313 281.626 19.7557C281.341 19.58 281.006 19.4922 280.622 19.4922C280.204 19.4922 279.84 19.5949 279.528 19.8004C279.22 20.0026 278.981 20.2678 278.812 20.5959C278.646 20.9207 278.564 21.2737 278.564 21.6548V22.5249C278.564 23.0353 278.653 23.4695 278.832 23.8274C279.014 24.1854 279.268 24.4588 279.593 24.6477C279.917 24.8333 280.297 24.9261 280.731 24.9261C281.013 24.9261 281.27 24.8864 281.502 24.8068C281.734 24.724 281.934 24.6013 282.103 24.4389C282.272 24.2765 282.402 24.076 282.491 23.8374L283.898 24.0909C283.785 24.5052 283.583 24.8681 283.292 25.1797C283.003 25.4879 282.64 25.7282 282.203 25.9006C281.769 26.0696 281.273 26.1541 280.716 26.1541ZM291.364 20.228L290.017 20.4666C289.961 20.2943 289.871 20.1302 289.748 19.9744C289.629 19.8187 289.467 19.6911 289.261 19.5916C289.056 19.4922 288.799 19.4425 288.491 19.4425C288.07 19.4425 287.718 19.5369 287.437 19.7259C287.155 19.9115 287.014 20.1518 287.014 20.4467C287.014 20.7019 287.108 20.9074 287.297 21.0632C287.486 21.219 287.791 21.3466 288.212 21.446L289.425 21.7244C290.128 21.8868 290.652 22.1371 290.996 22.4751C291.341 22.8132 291.513 23.2524 291.513 23.7926C291.513 24.25 291.381 24.6577 291.116 25.0156C290.854 25.3703 290.488 25.6487 290.017 25.8509C289.55 26.053 289.008 26.1541 288.391 26.1541C287.536 26.1541 286.838 25.9718 286.298 25.6072C285.758 25.2393 285.426 24.7173 285.304 24.0412L286.741 23.8224C286.83 24.197 287.014 24.4804 287.292 24.6726C287.571 24.8615 287.934 24.956 288.381 24.956C288.868 24.956 289.258 24.8549 289.55 24.6527C289.841 24.4472 289.987 24.197 289.987 23.902C289.987 23.6634 289.898 23.4628 289.719 23.3004C289.543 23.138 289.273 23.0154 288.908 22.9325L287.616 22.6491C286.903 22.4867 286.376 22.2282 286.035 21.8736C285.697 21.5189 285.528 21.0698 285.528 20.5263C285.528 20.0755 285.653 19.6811 285.905 19.343C286.157 19.005 286.505 18.7415 286.949 18.5526C287.394 18.3603 287.902 18.2642 288.476 18.2642C289.301 18.2642 289.951 18.4432 290.425 18.8011C290.898 19.1558 291.212 19.6314 291.364 20.228ZM296.712 18.3636V19.5568H292.541V18.3636H296.712ZM293.66 16.5341H295.146V23.7578C295.146 24.0462 295.189 24.2633 295.276 24.4091C295.362 24.5516 295.473 24.6494 295.609 24.7024C295.748 24.7521 295.899 24.777 296.061 24.777C296.18 24.777 296.285 24.7687 296.374 24.7521C296.464 24.7356 296.533 24.7223 296.583 24.7124L296.852 25.9403C296.765 25.9735 296.643 26.0066 296.484 26.0398C296.325 26.0762 296.126 26.0961 295.887 26.0994C295.496 26.1061 295.131 26.0365 294.793 25.8906C294.455 25.7448 294.182 25.5194 293.973 25.2145C293.764 24.9096 293.66 24.5268 293.66 24.0661V16.5341ZM302.062 28.8636V18.3636H303.513V19.6016H303.638C303.724 19.4425 303.848 19.2585 304.011 19.0497C304.173 18.8409 304.398 18.6586 304.687 18.5028C304.975 18.3438 305.356 18.2642 305.83 18.2642C306.447 18.2642 306.997 18.42 307.481 18.7315C307.965 19.0431 308.344 19.4922 308.619 20.0788C308.898 20.6655 309.037 21.3714 309.037 22.1967C309.037 23.022 308.899 23.7296 308.624 24.3196C308.349 24.9062 307.971 25.3587 307.491 25.6768C307.01 25.9917 306.462 26.1491 305.845 26.1491C305.381 26.1491 305.002 26.0713 304.707 25.9155C304.415 25.7597 304.186 25.5774 304.021 25.3686C303.855 25.1598 303.727 24.9742 303.638 24.8118H303.548V28.8636H302.062ZM303.518 22.1818C303.518 22.7187 303.596 23.1894 303.752 23.5938C303.908 23.9981 304.133 24.3146 304.428 24.5433C304.723 24.7687 305.085 24.8814 305.512 24.8814C305.956 24.8814 306.327 24.7637 306.626 24.5284C306.924 24.2898 307.149 23.9666 307.302 23.5589C307.458 23.1513 307.536 22.6922 307.536 22.1818C307.536 21.678 307.459 21.2256 307.307 20.8246C307.158 20.4235 306.932 20.107 306.631 19.875C306.332 19.643 305.96 19.527 305.512 19.527C305.081 19.527 304.717 19.638 304.418 19.8601C304.123 20.0821 303.9 20.392 303.747 20.7898C303.595 21.1875 303.518 21.6515 303.518 22.1818ZM310.702 26V18.3636H312.139V19.5767H312.219C312.358 19.1657 312.603 18.8426 312.955 18.6072C313.309 18.3686 313.71 18.2493 314.158 18.2493C314.25 18.2493 314.36 18.2526 314.486 18.2592C314.615 18.2659 314.716 18.2741 314.789 18.2841V19.706C314.729 19.6894 314.623 19.6712 314.471 19.6513C314.318 19.6281 314.166 19.6165 314.013 19.6165C313.662 19.6165 313.349 19.6911 313.074 19.8402C312.802 19.986 312.587 20.1899 312.428 20.4517C312.268 20.7102 312.189 21.0052 312.189 21.3366V26H310.702ZM316.075 26V18.3636H317.562V26H316.075ZM316.826 17.1854C316.568 17.1854 316.346 17.0992 316.16 16.9268C315.978 16.7512 315.887 16.5424 315.887 16.3004C315.887 16.0552 315.978 15.8464 316.16 15.674C316.346 15.4983 316.568 15.4105 316.826 15.4105C317.085 15.4105 317.305 15.4983 317.487 15.674C317.673 15.8464 317.766 16.0552 317.766 16.3004C317.766 16.5424 317.673 16.7512 317.487 16.9268C317.305 17.0992 317.085 17.1854 316.826 17.1854ZM322.778 26.1541C322.039 26.1541 321.403 25.9867 320.869 25.652C320.339 25.3139 319.931 24.8482 319.646 24.255C319.361 23.6617 319.219 22.9822 319.219 22.2166C319.219 21.4411 319.365 20.7566 319.656 20.1634C319.948 19.5668 320.359 19.1011 320.889 18.7663C321.42 18.4316 322.044 18.2642 322.763 18.2642C323.344 18.2642 323.861 18.3719 324.315 18.5874C324.769 18.7995 325.135 19.0978 325.413 19.4822C325.695 19.8667 325.862 20.3158 325.915 20.8295H324.469C324.389 20.4716 324.207 20.1634 323.922 19.9048C323.64 19.6463 323.262 19.517 322.788 19.517C322.374 19.517 322.011 19.6264 321.7 19.8452C321.391 20.0606 321.151 20.3688 320.979 20.7699C320.806 21.1676 320.72 21.6383 320.72 22.1818C320.72 22.7386 320.805 23.2192 320.974 23.6236C321.143 24.0279 321.381 24.3411 321.69 24.5632C322.001 24.7853 322.367 24.8963 322.788 24.8963C323.07 24.8963 323.325 24.8449 323.554 24.7422C323.786 24.6361 323.98 24.4853 324.136 24.2898C324.295 24.0942 324.406 23.8589 324.469 23.5838H325.915C325.862 24.0777 325.702 24.5185 325.433 24.9062C325.165 25.294 324.805 25.599 324.354 25.821C323.907 26.0431 323.382 26.1541 322.778 26.1541ZM330.796 26.1541C330.044 26.1541 329.396 25.9934 328.852 25.6719C328.312 25.3471 327.895 24.8913 327.6 24.3047C327.308 23.7147 327.162 23.0237 327.162 22.2315C327.162 21.4493 327.308 20.7599 327.6 20.1634C327.895 19.5668 328.306 19.1011 328.833 18.7663C329.363 18.4316 329.983 18.2642 330.692 18.2642C331.123 18.2642 331.54 18.3355 331.945 18.478C332.349 18.6205 332.712 18.8442 333.034 19.1491C333.355 19.4541 333.609 19.8501 333.794 20.3374C333.98 20.8213 334.073 21.4096 334.073 22.1023V22.6293H328.002V21.5156H332.616C332.616 21.1245 332.536 20.7782 332.377 20.4766C332.218 20.1716 331.994 19.9313 331.706 19.7557C331.421 19.58 331.086 19.4922 330.702 19.4922C330.284 19.4922 329.92 19.5949 329.608 19.8004C329.3 20.0026 329.061 20.2678 328.892 20.5959C328.727 20.9207 328.644 21.2737 328.644 21.6548V22.5249C328.644 23.0353 328.733 23.4695 328.912 23.8274C329.094 24.1854 329.348 24.4588 329.673 24.6477C329.998 24.8333 330.377 24.9261 330.811 24.9261C331.093 24.9261 331.35 24.8864 331.582 24.8068C331.814 24.724 332.014 24.6013 332.183 24.4389C332.352 24.2765 332.482 24.076 332.571 23.8374L333.978 24.0909C333.865 24.5052 333.663 24.8681 333.372 25.1797C333.083 25.4879 332.72 25.7282 332.283 25.9006C331.849 26.0696 331.353 26.1541 330.796 26.1541Z" fill="white"/>
</svg>
