<svg width="82" height="50" viewBox="0 0 82 50" fill="none" xmlns="http://www.w3.org/2000/svg">
<rect width="82" height="50" fill="white"/>
<path d="M17.481 41V31.2H21.555C22.115 31.2 22.619 31.3353 23.067 31.606C23.5244 31.8767 23.8884 32.2453 24.159 32.712C24.4297 33.1787 24.565 33.7013 24.565 34.28C24.565 34.868 24.4297 35.4 24.159 35.876C23.8884 36.3427 23.5244 36.716 23.067 36.996C22.619 37.276 22.115 37.416 21.555 37.416H19.301V41H17.481ZM19.301 35.736H21.429C21.6624 35.736 21.8724 35.6707 22.059 35.54C22.255 35.4093 22.409 35.2367 22.521 35.022C22.6424 34.8073 22.703 34.5647 22.703 34.294C22.703 34.0233 22.6424 33.7853 22.521 33.58C22.409 33.3653 22.255 33.1973 22.059 33.076C21.8724 32.9453 21.6624 32.88 21.429 32.88H19.301V35.736ZM28.8321 41.14C28.2254 41.14 27.6748 40.972 27.1801 40.636C26.6854 40.3 26.2888 39.8427 25.9901 39.264C25.6914 38.6853 25.5421 38.0273 25.5421 37.29C25.5421 36.5527 25.6914 35.8947 25.9901 35.316C26.2888 34.7373 26.6948 34.2847 27.2081 33.958C27.7214 33.6313 28.3001 33.468 28.9441 33.468C29.3174 33.468 29.6581 33.524 29.9661 33.636C30.2741 33.7387 30.5448 33.888 30.7781 34.084C31.0114 34.28 31.2028 34.504 31.3521 34.756C31.5108 35.008 31.6181 35.2787 31.6741 35.568L31.2961 35.47V33.622H33.0321V41H31.2821V39.236L31.6881 39.166C31.6228 39.418 31.5014 39.6653 31.3241 39.908C31.1561 40.1413 30.9414 40.3513 30.6801 40.538C30.4281 40.7153 30.1434 40.86 29.8261 40.972C29.5181 41.084 29.1868 41.14 28.8321 41.14ZM29.3081 39.614C29.7094 39.614 30.0641 39.516 30.3721 39.32C30.6801 39.124 30.9181 38.8533 31.0861 38.508C31.2634 38.1533 31.3521 37.7473 31.3521 37.29C31.3521 36.842 31.2634 36.4453 31.0861 36.1C30.9181 35.7547 30.6801 35.484 30.3721 35.288C30.0641 35.092 29.7094 34.994 29.3081 34.994C28.9068 34.994 28.5521 35.092 28.2441 35.288C27.9454 35.484 27.7121 35.7547 27.5441 36.1C27.3761 36.4453 27.2921 36.842 27.2921 37.29C27.2921 37.7473 27.3761 38.1533 27.5441 38.508C27.7121 38.8533 27.9454 39.124 28.2441 39.32C28.5521 39.516 28.9068 39.614 29.3081 39.614ZM35.2245 41V33.622H36.9465V41H35.2245ZM36.0645 32.054C35.7192 32.054 35.4485 31.97 35.2525 31.802C35.0658 31.6247 34.9725 31.3773 34.9725 31.06C34.9725 30.7613 35.0705 30.5187 35.2665 30.332C35.4625 30.1453 35.7285 30.052 36.0645 30.052C36.4192 30.052 36.6898 30.1407 36.8765 30.318C37.0725 30.486 37.1705 30.7333 37.1705 31.06C37.1705 31.3493 37.0725 31.5873 36.8765 31.774C36.6805 31.9607 36.4098 32.054 36.0645 32.054ZM39.1301 41V33.622H40.8241L40.8521 35.974L40.6141 35.442C40.7167 35.0687 40.8941 34.7327 41.1461 34.434C41.3981 34.1353 41.6874 33.902 42.0141 33.734C42.3501 33.5567 42.7001 33.468 43.0641 33.468C43.2227 33.468 43.3721 33.482 43.5121 33.51C43.6614 33.538 43.7827 33.5707 43.8761 33.608L43.4141 35.498C43.3114 35.442 43.1854 35.3953 43.0361 35.358C42.8867 35.3207 42.7374 35.302 42.5881 35.302C42.3547 35.302 42.1307 35.3487 41.9161 35.442C41.7107 35.526 41.5287 35.6473 41.3701 35.806C41.2114 35.9647 41.0854 36.1513 40.9921 36.366C40.9081 36.5713 40.8661 36.8047 40.8661 37.066V41H39.1301ZM45.2186 41V33.622H46.9406V41H45.2186ZM46.0586 32.054C45.7133 32.054 45.4426 31.97 45.2466 31.802C45.06 31.6247 44.9666 31.3773 44.9666 31.06C44.9666 30.7613 45.0646 30.5187 45.2606 30.332C45.4566 30.1453 45.7226 30.052 46.0586 30.052C46.4133 30.052 46.684 30.1407 46.8706 30.318C47.0666 30.486 47.1646 30.7333 47.1646 31.06C47.1646 31.3493 47.0666 31.5873 46.8706 31.774C46.6746 31.9607 46.404 32.054 46.0586 32.054ZM49.1242 41V33.622H50.8042L50.8322 35.134L50.5102 35.302C50.6035 34.966 50.7855 34.6627 51.0562 34.392C51.3269 34.112 51.6489 33.888 52.0222 33.72C52.3955 33.552 52.7782 33.468 53.1702 33.468C53.7302 33.468 54.1969 33.58 54.5702 33.804C54.9529 34.028 55.2375 34.364 55.4242 34.812C55.6202 35.26 55.7182 35.82 55.7182 36.492V41H53.9962V36.618C53.9962 36.2447 53.9449 35.9367 53.8422 35.694C53.7395 35.442 53.5809 35.26 53.3662 35.148C53.1515 35.0267 52.8902 34.9707 52.5822 34.98C52.3302 34.98 52.0969 35.022 51.8822 35.106C51.6769 35.1807 51.4949 35.2927 51.3362 35.442C51.1869 35.582 51.0655 35.7453 50.9722 35.932C50.8882 36.1187 50.8462 36.324 50.8462 36.548V41H49.9922C49.8242 41 49.6655 41 49.5162 41C49.3762 41 49.2455 41 49.1242 41ZM60.9735 44.22C60.4228 44.22 59.8721 44.136 59.3215 43.968C58.7801 43.8 58.3415 43.5807 58.0055 43.31L58.6215 42.036C58.8175 42.176 59.0368 42.2973 59.2795 42.4C59.5221 42.5027 59.7788 42.582 60.0495 42.638C60.3295 42.694 60.6048 42.722 60.8755 42.722C61.3701 42.722 61.7808 42.6427 62.1075 42.484C62.4435 42.3347 62.6955 42.1013 62.8635 41.784C63.0315 41.476 63.1155 41.0887 63.1155 40.622V39.264L63.3675 39.362C63.3115 39.6513 63.1575 39.9267 62.9055 40.188C62.6535 40.4493 62.3361 40.664 61.9535 40.832C61.5708 40.9907 61.1788 41.07 60.7775 41.07C60.0775 41.07 59.4568 40.9067 58.9155 40.58C58.3835 40.2533 57.9588 39.81 57.6415 39.25C57.3335 38.6807 57.1795 38.0273 57.1795 37.29C57.1795 36.5527 57.3335 35.8993 57.6415 35.33C57.9495 34.7513 58.3695 34.2987 58.9015 33.972C59.4428 33.636 60.0495 33.468 60.7215 33.468C61.0015 33.468 61.2721 33.5007 61.5335 33.566C61.7948 33.6313 62.0328 33.7247 62.2475 33.846C62.4715 33.9673 62.6721 34.1027 62.8495 34.252C63.0268 34.4013 63.1715 34.56 63.2835 34.728C63.3955 34.896 63.4655 35.0593 63.4935 35.218L63.1295 35.33L63.1575 33.622H64.8515V40.496C64.8515 41.0933 64.7628 41.6207 64.5855 42.078C64.4081 42.5353 64.1515 42.9227 63.8155 43.24C63.4795 43.5667 63.0735 43.8093 62.5975 43.968C62.1215 44.136 61.5801 44.22 60.9735 44.22ZM61.0435 39.6C61.4635 39.6 61.8321 39.502 62.1495 39.306C62.4761 39.11 62.7281 38.8393 62.9055 38.494C63.0828 38.1487 63.1715 37.752 63.1715 37.304C63.1715 36.8467 63.0781 36.4453 62.8915 36.1C62.7141 35.7453 62.4668 35.47 62.1495 35.274C61.8321 35.078 61.4635 34.98 61.0435 34.98C60.6235 34.98 60.2548 35.0827 59.9375 35.288C59.6201 35.484 59.3681 35.7593 59.1815 36.114C59.0041 36.4593 58.9155 36.856 58.9155 37.304C58.9155 37.7427 59.0041 38.1393 59.1815 38.494C59.3681 38.8393 59.6201 39.11 59.9375 39.306C60.2548 39.502 60.6235 39.6 61.0435 39.6Z" fill="black"/>
<path d="M40.5 8.75V13.25C40.4989 14.1142 40.1999 14.9515 39.6535 15.6209C39.107 16.2904 38.3464 16.7509 37.5 16.925V25.25C37.5 25.4489 37.421 25.6397 37.2803 25.7803C37.1397 25.921 36.9489 26 36.75 26C36.5511 26 36.3603 25.921 36.2197 25.7803C36.079 25.6397 36 25.4489 36 25.25V16.925C35.1536 16.7509 34.393 16.2904 33.8465 15.6209C33.3001 14.9515 33.0011 14.1142 33 13.25V8.75C33 8.55109 33.079 8.36032 33.2197 8.21967C33.3603 8.07902 33.5511 8 33.75 8C33.9489 8 34.1397 8.07902 34.2803 8.21967C34.421 8.36032 34.5 8.55109 34.5 8.75V13.25C34.5019 13.7137 34.6471 14.1655 34.9156 14.5435C35.1841 14.9216 35.5628 15.2074 36 15.362V8.75C36 8.55109 36.079 8.36032 36.2197 8.21967C36.3603 8.07902 36.5511 8 36.75 8C36.9489 8 37.1397 8.07902 37.2803 8.21967C37.421 8.36032 37.5 8.55109 37.5 8.75V15.362C37.9372 15.2074 38.3159 14.9216 38.5844 14.5435C38.8529 14.1655 38.9981 13.7137 39 13.25V8.75C39 8.55109 39.079 8.36032 39.2197 8.21967C39.3603 8.07902 39.5511 8 39.75 8C39.9489 8 40.1397 8.07902 40.2803 8.21967C40.421 8.36032 40.5 8.55109 40.5 8.75ZM48 15.5C47.9665 16.9253 47.6118 18.3247 46.9626 19.5941C46.3133 20.8634 45.3861 21.9699 44.25 22.8313V25.25C44.25 25.4489 44.171 25.6397 44.0303 25.7803C43.8897 25.921 43.6989 26 43.5 26C43.3011 26 43.1103 25.921 42.9697 25.7803C42.829 25.6397 42.75 25.4489 42.75 25.25V9.5C42.7433 9.2182 42.8203 8.94073 42.9713 8.7027C43.1223 8.46466 43.3405 8.27676 43.5983 8.16275C43.8944 8.04227 44.2192 8.01067 44.533 8.07181C44.8468 8.13294 45.136 8.28417 45.3652 8.507C47.1048 10.4157 48.0475 12.918 48 15.5ZM46.5 15.5C46.5213 13.3041 45.7184 11.1801 44.25 9.54725V20.8025C45.6556 19.3912 46.4617 17.4915 46.5 15.5Z" fill="black"/>
</svg>
