<svg width="347" height="177" viewBox="0 0 347 177" fill="none" xmlns="http://www.w3.org/2000/svg">
<path d="M283 17L283 134" stroke="#CAC4CF" stroke-width="1.5" stroke-linecap="round"/>
<path d="M13 122.5L38.8911 116.119L71.4577 111.382L91.2911 89.4613L136.701 100.96L157.056 56L198.633 80.8056L222.372 57.5L245.747 42.5L283 28" stroke="#CFBDFF" stroke-width="2" stroke-linecap="round"/>
<path d="M289.979 33H288.348L292.012 22.8182H293.787L297.451 33H295.82L292.942 24.6676H292.862L289.979 33ZM290.252 29.0128H295.542V30.3054H290.252V29.0128ZM304.378 25.3636L301.608 33H300.018L297.243 25.3636H298.839L300.773 31.2401H300.853L302.782 25.3636H304.378ZM308.717 36.0227C308.11 36.0227 307.588 35.9432 307.151 35.7841C306.716 35.625 306.362 35.4145 306.087 35.1527C305.812 34.8909 305.606 34.6042 305.47 34.2926L306.748 33.7656C306.837 33.9115 306.957 34.0656 307.106 34.228C307.258 34.3937 307.464 34.5346 307.722 34.6506C307.984 34.7666 308.321 34.8246 308.732 34.8246C309.295 34.8246 309.761 34.687 310.129 34.4119C310.496 34.1402 310.68 33.706 310.68 33.1094V31.608H310.586C310.496 31.7704 310.367 31.951 310.198 32.1499C310.032 32.3487 309.804 32.5211 309.512 32.6669C309.22 32.8127 308.841 32.8857 308.374 32.8857C307.77 32.8857 307.227 32.7448 306.743 32.4631C306.262 32.178 305.881 31.7588 305.599 31.2053C305.321 30.6484 305.182 29.964 305.182 29.152C305.182 28.34 305.319 27.6439 305.594 27.0639C305.873 26.4839 306.254 26.0398 306.738 25.7315C307.222 25.42 307.77 25.2642 308.384 25.2642C308.857 25.2642 309.24 25.3438 309.532 25.5028C309.824 25.6586 310.051 25.8409 310.213 26.0497C310.379 26.2585 310.506 26.4425 310.596 26.6016H310.705V25.3636H312.162V33.169C312.162 33.8253 312.009 34.3639 311.705 34.7848C311.4 35.2057 310.987 35.5173 310.467 35.7195C309.95 35.9216 309.366 36.0227 308.717 36.0227ZM308.702 31.6527C309.129 31.6527 309.491 31.5533 309.786 31.3544C310.084 31.1522 310.309 30.8639 310.462 30.4893C310.617 30.1115 310.695 29.6591 310.695 29.1321C310.695 28.6184 310.619 28.166 310.467 27.7749C310.314 27.3838 310.09 27.0788 309.795 26.8601C309.5 26.638 309.136 26.527 308.702 26.527C308.254 26.527 307.881 26.643 307.583 26.875C307.285 27.1037 307.059 27.4152 306.907 27.8097C306.758 28.2041 306.683 28.6449 306.683 29.1321C306.683 29.6326 306.759 30.0717 306.912 30.4496C307.064 30.8274 307.29 31.1224 307.588 31.3345C307.89 31.5466 308.261 31.6527 308.702 31.6527Z" fill="#CFBDFF"/>
<circle cx="283" cy="28" r="3" fill="#CFBDFF"/>
<path d="M291.524 56.1392C290.841 56.1392 290.232 56.0215 289.695 55.7862C289.161 55.5509 288.738 55.2244 288.427 54.8068C288.119 54.3859 287.953 53.8987 287.93 53.3452H289.491C289.511 53.6468 289.612 53.9086 289.794 54.1307C289.98 54.3494 290.222 54.5185 290.52 54.6378C290.818 54.7571 291.15 54.8168 291.514 54.8168C291.915 54.8168 292.27 54.7472 292.578 54.608C292.89 54.4687 293.133 54.2749 293.309 54.0263C293.485 53.7744 293.572 53.4844 293.572 53.1562C293.572 52.8149 293.485 52.5149 293.309 52.2564C293.137 51.9946 292.883 51.7891 292.548 51.6399C292.217 51.4908 291.816 51.4162 291.345 51.4162H290.485V50.1634H291.345C291.723 50.1634 292.054 50.0954 292.339 49.9595C292.628 49.8236 292.853 49.6347 293.016 49.3928C293.178 49.1475 293.259 48.8608 293.259 48.5327C293.259 48.2178 293.188 47.9444 293.045 47.7124C292.906 47.477 292.707 47.2931 292.449 47.1605C292.194 47.0279 291.892 46.9616 291.544 46.9616C291.213 46.9616 290.903 47.023 290.614 47.1456C290.329 47.2649 290.097 47.4373 289.918 47.6626C289.739 47.8847 289.643 48.1515 289.63 48.4631H288.143C288.16 47.9129 288.322 47.429 288.631 47.0114C288.942 46.5937 289.353 46.2673 289.864 46.032C290.374 45.7966 290.941 45.679 291.564 45.679C292.217 45.679 292.78 45.8066 293.254 46.0618C293.732 46.3137 294.099 46.6501 294.358 47.071C294.62 47.492 294.749 47.9527 294.746 48.4531C294.749 49.0232 294.59 49.5071 294.268 49.9048C293.95 50.3026 293.526 50.5694 292.996 50.7053V50.7848C293.672 50.8875 294.196 51.156 294.567 51.5902C294.941 52.0244 295.127 52.563 295.124 53.206C295.127 53.7661 294.971 54.2682 294.656 54.7124C294.345 55.1565 293.919 55.5062 293.379 55.7614C292.838 56.0133 292.22 56.1392 291.524 56.1392ZM297.003 56V54.8864L300.448 51.3168C300.816 50.929 301.119 50.5893 301.358 50.2976C301.6 50.0026 301.781 49.7225 301.9 49.4574C302.019 49.1922 302.079 48.9105 302.079 48.6122C302.079 48.2741 301.999 47.9825 301.84 47.7372C301.681 47.4886 301.464 47.2981 301.189 47.1655C300.914 47.0296 300.604 46.9616 300.259 46.9616C299.895 46.9616 299.576 47.0362 299.305 47.1854C299.033 47.3345 298.824 47.545 298.678 47.8168C298.532 48.0885 298.46 48.4067 298.46 48.7713H296.993C296.993 48.1515 297.135 47.6096 297.42 47.1456C297.705 46.6816 298.097 46.322 298.594 46.0668C299.091 45.8082 299.656 45.679 300.289 45.679C300.929 45.679 301.492 45.8066 301.979 46.0618C302.47 46.3137 302.853 46.6584 303.128 47.0959C303.403 47.5301 303.54 48.0206 303.54 48.5675C303.54 48.9453 303.469 49.3149 303.327 49.6761C303.188 50.0374 302.944 50.4401 302.596 50.8842C302.248 51.325 301.764 51.8603 301.144 52.4901L299.121 54.608V54.6825H303.705V56H297.003ZM308.974 45.679C309.429 45.6823 309.876 45.7652 310.317 45.9276C310.758 46.09 311.155 46.3551 311.51 46.723C311.868 47.0909 312.153 47.5881 312.365 48.2145C312.58 48.8376 312.69 49.6132 312.693 50.5412C312.693 51.4328 312.604 52.2266 312.425 52.9226C312.246 53.6153 311.989 54.2003 311.654 54.6776C311.323 55.1548 310.92 55.5178 310.446 55.7663C309.972 56.0149 309.438 56.1392 308.845 56.1392C308.239 56.1392 307.7 56.0199 307.229 55.7812C306.759 55.5426 306.376 55.2128 306.081 54.7919C305.786 54.3677 305.602 53.8804 305.529 53.3303H307.045C307.145 53.7678 307.347 54.1224 307.652 54.3942C307.96 54.6626 308.358 54.7969 308.845 54.7969C309.591 54.7969 310.173 54.4721 310.59 53.8224C311.008 53.1695 311.218 52.258 311.222 51.0881H311.142C310.97 51.3731 310.754 51.6184 310.496 51.8239C310.241 52.0294 309.954 52.1884 309.636 52.3011C309.317 52.4138 308.978 52.4702 308.616 52.4702C308.03 52.4702 307.496 52.326 307.016 52.0376C306.535 51.7493 306.152 51.3532 305.867 50.8494C305.582 50.3456 305.44 49.7706 305.44 49.1243C305.44 48.4813 305.585 47.898 305.877 47.3743C306.172 46.8506 306.583 46.4363 307.11 46.1314C307.64 45.8232 308.262 45.6723 308.974 45.679ZM308.979 46.9716C308.592 46.9716 308.242 47.0677 307.93 47.2599C307.622 47.4489 307.379 47.7057 307.2 48.0305C307.021 48.352 306.931 48.71 306.931 49.1044C306.931 49.4988 307.017 49.8568 307.19 50.1783C307.365 50.4964 307.604 50.75 307.906 50.9389C308.21 51.1245 308.558 51.2173 308.95 51.2173C309.241 51.2173 309.513 51.161 309.765 51.0483C310.017 50.9356 310.237 50.7798 310.426 50.581C310.615 50.3788 310.763 50.1501 310.869 49.8949C310.975 49.6397 311.028 49.3712 311.028 49.0895C311.028 48.715 310.938 48.367 310.759 48.0455C310.584 47.724 310.342 47.4654 310.033 47.2699C309.725 47.071 309.374 46.9716 308.979 46.9716ZM315.119 56.0945C314.848 56.0945 314.614 55.9983 314.418 55.8061C314.223 55.6106 314.125 55.3752 314.125 55.1001C314.125 54.8284 314.223 54.5964 314.418 54.4041C314.614 54.2086 314.848 54.1108 315.119 54.1108C315.391 54.1108 315.625 54.2086 315.82 54.4041C316.016 54.5964 316.114 54.8284 316.114 55.1001C316.114 55.2824 316.067 55.4498 315.974 55.6023C315.885 55.7514 315.766 55.8707 315.616 55.9602C315.467 56.0497 315.302 56.0945 315.119 56.0945ZM321.347 45.679C321.802 45.6823 322.249 45.7652 322.69 45.9276C323.131 46.09 323.528 46.3551 323.883 46.723C324.241 47.0909 324.526 47.5881 324.738 48.2145C324.954 48.8376 325.063 49.6132 325.066 50.5412C325.066 51.4328 324.977 52.2266 324.798 52.9226C324.619 53.6153 324.362 54.2003 324.027 54.6776C323.696 55.1548 323.293 55.5178 322.819 55.7663C322.345 56.0149 321.811 56.1392 321.218 56.1392C320.612 56.1392 320.073 56.0199 319.602 55.7812C319.132 55.5426 318.749 55.2128 318.454 54.7919C318.159 54.3677 317.975 53.8804 317.902 53.3303H319.419C319.518 53.7678 319.72 54.1224 320.025 54.3942C320.333 54.6626 320.731 54.7969 321.218 54.7969C321.964 54.7969 322.546 54.4721 322.963 53.8224C323.381 53.1695 323.591 52.258 323.595 51.0881H323.515C323.343 51.3731 323.127 51.6184 322.869 51.8239C322.614 52.0294 322.327 52.1884 322.009 52.3011C321.691 52.4138 321.351 52.4702 320.99 52.4702C320.403 52.4702 319.869 52.326 319.389 52.0376C318.908 51.7493 318.525 51.3532 318.24 50.8494C317.955 50.3456 317.813 49.7706 317.813 49.1243C317.813 48.4813 317.959 47.898 318.25 47.3743C318.545 46.8506 318.956 46.4363 319.483 46.1314C320.013 45.8232 320.635 45.6723 321.347 45.679ZM321.352 46.9716C320.965 46.9716 320.615 47.0677 320.303 47.2599C319.995 47.4489 319.752 47.7057 319.573 48.0305C319.394 48.352 319.304 48.71 319.304 49.1044C319.304 49.4988 319.39 49.8568 319.563 50.1783C319.738 50.4964 319.977 50.75 320.279 50.9389C320.584 51.1245 320.932 51.2173 321.323 51.2173C321.614 51.2173 321.886 51.161 322.138 51.0483C322.39 50.9356 322.61 50.7798 322.799 50.581C322.988 50.3788 323.136 50.1501 323.242 49.8949C323.348 49.6397 323.401 49.3712 323.401 49.0895C323.401 48.715 323.311 48.367 323.132 48.0455C322.957 47.724 322.715 47.4654 322.406 47.2699C322.098 47.071 321.747 46.9716 321.352 46.9716ZM330.248 45.679C330.702 45.6823 331.149 45.7652 331.59 45.9276C332.031 46.09 332.429 46.3551 332.783 46.723C333.141 47.0909 333.426 47.5881 333.638 48.2145C333.854 48.8376 333.963 49.6132 333.967 50.5412C333.967 51.4328 333.877 52.2266 333.698 52.9226C333.519 53.6153 333.262 54.2003 332.928 54.6776C332.596 55.1548 332.193 55.5178 331.719 55.7663C331.246 56.0149 330.712 56.1392 330.119 56.1392C329.512 56.1392 328.973 56.0199 328.503 55.7812C328.032 55.5426 327.649 55.2128 327.354 54.7919C327.059 54.3677 326.875 53.8804 326.803 53.3303H328.319C328.418 53.7678 328.621 54.1224 328.925 54.3942C329.234 54.6626 329.631 54.7969 330.119 54.7969C330.864 54.7969 331.446 54.4721 331.864 53.8224C332.281 53.1695 332.492 52.258 332.495 51.0881H332.415C332.243 51.3731 332.028 51.6184 331.769 51.8239C331.514 52.0294 331.227 52.1884 330.909 52.3011C330.591 52.4138 330.251 52.4702 329.89 52.4702C329.303 52.4702 328.77 52.326 328.289 52.0376C327.808 51.7493 327.426 51.3532 327.141 50.8494C326.856 50.3456 326.713 49.7706 326.713 49.1243C326.713 48.4813 326.859 47.898 327.151 47.3743C327.446 46.8506 327.857 46.4363 328.384 46.1314C328.914 45.8232 329.535 45.6723 330.248 45.679ZM330.253 46.9716C329.865 46.9716 329.515 47.0677 329.204 47.2599C328.896 47.4489 328.652 47.7057 328.473 48.0305C328.294 48.352 328.205 48.71 328.205 49.1044C328.205 49.4988 328.291 49.8568 328.463 50.1783C328.639 50.4964 328.877 50.75 329.179 50.9389C329.484 51.1245 329.832 51.2173 330.223 51.2173C330.515 51.2173 330.786 51.161 331.038 51.0483C331.29 50.9356 331.511 50.7798 331.7 50.581C331.888 50.3788 332.036 50.1501 332.142 49.8949C332.248 49.6397 332.301 49.3712 332.301 49.0895C332.301 48.715 332.212 48.367 332.033 48.0455C331.857 47.724 331.615 47.4654 331.307 47.2699C330.999 47.071 330.647 46.9716 330.253 46.9716Z" fill="#5D45DB"/>
<path d="M13 119L42.9932 112.714L74.1811 104.689L169.915 59.3176L205.216 54.1663L236.975 40L284 50.6192" stroke="#6D23F9" stroke-width="2" stroke-linecap="round"/>
<circle cx="283" cy="51" r="3" fill="#6D23F9"/>
<g clip-path="url(#clip0_958_979)">
<circle cx="13.5" cy="142.5" r="1.5" fill="#CAC4CF"/>
<circle cx="23.5" cy="142.5" r="1.5" fill="#CAC4CF"/>
<circle cx="33.5" cy="142.5" r="1.5" fill="#CAC4CF"/>
<circle cx="43.5" cy="142.5" r="1.5" fill="#CAC4CF"/>
<circle cx="53.5" cy="142.5" r="1.5" fill="#CAC4CF"/>
<circle cx="63.5" cy="142.5" r="1.5" fill="#CAC4CF"/>
<circle cx="73.5" cy="142.5" r="1.5" fill="#CAC4CF"/>
<circle cx="83.5" cy="142.5" r="1.5" fill="#CAC4CF"/>
<circle cx="93.5" cy="142.5" r="1.5" fill="#CAC4CF"/>
<circle cx="103.5" cy="142.5" r="1.5" fill="#CAC4CF"/>
<circle cx="113.5" cy="142.5" r="1.5" fill="#CAC4CF"/>
<circle cx="123.5" cy="142.5" r="1.5" fill="#CAC4CF"/>
<circle cx="133.5" cy="142.5" r="1.5" fill="#CAC4CF"/>
<circle cx="143.5" cy="142.5" r="1.5" fill="#CAC4CF"/>
<circle cx="153.5" cy="142.5" r="1.5" fill="#CAC4CF"/>
<circle cx="163.5" cy="142.5" r="1.5" fill="#CAC4CF"/>
<circle cx="173.5" cy="142.5" r="1.5" fill="#CAC4CF"/>
<circle cx="183.5" cy="142.5" r="1.5" fill="#CAC4CF"/>
<circle cx="193.5" cy="142.5" r="1.5" fill="#CAC4CF"/>
<circle cx="203.5" cy="142.5" r="1.5" fill="#CAC4CF"/>
<circle cx="213.5" cy="142.5" r="1.5" fill="#CAC4CF"/>
<circle cx="223.5" cy="142.5" r="1.5" fill="#CAC4CF"/>
<circle cx="233.5" cy="142.5" r="1.5" fill="#CAC4CF"/>
<circle cx="243.5" cy="142.5" r="1.5" fill="#CAC4CF"/>
<circle cx="253.5" cy="142.5" r="1.5" fill="#CAC4CF"/>
<circle cx="263.5" cy="142.5" r="1.5" fill="#CAC4CF"/>
<circle cx="273.5" cy="142.5" r="1.5" fill="#CAC4CF"/>
<circle cx="283.5" cy="142.5" r="1.5" fill="#CAC4CF"/>
<circle cx="293.5" cy="142.5" r="1.5" fill="#CAC4CF"/>
<circle cx="303.5" cy="142.5" r="1.5" fill="#CAC4CF"/>
<circle cx="313.5" cy="142.5" r="1.5" fill="#CAC4CF"/>
</g>
<path d="M19.4999 167.975L16.6082 165.083C16.2832 164.758 15.7582 164.758 15.4332 165.083C15.1082 165.408 15.1082 165.933 15.4332 166.258L18.9165 169.742C19.2415 170.067 19.7665 170.067 20.0915 169.742L28.9082 160.925C29.2332 160.6 29.2332 160.075 28.9082 159.75C28.5832 159.425 28.0582 159.425 27.7332 159.75L19.4999 167.975Z" fill="#6D23F9"/>
<path d="M36.9794 169.5V168.386L40.4247 164.817C40.7926 164.429 41.0959 164.089 41.3345 163.798C41.5765 163.503 41.7571 163.223 41.8764 162.957C41.9957 162.692 42.0554 162.411 42.0554 162.112C42.0554 161.774 41.9759 161.482 41.8168 161.237C41.6577 160.989 41.4406 160.798 41.1655 160.665C40.8904 160.53 40.5805 160.462 40.2358 160.462C39.8712 160.462 39.553 160.536 39.2812 160.685C39.0095 160.835 38.8007 161.045 38.6548 161.317C38.509 161.589 38.4361 161.907 38.4361 162.271H36.9695C36.9695 161.652 37.112 161.11 37.397 160.646C37.6821 160.182 38.0732 159.822 38.5703 159.567C39.0675 159.308 39.6326 159.179 40.2656 159.179C40.9053 159.179 41.4688 159.307 41.956 159.562C42.4465 159.814 42.8293 160.158 43.1044 160.596C43.3795 161.03 43.517 161.521 43.517 162.067C43.517 162.445 43.4458 162.815 43.3033 163.176C43.1641 163.537 42.9205 163.94 42.5724 164.384C42.2244 164.825 41.7405 165.36 41.1207 165.99L39.0973 168.108V168.183H43.6811V169.5H36.9794ZM45.5653 169.5V168.386L49.0107 164.817C49.3786 164.429 49.6818 164.089 49.9205 163.798C50.1624 163.503 50.343 163.223 50.4624 162.957C50.5817 162.692 50.6413 162.411 50.6413 162.112C50.6413 161.774 50.5618 161.482 50.4027 161.237C50.2436 160.989 50.0265 160.798 49.7514 160.665C49.4763 160.53 49.1664 160.462 48.8217 160.462C48.4571 160.462 48.139 160.536 47.8672 160.685C47.5954 160.835 47.3866 161.045 47.2408 161.317C47.0949 161.589 47.022 161.907 47.022 162.271H45.5554C45.5554 161.652 45.6979 161.11 45.983 160.646C46.268 160.182 46.6591 159.822 47.1562 159.567C47.6534 159.308 48.2185 159.179 48.8516 159.179C49.4912 159.179 50.0547 159.307 50.5419 159.562C51.0324 159.814 51.4152 160.158 51.6903 160.596C51.9654 161.03 52.103 161.521 52.103 162.067C52.103 162.445 52.0317 162.815 51.8892 163.176C51.75 163.537 51.5064 163.94 51.1584 164.384C50.8104 164.825 50.3265 165.36 49.7067 165.99L47.6832 168.108V168.183H52.267V169.5H45.5653ZM55.1506 169.594C54.8788 169.594 54.6451 169.498 54.4496 169.306C54.254 169.111 54.1562 168.875 54.1562 168.6C54.1562 168.328 54.254 168.096 54.4496 167.904C54.6451 167.709 54.8788 167.611 55.1506 167.611C55.4223 167.611 55.656 167.709 55.8516 167.904C56.0471 168.096 56.1449 168.328 56.1449 168.6C56.1449 168.782 56.0985 168.95 56.0057 169.102C55.9162 169.251 55.7969 169.371 55.6477 169.46C55.4986 169.55 55.3329 169.594 55.1506 169.594ZM61.3129 169.639C60.6897 169.639 60.1296 169.52 59.6325 169.281C59.1386 169.039 58.7442 168.708 58.4492 168.287C58.1542 167.866 57.9968 167.385 57.9769 166.845H59.4684C59.5049 167.283 59.6987 167.642 60.0501 167.924C60.4014 168.206 60.8223 168.347 61.3129 168.347C61.704 168.347 62.0503 168.257 62.3519 168.078C62.6568 167.896 62.8955 167.646 63.0678 167.327C63.2435 167.009 63.3313 166.646 63.3313 166.239C63.3313 165.824 63.2418 165.455 63.0629 165.13C62.8839 164.805 62.637 164.55 62.3221 164.364C62.0105 164.179 61.6526 164.084 61.2482 164.081C60.94 164.081 60.6301 164.134 60.3185 164.24C60.007 164.346 59.7551 164.485 59.5629 164.658L58.1559 164.449L58.7276 159.318H64.3256V160.636H60.0053L59.6822 163.484H59.7418C59.9407 163.292 60.2042 163.131 60.5323 163.002C60.8638 162.873 61.2184 162.808 61.5962 162.808C62.216 162.808 62.7679 162.956 63.2518 163.251C63.739 163.546 64.1218 163.948 64.4002 164.459C64.6819 164.966 64.8211 165.549 64.8178 166.209C64.8211 166.868 64.672 167.457 64.3704 167.974C64.0721 168.491 63.6578 168.898 63.1275 169.197C62.6005 169.492 61.9956 169.639 61.3129 169.639ZM71.9483 167.591V167.054C71.9483 166.67 72.0279 166.318 72.187 166C72.3494 165.679 72.5847 165.422 72.8929 165.229C73.2045 165.034 73.5807 164.936 74.0215 164.936C74.4722 164.936 74.8501 165.032 75.155 165.224C75.4599 165.417 75.6903 165.674 75.8461 165.995C76.0051 166.317 76.0847 166.67 76.0847 167.054V167.591C76.0847 167.975 76.0051 168.328 75.8461 168.65C75.687 168.968 75.4533 169.225 75.1451 169.42C74.8401 169.613 74.4656 169.709 74.0215 169.709C73.574 169.709 73.1962 169.613 72.888 169.42C72.5797 169.225 72.3461 168.968 72.187 168.65C72.0279 168.328 71.9483 167.975 71.9483 167.591ZM73.1067 167.054V167.591C73.1067 167.876 73.1747 168.134 73.3105 168.366C73.4464 168.598 73.6834 168.714 74.0215 168.714C74.3562 168.714 74.5899 168.598 74.7225 168.366C74.8551 168.134 74.9213 167.876 74.9213 167.591V167.054C74.9213 166.769 74.8567 166.51 74.7275 166.278C74.6015 166.046 74.3662 165.93 74.0215 165.93C73.69 165.93 73.4547 166.046 73.3155 166.278C73.1763 166.51 73.1067 166.769 73.1067 167.054ZM66.8276 161.764V161.227C66.8276 160.843 66.9071 160.49 67.0662 160.168C67.2286 159.847 67.464 159.59 67.7722 159.398C68.0837 159.205 68.4599 159.109 68.9007 159.109C69.3515 159.109 69.7293 159.205 70.0343 159.398C70.3392 159.59 70.5695 159.847 70.7253 160.168C70.8811 160.49 70.959 160.843 70.959 161.227V161.764C70.959 162.149 70.8794 162.502 70.7203 162.823C70.5646 163.141 70.3326 163.398 70.0243 163.594C69.7194 163.786 69.3449 163.882 68.9007 163.882C68.45 163.882 68.0705 163.786 67.7623 163.594C67.4573 163.398 67.2253 163.141 67.0662 162.823C66.9071 162.502 66.8276 162.149 66.8276 161.764ZM67.9909 161.227V161.764C67.9909 162.049 68.0572 162.308 68.1898 162.54C68.3257 162.772 68.5627 162.888 68.9007 162.888C69.2322 162.888 69.4642 162.772 69.5968 162.54C69.7327 162.308 69.8006 162.049 69.8006 161.764V161.227C69.8006 160.942 69.736 160.684 69.6067 160.452C69.4775 160.22 69.2421 160.104 68.9007 160.104C68.5693 160.104 68.334 160.22 68.1948 160.452C68.0589 160.684 67.9909 160.942 67.9909 161.227ZM67.2999 169.5L74.2999 159.318H75.4881L68.4881 169.5H67.2999Z" fill="#6D23F9"/>
<path d="M85.169 169.654C84.4299 169.654 83.7936 169.487 83.2599 169.152C82.7296 168.814 82.322 168.348 82.0369 167.755C81.7519 167.162 81.6094 166.482 81.6094 165.717C81.6094 164.941 81.7552 164.257 82.0469 163.663C82.3385 163.067 82.7495 162.601 83.2798 162.266C83.8101 161.932 84.4349 161.764 85.1541 161.764C85.7341 161.764 86.2512 161.872 86.7053 162.087C87.1593 162.299 87.5256 162.598 87.804 162.982C88.0857 163.367 88.2531 163.816 88.3061 164.33H86.8594C86.7798 163.972 86.5975 163.663 86.3125 163.405C86.0308 163.146 85.6529 163.017 85.179 163.017C84.7647 163.017 84.4018 163.126 84.0902 163.345C83.782 163.561 83.5417 163.869 83.3693 164.27C83.197 164.668 83.1108 165.138 83.1108 165.682C83.1108 166.239 83.1953 166.719 83.3643 167.124C83.5334 167.528 83.772 167.841 84.0803 168.063C84.3918 168.285 84.758 168.396 85.179 168.396C85.4607 168.396 85.7159 168.345 85.9446 168.242C86.1766 168.136 86.3705 167.985 86.5263 167.79C86.6854 167.594 86.7964 167.359 86.8594 167.084H88.3061C88.2531 167.578 88.0923 168.018 87.8239 168.406C87.5554 168.794 87.1958 169.099 86.745 169.321C86.2976 169.543 85.7723 169.654 85.169 169.654ZM91.3823 164.966V169.5H89.8958V159.318H91.3624V163.107H91.4569C91.6358 162.696 91.9093 162.369 92.2772 162.127C92.6451 161.885 93.1257 161.764 93.7189 161.764C94.2426 161.764 94.7 161.872 95.0911 162.087C95.4855 162.303 95.7904 162.624 96.0059 163.052C96.2246 163.476 96.334 164.006 96.334 164.643V169.5H94.8475V164.822C94.8475 164.262 94.7033 163.827 94.415 163.519C94.1266 163.208 93.7256 163.052 93.2118 163.052C92.8605 163.052 92.5456 163.126 92.2672 163.276C91.9921 163.425 91.775 163.643 91.6159 163.932C91.4602 164.217 91.3823 164.562 91.3823 164.966ZM101.609 169.654C100.856 169.654 100.209 169.493 99.665 169.172C99.1247 168.847 98.7071 168.391 98.4121 167.805C98.1204 167.215 97.9746 166.524 97.9746 165.732C97.9746 164.949 98.1204 164.26 98.4121 163.663C98.7071 163.067 99.1181 162.601 99.6451 162.266C100.175 161.932 100.795 161.764 101.504 161.764C101.935 161.764 102.353 161.835 102.757 161.978C103.162 162.121 103.525 162.344 103.846 162.649C104.168 162.954 104.421 163.35 104.607 163.837C104.792 164.321 104.885 164.91 104.885 165.602V166.129H98.8148V165.016H103.428C103.428 164.625 103.349 164.278 103.19 163.977C103.031 163.672 102.807 163.431 102.519 163.256C102.234 163.08 101.899 162.992 101.514 162.992C101.097 162.992 100.732 163.095 100.421 163.3C100.112 163.503 99.8738 163.768 99.7047 164.096C99.539 164.421 99.4561 164.774 99.4561 165.155V166.025C99.4561 166.535 99.5456 166.969 99.7246 167.327C99.9069 167.685 100.16 167.959 100.485 168.148C100.81 168.333 101.19 168.426 101.624 168.426C101.905 168.426 102.162 168.386 102.394 168.307C102.626 168.224 102.827 168.101 102.996 167.939C103.165 167.777 103.294 167.576 103.384 167.337L104.791 167.591C104.678 168.005 104.476 168.368 104.184 168.68C103.896 168.988 103.533 169.228 103.095 169.401C102.661 169.57 102.166 169.654 101.609 169.654ZM108.757 169.669C108.273 169.669 107.835 169.58 107.444 169.401C107.053 169.218 106.743 168.955 106.515 168.61C106.289 168.265 106.176 167.843 106.176 167.342C106.176 166.911 106.259 166.557 106.425 166.278C106.591 166 106.815 165.78 107.096 165.617C107.378 165.455 107.693 165.332 108.041 165.249C108.389 165.166 108.743 165.103 109.105 165.06C109.562 165.007 109.933 164.964 110.218 164.931C110.503 164.895 110.711 164.837 110.84 164.757C110.969 164.678 111.034 164.548 111.034 164.369V164.335C111.034 163.9 110.911 163.564 110.666 163.325C110.424 163.087 110.063 162.967 109.582 162.967C109.082 162.967 108.687 163.078 108.399 163.3C108.114 163.519 107.917 163.763 107.807 164.031L106.41 163.713C106.576 163.249 106.818 162.875 107.136 162.589C107.458 162.301 107.827 162.092 108.245 161.963C108.662 161.83 109.101 161.764 109.562 161.764C109.867 161.764 110.19 161.801 110.532 161.874C110.876 161.943 111.198 162.072 111.496 162.261C111.798 162.45 112.045 162.72 112.237 163.072C112.429 163.42 112.525 163.872 112.525 164.429V169.5H111.074V168.456H111.014C110.918 168.648 110.774 168.837 110.581 169.023C110.389 169.208 110.142 169.362 109.841 169.485C109.539 169.608 109.178 169.669 108.757 169.669ZM109.08 168.476C109.491 168.476 109.842 168.395 110.134 168.232C110.429 168.07 110.653 167.858 110.805 167.596C110.961 167.331 111.039 167.047 111.039 166.746V165.761C110.986 165.814 110.883 165.864 110.73 165.911C110.581 165.954 110.411 165.992 110.218 166.025C110.026 166.055 109.839 166.083 109.657 166.109C109.474 166.133 109.322 166.152 109.199 166.169C108.911 166.205 108.647 166.267 108.409 166.353C108.173 166.439 107.984 166.563 107.842 166.726C107.703 166.885 107.633 167.097 107.633 167.362C107.633 167.73 107.769 168.009 108.041 168.197C108.313 168.383 108.659 168.476 109.08 168.476ZM114.505 172.364V161.864H115.957V163.102H116.081C116.167 162.942 116.292 162.759 116.454 162.55C116.616 162.341 116.842 162.159 117.13 162.003C117.419 161.844 117.8 161.764 118.274 161.764C118.89 161.764 119.44 161.92 119.924 162.232C120.408 162.543 120.788 162.992 121.063 163.579C121.341 164.165 121.48 164.871 121.48 165.697C121.48 166.522 121.343 167.23 121.068 167.82C120.793 168.406 120.415 168.859 119.934 169.177C119.454 169.492 118.905 169.649 118.289 169.649C117.825 169.649 117.445 169.571 117.15 169.415C116.858 169.26 116.63 169.077 116.464 168.869C116.298 168.66 116.171 168.474 116.081 168.312H115.992V172.364H114.505ZM115.962 165.682C115.962 166.219 116.04 166.689 116.195 167.094C116.351 167.498 116.577 167.815 116.872 168.043C117.167 168.269 117.528 168.381 117.955 168.381C118.4 168.381 118.771 168.264 119.069 168.028C119.367 167.79 119.593 167.467 119.745 167.059C119.901 166.651 119.979 166.192 119.979 165.682C119.979 165.178 119.903 164.726 119.75 164.325C119.601 163.924 119.376 163.607 119.074 163.375C118.776 163.143 118.403 163.027 117.955 163.027C117.525 163.027 117.16 163.138 116.862 163.36C116.567 163.582 116.343 163.892 116.191 164.29C116.038 164.687 115.962 165.152 115.962 165.682ZM126.437 169.654C125.685 169.654 125.037 169.493 124.493 169.172C123.953 168.847 123.535 168.391 123.24 167.805C122.949 167.215 122.803 166.524 122.803 165.732C122.803 164.949 122.949 164.26 123.24 163.663C123.535 163.067 123.946 162.601 124.473 162.266C125.003 161.932 125.623 161.764 126.333 161.764C126.763 161.764 127.181 161.835 127.585 161.978C127.99 162.121 128.353 162.344 128.674 162.649C128.996 162.954 129.249 163.35 129.435 163.837C129.62 164.321 129.713 164.91 129.713 165.602V166.129H123.643V165.016H128.257C128.257 164.625 128.177 164.278 128.018 163.977C127.859 163.672 127.635 163.431 127.347 163.256C127.062 163.08 126.727 162.992 126.343 162.992C125.925 162.992 125.56 163.095 125.249 163.3C124.941 163.503 124.702 163.768 124.533 164.096C124.367 164.421 124.284 164.774 124.284 165.155V166.025C124.284 166.535 124.374 166.969 124.553 167.327C124.735 167.685 124.989 167.959 125.313 168.148C125.638 168.333 126.018 168.426 126.452 168.426C126.734 168.426 126.99 168.386 127.222 168.307C127.454 168.224 127.655 168.101 127.824 167.939C127.993 167.777 128.122 167.576 128.212 167.337L129.619 167.591C129.506 168.005 129.304 168.368 129.012 168.68C128.724 168.988 128.361 169.228 127.923 169.401C127.489 169.57 126.994 169.654 126.437 169.654ZM131.363 169.5V161.864H132.799V163.077H132.879C133.018 162.666 133.263 162.343 133.615 162.107C133.969 161.869 134.37 161.749 134.818 161.749C134.911 161.749 135.02 161.753 135.146 161.759C135.275 161.766 135.376 161.774 135.449 161.784V163.206C135.39 163.189 135.283 163.171 135.131 163.151C134.979 163.128 134.826 163.116 134.674 163.116C134.322 163.116 134.009 163.191 133.734 163.34C133.462 163.486 133.247 163.69 133.088 163.952C132.929 164.21 132.849 164.505 132.849 164.837V169.5H131.363ZM144.005 161.864V163.057H139.834V161.864H144.005ZM140.953 160.034H142.439V167.258C142.439 167.546 142.482 167.763 142.569 167.909C142.655 168.052 142.766 168.149 142.902 168.202C143.041 168.252 143.192 168.277 143.354 168.277C143.473 168.277 143.578 168.269 143.667 168.252C143.757 168.236 143.826 168.222 143.876 168.212L144.145 169.44C144.058 169.473 143.936 169.507 143.777 169.54C143.618 169.576 143.419 169.596 143.18 169.599C142.789 169.606 142.424 169.536 142.086 169.391C141.748 169.245 141.475 169.019 141.266 168.714C141.057 168.41 140.953 168.027 140.953 167.566V160.034ZM147.3 164.966V169.5H145.814V159.318H147.28V163.107H147.375C147.554 162.696 147.827 162.369 148.195 162.127C148.563 161.885 149.044 161.764 149.637 161.764C150.161 161.764 150.618 161.872 151.009 162.087C151.403 162.303 151.708 162.624 151.924 163.052C152.143 163.476 152.252 164.006 152.252 164.643V169.5H150.765V164.822C150.765 164.262 150.621 163.827 150.333 163.519C150.045 163.208 149.644 163.052 149.13 163.052C148.778 163.052 148.464 163.126 148.185 163.276C147.91 163.425 147.693 163.643 147.534 163.932C147.378 164.217 147.3 164.562 147.3 164.966ZM156.458 169.669C155.974 169.669 155.537 169.58 155.145 169.401C154.754 169.218 154.444 168.955 154.216 168.61C153.99 168.265 153.878 167.843 153.878 167.342C153.878 166.911 153.961 166.557 154.126 166.278C154.292 166 154.516 165.78 154.797 165.617C155.079 165.455 155.394 165.332 155.742 165.249C156.09 165.166 156.445 165.103 156.806 165.06C157.263 165.007 157.635 164.964 157.92 164.931C158.205 164.895 158.412 164.837 158.541 164.757C158.67 164.678 158.735 164.548 158.735 164.369V164.335C158.735 163.9 158.612 163.564 158.367 163.325C158.125 163.087 157.764 162.967 157.283 162.967C156.783 162.967 156.388 163.078 156.1 163.3C155.815 163.519 155.618 163.763 155.508 164.031L154.111 163.713C154.277 163.249 154.519 162.875 154.837 162.589C155.159 162.301 155.528 162.092 155.946 161.963C156.363 161.83 156.803 161.764 157.263 161.764C157.568 161.764 157.891 161.801 158.233 161.874C158.577 161.943 158.899 162.072 159.197 162.261C159.499 162.45 159.746 162.72 159.938 163.072C160.13 163.42 160.226 163.872 160.226 164.429V169.5H158.775V168.456H158.715C158.619 168.648 158.475 168.837 158.282 169.023C158.09 169.208 157.843 169.362 157.542 169.485C157.24 169.608 156.879 169.669 156.458 169.669ZM156.781 168.476C157.192 168.476 157.543 168.395 157.835 168.232C158.13 168.07 158.354 167.858 158.506 167.596C158.662 167.331 158.74 167.047 158.74 166.746V165.761C158.687 165.814 158.584 165.864 158.432 165.911C158.282 165.954 158.112 165.992 157.92 166.025C157.727 166.055 157.54 166.083 157.358 166.109C157.175 166.133 157.023 166.152 156.9 166.169C156.612 166.205 156.349 166.267 156.11 166.353C155.875 166.439 155.686 166.563 155.543 166.726C155.404 166.885 155.334 167.097 155.334 167.362C155.334 167.73 155.47 168.009 155.742 168.197C156.014 168.383 156.36 168.476 156.781 168.476ZM163.693 164.966V169.5H162.206V161.864H163.633V163.107H163.728C163.903 162.702 164.178 162.377 164.553 162.132C164.931 161.887 165.406 161.764 165.98 161.764C166.5 161.764 166.956 161.874 167.347 162.092C167.738 162.308 168.041 162.629 168.257 163.057C168.472 163.484 168.58 164.013 168.58 164.643V169.5H167.093V164.822C167.093 164.268 166.949 163.836 166.661 163.524C166.373 163.209 165.976 163.052 165.473 163.052C165.128 163.052 164.821 163.126 164.553 163.276C164.288 163.425 164.077 163.643 163.922 163.932C163.769 164.217 163.693 164.562 163.693 164.966ZM173.896 160.641V159.318H181.776V160.641H178.599V169.5H177.068V160.641H173.896ZM185.507 169.654C184.791 169.654 184.166 169.49 183.633 169.162C183.099 168.834 182.685 168.375 182.39 167.785C182.095 167.195 181.947 166.505 181.947 165.717C181.947 164.924 182.095 164.232 182.39 163.638C182.685 163.045 183.099 162.585 183.633 162.256C184.166 161.928 184.791 161.764 185.507 161.764C186.223 161.764 186.848 161.928 187.381 162.256C187.915 162.585 188.329 163.045 188.624 163.638C188.919 164.232 189.067 164.924 189.067 165.717C189.067 166.505 188.919 167.195 188.624 167.785C188.329 168.375 187.915 168.834 187.381 169.162C186.848 169.49 186.223 169.654 185.507 169.654ZM185.512 168.406C185.976 168.406 186.36 168.284 186.665 168.038C186.97 167.793 187.196 167.467 187.341 167.059C187.491 166.651 187.565 166.202 187.565 165.712C187.565 165.224 187.491 164.777 187.341 164.369C187.196 163.958 186.97 163.629 186.665 163.38C186.36 163.131 185.976 163.007 185.512 163.007C185.045 163.007 184.657 163.131 184.349 163.38C184.044 163.629 183.817 163.958 183.667 164.369C183.522 164.777 183.449 165.224 183.449 165.712C183.449 166.202 183.522 166.651 183.667 167.059C183.817 167.467 184.044 167.793 184.349 168.038C184.657 168.284 185.045 168.406 185.512 168.406ZM193.585 169.649C192.968 169.649 192.418 169.492 191.934 169.177C191.453 168.859 191.076 168.406 190.8 167.82C190.529 167.23 190.393 166.522 190.393 165.697C190.393 164.871 190.53 164.165 190.805 163.579C191.084 162.992 191.465 162.543 191.949 162.232C192.433 161.92 192.981 161.764 193.594 161.764C194.068 161.764 194.45 161.844 194.738 162.003C195.03 162.159 195.255 162.341 195.414 162.55C195.576 162.759 195.702 162.942 195.792 163.102H195.881V159.318H197.368V169.5H195.916V168.312H195.792C195.702 168.474 195.573 168.66 195.404 168.869C195.238 169.077 195.01 169.26 194.718 169.415C194.426 169.571 194.049 169.649 193.585 169.649ZM193.913 168.381C194.34 168.381 194.701 168.269 194.996 168.043C195.295 167.815 195.52 167.498 195.673 167.094C195.828 166.689 195.906 166.219 195.906 165.682C195.906 165.152 195.83 164.687 195.678 164.29C195.525 163.892 195.301 163.582 195.006 163.36C194.711 163.138 194.347 163.027 193.913 163.027C193.465 163.027 193.092 163.143 192.794 163.375C192.496 163.607 192.27 163.924 192.118 164.325C191.969 164.726 191.894 165.178 191.894 165.682C191.894 166.192 191.97 166.651 192.123 167.059C192.275 167.467 192.501 167.79 192.799 168.028C193.101 168.264 193.472 168.381 193.913 168.381ZM201.712 169.669C201.228 169.669 200.79 169.58 200.399 169.401C200.008 169.218 199.698 168.955 199.47 168.61C199.244 168.265 199.132 167.843 199.132 167.342C199.132 166.911 199.214 166.557 199.38 166.278C199.546 166 199.77 165.78 200.051 165.617C200.333 165.455 200.648 165.332 200.996 165.249C201.344 165.166 201.699 165.103 202.06 165.06C202.517 165.007 202.888 164.964 203.173 164.931C203.459 164.895 203.666 164.837 203.795 164.757C203.924 164.678 203.989 164.548 203.989 164.369V164.335C203.989 163.9 203.866 163.564 203.621 163.325C203.379 163.087 203.018 162.967 202.537 162.967C202.037 162.967 201.642 163.078 201.354 163.3C201.069 163.519 200.872 163.763 200.762 164.031L199.365 163.713C199.531 163.249 199.773 162.875 200.091 162.589C200.413 162.301 200.782 162.092 201.2 161.963C201.617 161.83 202.057 161.764 202.517 161.764C202.822 161.764 203.145 161.801 203.487 161.874C203.831 161.943 204.153 162.072 204.451 162.261C204.753 162.45 205 162.72 205.192 163.072C205.384 163.42 205.48 163.872 205.48 164.429V169.5H204.029V168.456H203.969C203.873 168.648 203.729 168.837 203.536 169.023C203.344 169.208 203.097 169.362 202.796 169.485C202.494 169.608 202.133 169.669 201.712 169.669ZM202.035 168.476C202.446 168.476 202.797 168.395 203.089 168.232C203.384 168.07 203.608 167.858 203.76 167.596C203.916 167.331 203.994 167.047 203.994 166.746V165.761C203.941 165.814 203.838 165.864 203.686 165.911C203.536 165.954 203.366 165.992 203.173 166.025C202.981 166.055 202.794 166.083 202.612 166.109C202.429 166.133 202.277 166.152 202.154 166.169C201.866 166.205 201.602 166.267 201.364 166.353C201.128 166.439 200.94 166.563 200.797 166.726C200.658 166.885 200.588 167.097 200.588 167.362C200.588 167.73 200.724 168.009 200.996 168.197C201.268 168.383 201.614 168.476 202.035 168.476ZM208.126 172.364C207.904 172.364 207.702 172.345 207.52 172.309C207.338 172.276 207.202 172.239 207.112 172.2L207.47 170.982C207.742 171.054 207.984 171.086 208.196 171.076C208.408 171.066 208.595 170.987 208.758 170.837C208.924 170.688 209.069 170.445 209.195 170.107L209.379 169.599L206.585 161.864H208.176L210.11 167.79H210.19L212.124 161.864H213.719L210.572 170.519C210.427 170.917 210.241 171.253 210.016 171.528C209.79 171.807 209.522 172.016 209.21 172.155C208.899 172.294 208.537 172.364 208.126 172.364ZM216.873 159.318V160.273C216.873 160.554 216.82 160.851 216.714 161.163C216.611 161.471 216.465 161.768 216.276 162.053C216.087 162.338 215.865 162.583 215.61 162.788L214.874 162.261C215.07 161.976 215.239 161.673 215.381 161.352C215.527 161.03 215.6 160.675 215.6 160.288V159.318H216.873ZM223.067 163.728L221.72 163.967C221.664 163.794 221.574 163.63 221.452 163.474C221.332 163.319 221.17 163.191 220.964 163.092C220.759 162.992 220.502 162.942 220.194 162.942C219.773 162.942 219.421 163.037 219.14 163.226C218.858 163.411 218.717 163.652 218.717 163.947C218.717 164.202 218.812 164.407 219.001 164.563C219.189 164.719 219.494 164.847 219.915 164.946L221.128 165.224C221.831 165.387 222.355 165.637 222.699 165.975C223.044 166.313 223.216 166.752 223.216 167.293C223.216 167.75 223.084 168.158 222.819 168.516C222.557 168.87 222.191 169.149 221.72 169.351C221.253 169.553 220.711 169.654 220.094 169.654C219.239 169.654 218.541 169.472 218.001 169.107C217.461 168.739 217.13 168.217 217.007 167.541L218.444 167.322C218.533 167.697 218.717 167.98 218.996 168.173C219.274 168.362 219.637 168.456 220.084 168.456C220.572 168.456 220.961 168.355 221.253 168.153C221.544 167.947 221.69 167.697 221.69 167.402C221.69 167.163 221.601 166.963 221.422 166.8C221.246 166.638 220.976 166.515 220.611 166.433L219.319 166.149C218.606 165.987 218.079 165.728 217.738 165.374C217.4 165.019 217.231 164.57 217.231 164.026C217.231 163.576 217.357 163.181 217.608 162.843C217.86 162.505 218.208 162.241 218.653 162.053C219.097 161.86 219.605 161.764 220.179 161.764C221.004 161.764 221.654 161.943 222.128 162.301C222.602 162.656 222.915 163.131 223.067 163.728ZM229.535 169.5H227.905L231.569 159.318H233.344L237.008 169.5H235.377L232.498 161.168H232.419L229.535 169.5ZM229.809 165.513H235.099V166.805H229.809V165.513ZM243.934 161.864L241.165 169.5H239.574L236.8 161.864H238.396L240.33 167.74H240.409L242.338 161.864H243.934ZM248.363 169.654C247.61 169.654 246.962 169.493 246.419 169.172C245.879 168.847 245.461 168.391 245.166 167.805C244.874 167.215 244.729 166.524 244.729 165.732C244.729 164.949 244.874 164.26 245.166 163.663C245.461 163.067 245.872 162.601 246.399 162.266C246.929 161.932 247.549 161.764 248.258 161.764C248.689 161.764 249.107 161.835 249.511 161.978C249.916 162.121 250.278 162.344 250.6 162.649C250.921 162.954 251.175 163.35 251.361 163.837C251.546 164.321 251.639 164.91 251.639 165.602V166.129H245.569V165.016H250.182C250.182 164.625 250.103 164.278 249.944 163.977C249.785 163.672 249.561 163.431 249.273 163.256C248.988 163.08 248.653 162.992 248.268 162.992C247.851 162.992 247.486 163.095 247.175 163.3C246.866 163.503 246.628 163.768 246.459 164.096C246.293 164.421 246.21 164.774 246.21 165.155V166.025C246.21 166.535 246.3 166.969 246.479 167.327C246.661 167.685 246.914 167.959 247.239 168.148C247.564 168.333 247.943 168.426 248.378 168.426C248.659 168.426 248.916 168.386 249.148 168.307C249.38 168.224 249.581 168.101 249.75 167.939C249.919 167.777 250.048 167.576 250.138 167.337L251.545 167.591C251.432 168.005 251.23 168.368 250.938 168.68C250.65 168.988 250.287 169.228 249.849 169.401C249.415 169.57 248.92 169.654 248.363 169.654ZM253.288 169.5V161.864H254.725V163.077H254.805C254.944 162.666 255.189 162.343 255.54 162.107C255.895 161.869 256.296 161.749 256.744 161.749C256.836 161.749 256.946 161.753 257.072 161.759C257.201 161.766 257.302 161.774 257.375 161.784V163.206C257.315 163.189 257.209 163.171 257.057 163.151C256.904 163.128 256.752 163.116 256.599 163.116C256.248 163.116 255.935 163.191 255.66 163.34C255.388 163.486 255.173 163.69 255.013 163.952C254.854 164.21 254.775 164.505 254.775 164.837V169.5H253.288ZM260.815 169.669C260.331 169.669 259.894 169.58 259.503 169.401C259.112 169.218 258.802 168.955 258.573 168.61C258.348 168.265 258.235 167.843 258.235 167.342C258.235 166.911 258.318 166.557 258.484 166.278C258.649 166 258.873 165.78 259.155 165.617C259.437 165.455 259.751 165.332 260.099 165.249C260.447 165.166 260.802 165.103 261.163 165.06C261.621 165.007 261.992 164.964 262.277 164.931C262.562 164.895 262.769 164.837 262.898 164.757C263.028 164.678 263.092 164.548 263.092 164.369V164.335C263.092 163.9 262.97 163.564 262.724 163.325C262.482 163.087 262.121 162.967 261.641 162.967C261.14 162.967 260.746 163.078 260.457 163.3C260.172 163.519 259.975 163.763 259.866 164.031L258.469 163.713C258.634 163.249 258.876 162.875 259.195 162.589C259.516 162.301 259.886 162.092 260.303 161.963C260.721 161.83 261.16 161.764 261.621 161.764C261.926 161.764 262.249 161.801 262.59 161.874C262.935 161.943 263.256 162.072 263.555 162.261C263.856 162.45 264.103 162.72 264.295 163.072C264.488 163.42 264.584 163.872 264.584 164.429V169.5H263.132V168.456H263.072C262.976 168.648 262.832 168.837 262.64 169.023C262.448 169.208 262.201 169.362 261.899 169.485C261.598 169.608 261.236 169.669 260.815 169.669ZM261.138 168.476C261.549 168.476 261.901 168.395 262.192 168.232C262.487 168.07 262.711 167.858 262.864 167.596C263.019 167.331 263.097 167.047 263.097 166.746V165.761C263.044 165.814 262.942 165.864 262.789 165.911C262.64 165.954 262.469 165.992 262.277 166.025C262.085 166.055 261.897 166.083 261.715 166.109C261.533 166.133 261.38 166.152 261.258 166.169C260.969 166.205 260.706 166.267 260.467 166.353C260.232 166.439 260.043 166.563 259.901 166.726C259.761 166.885 259.692 167.097 259.692 167.362C259.692 167.73 259.828 168.009 260.099 168.197C260.371 168.383 260.718 168.476 261.138 168.476ZM269.765 172.523C269.159 172.523 268.637 172.443 268.199 172.284C267.765 172.125 267.411 171.915 267.135 171.653C266.86 171.391 266.655 171.104 266.519 170.793L267.797 170.266C267.886 170.411 268.006 170.566 268.155 170.728C268.307 170.894 268.513 171.035 268.771 171.151C269.033 171.267 269.369 171.325 269.78 171.325C270.344 171.325 270.809 171.187 271.177 170.912C271.545 170.64 271.729 170.206 271.729 169.609V168.108H271.635C271.545 168.27 271.416 168.451 271.247 168.65C271.081 168.849 270.853 169.021 270.561 169.167C270.269 169.313 269.89 169.386 269.422 169.386C268.819 169.386 268.276 169.245 267.792 168.963C267.311 168.678 266.93 168.259 266.648 167.705C266.37 167.148 266.231 166.464 266.231 165.652C266.231 164.84 266.368 164.144 266.643 163.564C266.922 162.984 267.303 162.54 267.787 162.232C268.271 161.92 268.819 161.764 269.432 161.764C269.906 161.764 270.289 161.844 270.581 162.003C270.872 162.159 271.099 162.341 271.262 162.55C271.428 162.759 271.555 162.942 271.645 163.102H271.754V161.864H273.211V169.669C273.211 170.325 273.058 170.864 272.753 171.285C272.448 171.706 272.036 172.017 271.515 172.219C270.998 172.422 270.415 172.523 269.765 172.523ZM269.751 168.153C270.178 168.153 270.539 168.053 270.834 167.854C271.133 167.652 271.358 167.364 271.51 166.989C271.666 166.612 271.744 166.159 271.744 165.632C271.744 165.118 271.668 164.666 271.515 164.275C271.363 163.884 271.139 163.579 270.844 163.36C270.549 163.138 270.185 163.027 269.751 163.027C269.303 163.027 268.93 163.143 268.632 163.375C268.334 163.604 268.108 163.915 267.956 164.31C267.807 164.704 267.732 165.145 267.732 165.632C267.732 166.133 267.808 166.572 267.961 166.95C268.113 167.327 268.339 167.622 268.637 167.835C268.939 168.047 269.31 168.153 269.751 168.153ZM278.496 169.654C277.743 169.654 277.095 169.493 276.552 169.172C276.011 168.847 275.594 168.391 275.299 167.805C275.007 167.215 274.861 166.524 274.861 165.732C274.861 164.949 275.007 164.26 275.299 163.663C275.594 163.067 276.005 162.601 276.532 162.266C277.062 161.932 277.682 161.764 278.391 161.764C278.822 161.764 279.24 161.835 279.644 161.978C280.048 162.121 280.411 162.344 280.733 162.649C281.054 162.954 281.308 163.35 281.493 163.837C281.679 164.321 281.772 164.91 281.772 165.602V166.129H275.702V165.016H280.315C280.315 164.625 280.236 164.278 280.077 163.977C279.917 163.672 279.694 163.431 279.405 163.256C279.12 163.08 278.786 162.992 278.401 162.992C277.983 162.992 277.619 163.095 277.307 163.3C276.999 163.503 276.76 163.768 276.591 164.096C276.426 164.421 276.343 164.774 276.343 165.155V166.025C276.343 166.535 276.432 166.969 276.611 167.327C276.794 167.685 277.047 167.959 277.372 168.148C277.697 168.333 278.076 168.426 278.51 168.426C278.792 168.426 279.049 168.386 279.281 168.307C279.513 168.224 279.714 168.101 279.883 167.939C280.052 167.777 280.181 167.576 280.27 167.337L281.677 167.591C281.565 168.005 281.363 168.368 281.071 168.68C280.782 168.988 280.42 169.228 279.982 169.401C279.548 169.57 279.052 169.654 278.496 169.654ZM287.246 169.5V159.318H290.875C291.667 159.318 292.323 159.462 292.844 159.751C293.364 160.039 293.753 160.433 294.012 160.934C294.27 161.431 294.4 161.991 294.4 162.614C294.4 163.241 294.269 163.804 294.007 164.305C293.748 164.802 293.357 165.196 292.834 165.488C292.313 165.776 291.659 165.92 290.87 165.92H288.374V164.618H290.731C291.231 164.618 291.637 164.532 291.949 164.359C292.26 164.184 292.489 163.945 292.635 163.643C292.781 163.342 292.854 162.999 292.854 162.614C292.854 162.23 292.781 161.888 292.635 161.59C292.489 161.292 292.259 161.058 291.944 160.889C291.632 160.72 291.221 160.636 290.711 160.636H288.782V169.5H287.246ZM296.081 169.5V161.864H297.518V163.077H297.598C297.737 162.666 297.982 162.343 298.333 162.107C298.688 161.869 299.089 161.749 299.537 161.749C299.629 161.749 299.739 161.753 299.865 161.759C299.994 161.766 300.095 161.774 300.168 161.784V163.206C300.108 163.189 300.002 163.171 299.85 163.151C299.697 163.128 299.545 163.116 299.392 163.116C299.041 163.116 298.728 163.191 298.453 163.34C298.181 163.486 297.966 163.69 297.806 163.952C297.647 164.21 297.568 164.505 297.568 164.837V169.5H296.081ZM301.454 169.5V161.864H302.941V169.5H301.454ZM302.205 160.685C301.947 160.685 301.724 160.599 301.539 160.427C301.357 160.251 301.265 160.042 301.265 159.8C301.265 159.555 301.357 159.346 301.539 159.174C301.724 158.998 301.947 158.911 302.205 158.911C302.464 158.911 302.684 158.998 302.866 159.174C303.052 159.346 303.145 159.555 303.145 159.8C303.145 160.042 303.052 160.251 302.866 160.427C302.684 160.599 302.464 160.685 302.205 160.685ZM308.157 169.654C307.418 169.654 306.782 169.487 306.248 169.152C305.718 168.814 305.31 168.348 305.025 167.755C304.74 167.162 304.598 166.482 304.598 165.717C304.598 164.941 304.743 164.257 305.035 163.663C305.327 163.067 305.738 162.601 306.268 162.266C306.798 161.932 307.423 161.764 308.142 161.764C308.722 161.764 309.239 161.872 309.694 162.087C310.148 162.299 310.514 162.598 310.792 162.982C311.074 163.367 311.241 163.816 311.294 164.33H309.848C309.768 163.972 309.586 163.663 309.301 163.405C309.019 163.146 308.641 163.017 308.167 163.017C307.753 163.017 307.39 163.126 307.078 163.345C306.77 163.561 306.53 163.869 306.358 164.27C306.185 164.668 306.099 165.138 306.099 165.682C306.099 166.239 306.184 166.719 306.353 167.124C306.522 167.528 306.76 167.841 307.069 168.063C307.38 168.285 307.746 168.396 308.167 168.396C308.449 168.396 308.704 168.345 308.933 168.242C309.165 168.136 309.359 167.985 309.515 167.79C309.674 167.594 309.785 167.359 309.848 167.084H311.294C311.241 167.578 311.081 168.018 310.812 168.406C310.544 168.794 310.184 169.099 309.733 169.321C309.286 169.543 308.761 169.654 308.157 169.654ZM316.175 169.654C315.423 169.654 314.775 169.493 314.231 169.172C313.691 168.847 313.273 168.391 312.979 167.805C312.687 167.215 312.541 166.524 312.541 165.732C312.541 164.949 312.687 164.26 312.979 163.663C313.273 163.067 313.684 162.601 314.211 162.266C314.742 161.932 315.362 161.764 316.071 161.764C316.502 161.764 316.919 161.835 317.324 161.978C317.728 162.121 318.091 162.344 318.412 162.649C318.734 162.954 318.988 163.35 319.173 163.837C319.359 164.321 319.452 164.91 319.452 165.602V166.129H313.381V165.016H317.995C317.995 164.625 317.915 164.278 317.756 163.977C317.597 163.672 317.373 163.431 317.085 163.256C316.8 163.08 316.465 162.992 316.081 162.992C315.663 162.992 315.299 163.095 314.987 163.3C314.679 163.503 314.44 163.768 314.271 164.096C314.105 164.421 314.023 164.774 314.023 165.155V166.025C314.023 166.535 314.112 166.969 314.291 167.327C314.473 167.685 314.727 167.959 315.052 168.148C315.376 168.333 315.756 168.426 316.19 168.426C316.472 168.426 316.729 168.386 316.961 168.307C317.193 168.224 317.393 168.101 317.562 167.939C317.731 167.777 317.861 167.576 317.95 167.337L319.357 167.591C319.244 168.005 319.042 168.368 318.751 168.68C318.462 168.988 318.099 169.228 317.662 169.401C317.228 169.57 316.732 169.654 316.175 169.654Z" fill="#49454E"/>
<path d="M269.842 0.818182V11H268.301V2.35938H268.241L265.805 3.95028V2.47869L268.346 0.818182H269.842ZM276.141 11.169C275.356 11.1657 274.685 10.9586 274.128 10.5476C273.571 10.1366 273.145 9.53835 272.85 8.75284C272.555 7.96733 272.408 7.02107 272.408 5.91406C272.408 4.81037 272.555 3.86742 272.85 3.08523C273.148 2.30303 273.576 1.70644 274.133 1.29545C274.693 0.884469 275.362 0.678977 276.141 0.678977C276.92 0.678977 277.588 0.886126 278.145 1.30043C278.702 1.71141 279.128 2.308 279.423 3.0902C279.721 3.86908 279.87 4.81037 279.87 5.91406C279.87 7.02438 279.723 7.9723 279.428 8.75781C279.133 9.54001 278.707 10.1383 278.15 10.5526C277.593 10.9635 276.924 11.169 276.141 11.169ZM276.141 9.84162C276.831 9.84162 277.369 9.50521 277.757 8.83239C278.148 8.15956 278.344 7.18679 278.344 5.91406C278.344 5.06889 278.254 4.35464 278.075 3.77131C277.9 3.18466 277.646 2.74053 277.315 2.43892C276.987 2.134 276.595 1.98153 276.141 1.98153C275.455 1.98153 274.917 2.3196 274.526 2.99574C274.134 3.67187 273.937 4.64465 273.934 5.91406C273.934 6.76255 274.022 7.48011 274.197 8.06676C274.376 8.65009 274.63 9.09257 274.958 9.39418C275.286 9.69247 275.681 9.84162 276.141 9.84162ZM285.531 0.340908L282.25 12.5312H280.923L284.204 0.340908H285.531ZM286.774 11V9.88636L290.22 6.31676C290.588 5.92898 290.891 5.58925 291.129 5.29759C291.371 5.0026 291.552 4.72254 291.671 4.45739C291.791 4.19223 291.85 3.91051 291.85 3.61222C291.85 3.27415 291.771 2.98248 291.612 2.73722C291.453 2.48864 291.235 2.29806 290.96 2.16548C290.685 2.02959 290.375 1.96165 290.031 1.96165C289.666 1.96165 289.348 2.03622 289.076 2.18537C288.804 2.33452 288.596 2.54498 288.45 2.81676C288.304 3.08854 288.231 3.40672 288.231 3.77131H286.764C286.764 3.15151 286.907 2.60961 287.192 2.1456C287.477 1.68158 287.868 1.32197 288.365 1.06676C288.862 0.808238 289.427 0.678977 290.061 0.678977C290.7 0.678977 291.264 0.806581 291.751 1.06179C292.241 1.31368 292.624 1.65838 292.899 2.09588C293.174 2.53007 293.312 3.0206 293.312 3.56747C293.312 3.94531 293.241 4.31487 293.098 4.67614C292.959 5.0374 292.715 5.4401 292.367 5.88423C292.019 6.32505 291.535 6.86032 290.916 7.49006L288.892 9.60795V9.68253H293.476V11H286.774ZM298.905 11.1392C298.222 11.1392 297.612 11.0215 297.075 10.7862C296.542 10.5509 296.119 10.2244 295.808 9.80682C295.499 9.38589 295.334 8.89867 295.311 8.34517H296.872C296.892 8.64678 296.993 8.90862 297.175 9.13068C297.36 9.34943 297.602 9.51847 297.901 9.63778C298.199 9.7571 298.53 9.81676 298.895 9.81676C299.296 9.81676 299.651 9.74716 299.959 9.60795C300.271 9.46875 300.514 9.27486 300.69 9.02628C300.865 8.77438 300.953 8.48438 300.953 8.15625C300.953 7.81487 300.865 7.51491 300.69 7.25639C300.517 6.99455 300.264 6.78906 299.929 6.63991C299.598 6.49077 299.197 6.41619 298.726 6.41619H297.866V5.16335H298.726C299.104 5.16335 299.435 5.09541 299.72 4.95952C300.009 4.82363 300.234 4.63471 300.396 4.39276C300.559 4.14749 300.64 3.8608 300.64 3.53267C300.64 3.2178 300.569 2.94437 300.426 2.71236C300.287 2.47704 300.088 2.29309 299.83 2.16051C299.575 2.02794 299.273 1.96165 298.925 1.96165C298.593 1.96165 298.284 2.02296 297.995 2.1456C297.71 2.26491 297.478 2.43726 297.299 2.66264C297.12 2.88471 297.024 3.15151 297.011 3.46307H295.524C295.541 2.91288 295.703 2.42898 296.012 2.01136C296.323 1.59375 296.734 1.26728 297.244 1.03196C297.755 0.796638 298.322 0.678977 298.945 0.678977C299.598 0.678977 300.161 0.806581 300.635 1.06179C301.112 1.31368 301.48 1.65009 301.739 2.07102C302.001 2.49195 302.13 2.95265 302.127 3.45312C302.13 4.0232 301.971 4.5071 301.649 4.90483C301.331 5.30256 300.907 5.56937 300.377 5.70526V5.7848C301.053 5.88755 301.576 6.15601 301.948 6.5902C302.322 7.02438 302.508 7.56297 302.504 8.20597C302.508 8.7661 302.352 9.26823 302.037 9.71236C301.726 10.1565 301.3 10.5062 300.759 10.7614C300.219 11.0133 299.601 11.1392 298.905 11.1392Z" fill="#CAC4CF"/>
<defs>
<clipPath id="clip0_958_979">
<rect width="308" height="3" fill="white" transform="translate(12 141)"/>
</clipPath>
</defs>
</svg>
