<svg width="34" height="38" viewBox="0 0 34 38" fill="none" xmlns="http://www.w3.org/2000/svg">
<path d="M25.6923 8.50014C26.1679 8.50014 26.5881 8.68251 26.9528 9.04726C27.3176 9.41199 27.5 9.83219 27.5 10.3078V11.9232C27.5 12.0281 27.4865 12.1406 27.4596 12.2606C27.4326 12.3805 27.4025 12.4924 27.3692 12.5963L24.5034 19.3589C24.3601 19.6787 24.1198 19.9488 23.7827 20.1693C23.4455 20.3898 23.0937 20.5001 22.7272 20.5001H12.2115V8.50014L18.0288 2.73286C18.2275 2.53414 18.4577 2.41555 18.7192 2.37709C18.9807 2.33862 19.2314 2.38349 19.4711 2.51171C19.7108 2.63991 19.8865 2.82195 19.998 3.05784C20.1096 3.29374 20.1333 3.53796 20.0692 3.79051L18.9923 8.50014H25.6923ZM13.7115 9.13859V19.0001H22.7307C22.8012 19.0001 22.8734 18.9809 22.9471 18.9424C23.0208 18.9039 23.0769 18.8398 23.1154 18.7501L26 12.0001V10.3078C26 10.2181 25.9711 10.1444 25.9134 10.0867C25.8557 10.029 25.782 10.0001 25.6923 10.0001H17.0961L18.35 4.51934L13.7115 9.13859ZM9.3077 20.5001C8.81058 20.5001 8.38503 20.3231 8.03102 19.9691C7.67701 19.6151 7.5 19.1895 7.5 18.6924V10.3078C7.5 9.81072 7.67701 9.38516 8.03102 9.03116C8.38503 8.67714 8.81058 8.50014 9.3077 8.50014H12.2115V10.0001H9.3077C9.21795 10.0001 9.14423 10.029 9.08653 10.0867C9.02883 10.1444 8.99998 10.2181 8.99998 10.3078V18.6924C8.99998 18.7821 9.02883 18.8559 9.08653 18.9136C9.14423 18.9713 9.21795 19.0001 9.3077 19.0001H12.2115V20.5001H9.3077Z" fill="#CAC4CF"/>
<path d="M4.45881 37V28.2727H7.5696C8.24574 28.2727 8.80682 28.3892 9.25284 28.6222C9.7017 28.8551 10.0369 29.1776 10.2585 29.5895C10.4801 29.9986 10.5909 30.4716 10.5909 31.0085C10.5909 31.5426 10.4787 32.0128 10.2543 32.419C10.0327 32.8224 9.69744 33.1364 9.24858 33.3608C8.80256 33.5852 8.24148 33.6974 7.56534 33.6974H5.20881V32.5639H7.44602C7.87216 32.5639 8.21875 32.5028 8.4858 32.3807C8.75568 32.2585 8.95312 32.081 9.07812 31.848C9.20312 31.6151 9.26562 31.3352 9.26562 31.0085C9.26562 30.679 9.2017 30.3935 9.07386 30.152C8.94886 29.9105 8.75142 29.7259 8.48153 29.598C8.21449 29.4673 7.86364 29.402 7.42898 29.402H5.77557V37H4.45881ZM8.76705 33.0625L10.9233 37H9.4233L7.30966 33.0625H8.76705ZM13.9957 37.1449C13.581 37.1449 13.206 37.0682 12.8707 36.9148C12.5355 36.7585 12.2699 36.5327 12.0739 36.2372C11.8807 35.9418 11.7841 35.5795 11.7841 35.1506C11.7841 34.7812 11.8551 34.4773 11.9972 34.2386C12.1392 34 12.331 33.8111 12.5724 33.6719C12.8139 33.5327 13.0838 33.4276 13.3821 33.3565C13.6804 33.2855 13.9844 33.2315 14.294 33.1946C14.6861 33.1491 15.0043 33.1122 15.2486 33.0838C15.4929 33.0526 15.6705 33.0028 15.7812 32.9347C15.892 32.8665 15.9474 32.7557 15.9474 32.6023V32.5724C15.9474 32.2003 15.8423 31.9119 15.6321 31.7074C15.4247 31.5028 15.1151 31.4006 14.7031 31.4006C14.2741 31.4006 13.9361 31.4957 13.6889 31.6861C13.4446 31.8736 13.2756 32.0824 13.1818 32.3125L11.9844 32.0398C12.1264 31.642 12.3338 31.321 12.6065 31.0767C12.8821 30.8295 13.1989 30.6506 13.5568 30.5398C13.9148 30.4261 14.2912 30.3693 14.6861 30.3693C14.9474 30.3693 15.2244 30.4006 15.517 30.4631C15.8125 30.5227 16.0881 30.6335 16.3438 30.7955C16.6023 30.9574 16.8139 31.1889 16.9787 31.4901C17.1435 31.7884 17.2259 32.1761 17.2259 32.6534V37H15.9815V36.1051H15.9304C15.848 36.2699 15.7244 36.4318 15.5597 36.5909C15.3949 36.75 15.1832 36.8821 14.9247 36.9872C14.6662 37.0923 14.3565 37.1449 13.9957 37.1449ZM14.2727 36.1222C14.625 36.1222 14.9261 36.0526 15.1761 35.9134C15.429 35.7741 15.6207 35.5923 15.7514 35.3679C15.8849 35.1406 15.9517 34.8977 15.9517 34.6392V33.7955C15.9063 33.8409 15.8182 33.8835 15.6875 33.9233C15.5597 33.9602 15.4134 33.9929 15.2486 34.0213C15.0838 34.0469 14.9233 34.071 14.767 34.0938C14.6108 34.1136 14.4801 34.1307 14.375 34.1449C14.1278 34.1761 13.902 34.2287 13.6974 34.3026C13.4957 34.3764 13.3338 34.483 13.2116 34.6222C13.0923 34.7585 13.0327 34.9403 13.0327 35.1676C13.0327 35.483 13.1491 35.7216 13.3821 35.8835C13.6151 36.0426 13.9119 36.1222 14.2727 36.1222ZM21.9783 30.4545V31.4773H18.4031V30.4545H21.9783ZM19.3619 28.8864H20.636V35.0781C20.636 35.3253 20.6729 35.5114 20.7468 35.6364C20.8207 35.7585 20.9158 35.8423 21.0323 35.8878C21.1516 35.9304 21.2809 35.9517 21.4201 35.9517C21.5224 35.9517 21.6119 35.9446 21.6886 35.9304C21.7653 35.9162 21.8249 35.9048 21.8675 35.8963L22.0977 36.9489C22.0238 36.9773 21.9187 37.0057 21.7823 37.0341C21.646 37.0653 21.4755 37.0824 21.271 37.0852C20.9357 37.0909 20.6232 37.0312 20.3335 36.9062C20.0437 36.7812 19.8093 36.5881 19.6303 36.3267C19.4513 36.0653 19.3619 35.7372 19.3619 35.3423V28.8864ZM26.1385 37.1321C25.4936 37.1321 24.9382 36.9943 24.4723 36.7188C24.0092 36.4403 23.6513 36.0497 23.3984 35.5469C23.1484 35.0412 23.0234 34.4489 23.0234 33.7699C23.0234 33.0994 23.1484 32.5085 23.3984 31.9972C23.6513 31.4858 24.0036 31.0866 24.4553 30.7997C24.9098 30.5128 25.4411 30.3693 26.049 30.3693C26.4183 30.3693 26.7763 30.4304 27.1229 30.5526C27.4695 30.6747 27.7805 30.8665 28.0561 31.1278C28.3317 31.3892 28.549 31.7287 28.7081 32.1463C28.8672 32.5611 28.9467 33.0653 28.9467 33.6591V34.1108H23.7436V33.1562H27.6982C27.6982 32.821 27.63 32.5241 27.4936 32.2656C27.3572 32.0043 27.1655 31.7983 26.9183 31.6477C26.674 31.4972 26.3871 31.4219 26.0575 31.4219C25.6996 31.4219 25.3871 31.5099 25.12 31.6861C24.8558 31.8594 24.6513 32.0866 24.5064 32.3679C24.3643 32.6463 24.2933 32.9489 24.2933 33.2756V34.0213C24.2933 34.4588 24.37 34.831 24.5234 35.1378C24.6797 35.4446 24.897 35.679 25.1754 35.8409C25.4538 36 25.7791 36.0795 26.1513 36.0795C26.3928 36.0795 26.6129 36.0455 26.8118 35.9773C27.0107 35.9062 27.1825 35.8011 27.3274 35.6619C27.4723 35.5227 27.5831 35.3509 27.6598 35.1463L28.8658 35.3636C28.7692 35.7187 28.5959 36.0298 28.3459 36.2969C28.0987 36.5611 27.7876 36.767 27.4126 36.9148C27.0405 37.0597 26.6158 37.1321 26.1385 37.1321Z" fill="#CAC4CF"/>
</svg>
