<svg width="34" height="38" viewBox="0 0 34 38" fill="none" xmlns="http://www.w3.org/2000/svg">
<path d="M25.3639 13.0237L9.44333 19.5166C9.0997 19.6496 8.77324 19.6209 8.46395 19.4307C8.15465 19.2404 8 18.9642 8 18.6021V5.59521C8 5.23307 8.15465 4.95687 8.46395 4.76661C8.77324 4.57636 9.0997 4.54772 9.44333 4.68069L25.3639 11.1735C25.788 11.3546 26 11.663 26 12.0986C26 12.5343 25.788 12.8427 25.3639 13.0237ZM9.71093 17.6155L23.2275 12.0986L9.71093 6.58181V10.6558L13.8091 11.6117C14.3243 11.7319 14.3243 12.4654 13.8091 12.5856L9.71093 13.5415V17.6155Z" fill="#CAC4CF"/>
<path d="M5.71875 30.5653C5.6733 30.1619 5.4858 29.8494 5.15625 29.6278C4.8267 29.4034 4.41193 29.2912 3.91193 29.2912C3.55398 29.2912 3.24432 29.348 2.98295 29.4616C2.72159 29.5724 2.51847 29.7259 2.37358 29.9219C2.23153 30.1151 2.16051 30.3352 2.16051 30.5824C2.16051 30.7898 2.20881 30.9687 2.3054 31.1193C2.40483 31.2699 2.53409 31.3963 2.69318 31.4986C2.85511 31.598 3.02841 31.6818 3.21307 31.75C3.39773 31.8153 3.57528 31.8693 3.74574 31.9119L4.59801 32.1335C4.87642 32.2017 5.16193 32.294 5.45455 32.4105C5.74716 32.527 6.01847 32.6804 6.26847 32.8707C6.51847 33.0611 6.72017 33.2969 6.87358 33.5781C7.02983 33.8594 7.10795 34.196 7.10795 34.5881C7.10795 35.0824 6.98011 35.5213 6.72443 35.9048C6.47159 36.2884 6.10369 36.5909 5.62074 36.8125C5.14063 37.0341 4.55966 37.1449 3.87784 37.1449C3.22443 37.1449 2.65909 37.0412 2.18182 36.8338C1.70455 36.6264 1.33097 36.3324 1.06108 35.9517C0.791193 35.5682 0.642045 35.1136 0.613636 34.5881H1.93466C1.96023 34.9034 2.0625 35.1662 2.24148 35.3764C2.4233 35.5838 2.65483 35.7386 2.93608 35.8409C3.22017 35.9403 3.53125 35.9901 3.86932 35.9901C4.24148 35.9901 4.57244 35.9318 4.86222 35.8153C5.15483 35.696 5.38494 35.5312 5.55256 35.321C5.72017 35.108 5.80398 34.8594 5.80398 34.5753C5.80398 34.3168 5.73011 34.1051 5.58239 33.9403C5.4375 33.7756 5.24006 33.6392 4.99006 33.5312C4.7429 33.4233 4.46307 33.3281 4.15057 33.2457L3.11932 32.9645C2.42045 32.7741 1.86648 32.4943 1.45739 32.125C1.05114 31.7557 0.848011 31.267 0.848011 30.6591C0.848011 30.1562 0.984375 29.7173 1.2571 29.3423C1.52983 28.9673 1.89915 28.6761 2.36506 28.4688C2.83097 28.2585 3.35653 28.1534 3.94176 28.1534C4.53267 28.1534 5.05398 28.2571 5.50568 28.4645C5.96023 28.6719 6.31818 28.9574 6.57955 29.321C6.84091 29.6818 6.97727 30.0966 6.98864 30.5653H5.71875ZM9.85334 33.1136V37H8.57919V28.2727H9.83629V31.5199H9.91726C10.0707 31.1676 10.305 30.8878 10.6204 30.6804C10.9357 30.473 11.3477 30.3693 11.8562 30.3693C12.305 30.3693 12.6971 30.4616 13.0323 30.6463C13.3704 30.831 13.6317 31.1065 13.8164 31.473C14.0039 31.8366 14.0977 32.2912 14.0977 32.8366V37H12.8235V32.9901C12.8235 32.5099 12.6999 32.1378 12.4528 31.8736C12.2056 31.6065 11.8619 31.473 11.4215 31.473C11.1204 31.473 10.8505 31.5369 10.6119 31.6648C10.3761 31.7926 10.19 31.9801 10.0536 32.2273C9.9201 32.4716 9.85334 32.767 9.85334 33.1136ZM17.7028 37.1449C17.288 37.1449 16.913 37.0682 16.5778 36.9148C16.2425 36.7585 15.9769 36.5327 15.7809 36.2372C15.5877 35.9418 15.4911 35.5795 15.4911 35.1506C15.4911 34.7812 15.5621 34.4773 15.7042 34.2386C15.8462 34 16.038 33.8111 16.2795 33.6719C16.521 33.5327 16.7908 33.4276 17.0891 33.3565C17.3874 33.2855 17.6914 33.2315 18.0011 33.1946C18.3931 33.1491 18.7113 33.1122 18.9556 33.0838C19.1999 33.0526 19.3775 33.0028 19.4883 32.9347C19.5991 32.8665 19.6545 32.7557 19.6545 32.6023V32.5724C19.6545 32.2003 19.5494 31.9119 19.3391 31.7074C19.1317 31.5028 18.8221 31.4006 18.4102 31.4006C17.9812 31.4006 17.6431 31.4957 17.396 31.6861C17.1516 31.8736 16.9826 32.0824 16.8888 32.3125L15.6914 32.0398C15.8335 31.642 16.0408 31.321 16.3136 31.0767C16.5891 30.8295 16.9059 30.6506 17.2638 30.5398C17.6218 30.4261 17.9982 30.3693 18.3931 30.3693C18.6545 30.3693 18.9315 30.4006 19.2241 30.4631C19.5195 30.5227 19.7951 30.6335 20.0508 30.7955C20.3093 30.9574 20.521 31.1889 20.6857 31.4901C20.8505 31.7884 20.9329 32.1761 20.9329 32.6534V37H19.6886V36.1051H19.6374C19.555 36.2699 19.4315 36.4318 19.2667 36.5909C19.1019 36.75 18.8903 36.8821 18.6317 36.9872C18.3732 37.0923 18.0636 37.1449 17.7028 37.1449ZM17.9798 36.1222C18.332 36.1222 18.6332 36.0526 18.8832 35.9134C19.136 35.7741 19.3278 35.5923 19.4585 35.3679C19.592 35.1406 19.6587 34.8977 19.6587 34.6392V33.7955C19.6133 33.8409 19.5252 33.8835 19.3945 33.9233C19.2667 33.9602 19.1204 33.9929 18.9556 34.0213C18.7908 34.0469 18.6303 34.071 18.4741 34.0938C18.3178 34.1136 18.1871 34.1307 18.082 34.1449C17.8349 34.1761 17.609 34.2287 17.4045 34.3026C17.2028 34.3764 17.0408 34.483 16.9187 34.6222C16.7994 34.7585 16.7397 34.9403 16.7397 35.1676C16.7397 35.483 16.8562 35.7216 17.0891 35.8835C17.3221 36.0426 17.619 36.1222 17.9798 36.1222ZM22.63 37V30.4545H23.8615V31.4943H23.9297C24.049 31.142 24.2592 30.8651 24.5604 30.6634C24.8643 30.4588 25.2081 30.3565 25.5916 30.3565C25.6712 30.3565 25.7649 30.3594 25.8729 30.3651C25.9837 30.3707 26.0703 30.3778 26.1328 30.3864V31.6051C26.0817 31.5909 25.9908 31.5753 25.8601 31.5582C25.7294 31.5384 25.5987 31.5284 25.468 31.5284C25.1669 31.5284 24.8984 31.5923 24.6626 31.7202C24.4297 31.8452 24.245 32.0199 24.1087 32.2443C23.9723 32.4659 23.9041 32.7187 23.9041 33.0028V37H22.63ZM29.8221 37.1321C29.1772 37.1321 28.6218 36.9943 28.1559 36.7188C27.6928 36.4403 27.3349 36.0497 27.082 35.5469C26.832 35.0412 26.707 34.4489 26.707 33.7699C26.707 33.0994 26.832 32.5085 27.082 31.9972C27.3349 31.4858 27.6871 31.0866 28.1388 30.7997C28.5934 30.5128 29.1246 30.3693 29.7326 30.3693C30.1019 30.3693 30.4599 30.4304 30.8065 30.5526C31.1531 30.6747 31.4641 30.8665 31.7397 31.1278C32.0153 31.3892 32.2326 31.7287 32.3917 32.1463C32.5508 32.5611 32.6303 33.0653 32.6303 33.6591V34.1108H27.4272V33.1562H31.3817C31.3817 32.821 31.3136 32.5241 31.1772 32.2656C31.0408 32.0043 30.8491 31.7983 30.6019 31.6477C30.3576 31.4972 30.0707 31.4219 29.7411 31.4219C29.3832 31.4219 29.0707 31.5099 28.8036 31.6861C28.5394 31.8594 28.3349 32.0866 28.19 32.3679C28.0479 32.6463 27.9769 32.9489 27.9769 33.2756V34.0213C27.9769 34.4588 28.0536 34.831 28.207 35.1378C28.3633 35.4446 28.5806 35.679 28.859 35.8409C29.1374 36 29.4627 36.0795 29.8349 36.0795C30.0763 36.0795 30.2965 36.0455 30.4954 35.9773C30.6942 35.9062 30.8661 35.8011 31.011 35.6619C31.1559 35.5227 31.2667 35.3509 31.3434 35.1463L32.5494 35.3636C32.4528 35.7187 32.2795 36.0298 32.0295 36.2969C31.7823 36.5611 31.4712 36.767 31.0962 36.9148C30.7241 37.0597 30.2994 37.1321 29.8221 37.1321Z" fill="#CAC4CF"/>
</svg>
