<svg width="106" height="40" viewBox="0 0 106 40" fill="none" xmlns="http://www.w3.org/2000/svg">
<rect x="0.75" y="0.75" width="104.5" height="38.5" rx="19.25" fill="#6D23F9"/>
<rect x="0.75" y="0.75" width="104.5" height="38.5" rx="19.25" stroke="#6D23F9" stroke-width="1.5"/>
<path d="M11.1186 25V14.8182H12.6548V23.6776H17.2685V25H11.1186ZM22.1183 25.1541C21.4023 25.1541 20.7776 24.9901 20.244 24.6619C19.7103 24.3338 19.296 23.8748 19.0011 23.2848C18.7061 22.6948 18.5586 22.0054 18.5586 21.2166C18.5586 20.4245 18.7061 19.7318 19.0011 19.1385C19.296 18.5452 19.7103 18.0845 20.244 17.7564C20.7776 17.4283 21.4023 17.2642 22.1183 17.2642C22.8342 17.2642 23.4589 17.4283 23.9925 17.7564C24.5262 18.0845 24.9405 18.5452 25.2354 19.1385C25.5304 19.7318 25.6779 20.4245 25.6779 21.2166C25.6779 22.0054 25.5304 22.6948 25.2354 23.2848C24.9405 23.8748 24.5262 24.3338 23.9925 24.6619C23.4589 24.9901 22.8342 25.1541 22.1183 25.1541ZM22.1232 23.9062C22.5872 23.9062 22.9717 23.7836 23.2766 23.5384C23.5816 23.2931 23.8069 22.9666 23.9528 22.5589C24.1019 22.1513 24.1765 21.7022 24.1765 21.2116C24.1765 20.7244 24.1019 20.277 23.9528 19.8693C23.8069 19.4583 23.5816 19.1286 23.2766 18.88C22.9717 18.6314 22.5872 18.5071 22.1232 18.5071C21.6559 18.5071 21.2681 18.6314 20.9599 18.88C20.6549 19.1286 20.4279 19.4583 20.2788 19.8693C20.1329 20.277 20.06 20.7244 20.06 21.2116C20.06 21.7022 20.1329 22.1513 20.2788 22.5589C20.4279 22.9666 20.6549 23.2931 20.9599 23.5384C21.2681 23.7836 21.6559 23.9062 22.1232 23.9062ZM28.7603 25L26.5131 17.3636H28.0494L29.5458 22.9716H29.6204L31.1218 17.3636H32.658L34.1495 22.9467H34.2241L35.7106 17.3636H37.2468L35.0046 25H33.4883L31.9371 19.4865H31.8228L30.2717 25H28.7603ZM41.7163 25.1541C40.9639 25.1541 40.3159 24.9934 39.7724 24.6719C39.2321 24.3471 38.8145 23.8913 38.5195 23.3047C38.2279 22.7147 38.082 22.0237 38.082 21.2315C38.082 20.4493 38.2279 19.7599 38.5195 19.1634C38.8145 18.5668 39.2255 18.1011 39.7525 17.7663C40.2828 17.4316 40.9026 17.2642 41.6119 17.2642C42.0427 17.2642 42.4603 17.3355 42.8647 17.478C43.2691 17.6205 43.632 17.8442 43.9535 18.1491C44.275 18.4541 44.5285 18.8501 44.7141 19.3374C44.8997 19.8213 44.9925 20.4096 44.9925 21.1023V21.6293H38.9222V20.5156H43.5359C43.5359 20.1245 43.4563 19.7782 43.2972 19.4766C43.1381 19.1716 42.9144 18.9313 42.6261 18.7557C42.341 18.58 42.0063 18.4922 41.6218 18.4922C41.2042 18.4922 40.8396 18.5949 40.5281 18.8004C40.2198 19.0026 39.9812 19.2678 39.8121 19.5959C39.6464 19.9207 39.5636 20.2737 39.5636 20.6548V21.5249C39.5636 22.0353 39.6531 22.4695 39.832 22.8274C40.0143 23.1854 40.2679 23.4588 40.5927 23.6477C40.9175 23.8333 41.297 23.9261 41.7312 23.9261C42.0129 23.9261 42.2698 23.8864 42.5018 23.8068C42.7338 23.724 42.9343 23.6013 43.1033 23.4389C43.2724 23.2765 43.4016 23.076 43.4911 22.8374L44.8981 23.0909C44.7854 23.5052 44.5832 23.8681 44.2915 24.1797C44.0032 24.4879 43.6403 24.7282 43.2028 24.9006C42.7686 25.0696 42.2731 25.1541 41.7163 25.1541ZM52.3642 19.228L51.0169 19.4666C50.9605 19.2943 50.871 19.1302 50.7484 18.9744C50.6291 18.8187 50.4667 18.6911 50.2612 18.5916C50.0557 18.4922 49.7988 18.4425 49.4906 18.4425C49.0697 18.4425 48.7183 18.5369 48.4366 18.7259C48.1549 18.9115 48.014 19.1518 48.014 19.4467C48.014 19.7019 48.1085 19.9074 48.2974 20.0632C48.4863 20.219 48.7913 20.3466 49.2122 20.446L50.4252 20.7244C51.1279 20.8868 51.6516 21.1371 51.9963 21.4751C52.341 21.8132 52.5133 22.2524 52.5133 22.7926C52.5133 23.25 52.3807 23.6577 52.1156 24.0156C51.8538 24.3703 51.4875 24.6487 51.0169 24.8509C50.5495 25.053 50.0076 25.1541 49.3912 25.1541C48.536 25.1541 47.8384 24.9718 47.2981 24.6072C46.7579 24.2393 46.4264 23.7173 46.3038 23.0412L47.7406 22.8224C47.8301 23.197 48.014 23.4804 48.2924 23.6726C48.5708 23.8615 48.9338 23.956 49.3812 23.956C49.8684 23.956 50.2579 23.8549 50.5495 23.6527C50.8412 23.4472 50.987 23.197 50.987 22.902C50.987 22.6634 50.8975 22.4628 50.7186 22.3004C50.5429 22.138 50.2728 22.0154 49.9082 21.9325L48.6156 21.6491C47.903 21.4867 47.376 21.2282 47.0346 20.8736C46.6966 20.5189 46.5275 20.0698 46.5275 19.5263C46.5275 19.0755 46.6535 18.6811 46.9054 18.343C47.1573 18.005 47.5053 17.7415 47.9494 17.5526C48.3935 17.3603 48.9023 17.2642 49.4757 17.2642C50.301 17.2642 50.9506 17.4432 51.4245 17.8011C51.8985 18.1558 52.2117 18.6314 52.3642 19.228ZM57.7124 17.3636V18.5568H53.5412V17.3636H57.7124ZM54.6598 15.5341H56.1463V22.7578C56.1463 23.0462 56.1894 23.2633 56.2756 23.4091C56.3617 23.5516 56.4728 23.6494 56.6087 23.7024C56.7479 23.7521 56.8987 23.777 57.0611 23.777C57.1804 23.777 57.2848 23.7687 57.3743 23.7521C57.4638 23.7356 57.5334 23.7223 57.5831 23.7124L57.8516 24.9403C57.7654 24.9735 57.6428 25.0066 57.4837 25.0398C57.3246 25.0762 57.1257 25.0961 56.8871 25.0994C56.496 25.1061 56.1314 25.0365 55.7933 24.8906C55.4553 24.7448 55.1818 24.5194 54.973 24.2145C54.7642 23.9096 54.6598 23.5268 54.6598 23.0661V15.5341ZM63.0618 27.8636V17.3636H64.5135V18.6016H64.6378C64.724 18.4425 64.8482 18.2585 65.0107 18.0497C65.1731 17.8409 65.3984 17.6586 65.6868 17.5028C65.9751 17.3438 66.3563 17.2642 66.8303 17.2642C67.4467 17.2642 67.9969 17.42 68.4808 17.7315C68.9647 18.0431 69.3442 18.4922 69.6193 19.0788C69.8977 19.6655 70.0369 20.3714 70.0369 21.1967C70.0369 22.022 69.8994 22.7296 69.6243 23.3196C69.3492 23.9062 68.9714 24.3587 68.4908 24.6768C68.0102 24.9917 67.4616 25.1491 66.8452 25.1491C66.3812 25.1491 66.0017 25.0713 65.7067 24.9155C65.415 24.7597 65.1863 24.5774 65.0206 24.3686C64.8549 24.1598 64.7273 23.9742 64.6378 23.8118H64.5483V27.8636H63.0618ZM64.5185 21.1818C64.5185 21.7187 64.5964 22.1894 64.7521 22.5938C64.9079 22.9981 65.1333 23.3146 65.4283 23.5433C65.7232 23.7687 66.0845 23.8814 66.5121 23.8814C66.9562 23.8814 67.3274 23.7637 67.6257 23.5284C67.924 23.2898 68.1494 22.9666 68.3018 22.5589C68.4576 22.1513 68.5355 21.6922 68.5355 21.1818C68.5355 20.678 68.4593 20.2256 68.3068 19.8246C68.1577 19.4235 67.9323 19.107 67.6307 18.875C67.3324 18.643 66.9595 18.527 66.5121 18.527C66.0812 18.527 65.7166 18.638 65.4183 18.8601C65.1233 19.0821 64.8996 19.392 64.7472 19.7898C64.5947 20.1875 64.5185 20.6515 64.5185 21.1818ZM71.7024 25V17.3636H73.1392V18.5767H73.2188C73.358 18.1657 73.6032 17.8426 73.9545 17.6072C74.3092 17.3686 74.7102 17.2493 75.1577 17.2493C75.2505 17.2493 75.3598 17.2526 75.4858 17.2592C75.6151 17.2659 75.7161 17.2741 75.7891 17.2841V18.706C75.7294 18.6894 75.6233 18.6712 75.4709 18.6513C75.3184 18.6281 75.166 18.6165 75.0135 18.6165C74.6622 18.6165 74.349 18.6911 74.0739 18.8402C73.8021 18.986 73.5866 19.1899 73.4276 19.4517C73.2685 19.7102 73.1889 20.0052 73.1889 20.3366V25H71.7024ZM77.0755 25V17.3636H78.562V25H77.0755ZM77.8262 16.1854C77.5676 16.1854 77.3456 16.0992 77.16 15.9268C76.9777 15.7512 76.8865 15.5424 76.8865 15.3004C76.8865 15.0552 76.9777 14.8464 77.16 14.674C77.3456 14.4983 77.5676 14.4105 77.8262 14.4105C78.0847 14.4105 78.3051 14.4983 78.4874 14.674C78.673 14.8464 78.7658 15.0552 78.7658 15.3004C78.7658 15.5424 78.673 15.7512 78.4874 15.9268C78.3051 16.0992 78.0847 16.1854 77.8262 16.1854ZM83.7784 25.1541C83.0393 25.1541 82.4029 24.9867 81.8693 24.652C81.339 24.3139 80.9313 23.8482 80.6463 23.255C80.3613 22.6617 80.2188 21.9822 80.2188 21.2166C80.2188 20.4411 80.3646 19.7566 80.6562 19.1634C80.9479 18.5668 81.3589 18.1011 81.8892 17.7663C82.4195 17.4316 83.0443 17.2642 83.7635 17.2642C84.3435 17.2642 84.8606 17.3719 85.3146 17.5874C85.7687 17.7995 86.1349 18.0978 86.4134 18.4822C86.6951 18.8667 86.8625 19.3158 86.9155 19.8295H85.4688C85.3892 19.4716 85.2069 19.1634 84.9219 18.9048C84.6402 18.6463 84.2623 18.517 83.7884 18.517C83.3741 18.517 83.0111 18.6264 82.6996 18.8452C82.3913 19.0606 82.151 19.3688 81.9787 19.7699C81.8063 20.1676 81.7202 20.6383 81.7202 21.1818C81.7202 21.7386 81.8047 22.2192 81.9737 22.6236C82.1428 23.0279 82.3814 23.3411 82.6896 23.5632C83.0012 23.7853 83.3674 23.8963 83.7884 23.8963C84.0701 23.8963 84.3253 23.8449 84.554 23.7422C84.786 23.6361 84.9799 23.4853 85.1357 23.2898C85.2947 23.0942 85.4058 22.8589 85.4688 22.5838H86.9155C86.8625 23.0777 86.7017 23.5185 86.4332 23.9062C86.1648 24.294 85.8052 24.599 85.3544 24.821C84.907 25.0431 84.3816 25.1541 83.7784 25.1541ZM91.7963 25.1541C91.044 25.1541 90.396 24.9934 89.8525 24.6719C89.3122 24.3471 88.8946 23.8913 88.5996 23.3047C88.3079 22.7147 88.1621 22.0237 88.1621 21.2315C88.1621 20.4493 88.3079 19.7599 88.5996 19.1634C88.8946 18.5668 89.3056 18.1011 89.8326 17.7663C90.3629 17.4316 90.9827 17.2642 91.6919 17.2642C92.1228 17.2642 92.5404 17.3355 92.9448 17.478C93.3491 17.6205 93.7121 17.8442 94.0336 18.1491C94.3551 18.4541 94.6086 18.8501 94.7942 19.3374C94.9798 19.8213 95.0726 20.4096 95.0726 21.1023V21.6293H89.0023V20.5156H93.6159C93.6159 20.1245 93.5364 19.7782 93.3773 19.4766C93.2182 19.1716 92.9945 18.9313 92.7061 18.7557C92.4211 18.58 92.0864 18.4922 91.7019 18.4922C91.2843 18.4922 90.9197 18.5949 90.6081 18.8004C90.2999 19.0026 90.0613 19.2678 89.8922 19.5959C89.7265 19.9207 89.6436 20.2737 89.6436 20.6548V21.5249C89.6436 22.0353 89.7331 22.4695 89.9121 22.8274C90.0944 23.1854 90.348 23.4588 90.6728 23.6477C90.9976 23.8333 91.3771 23.9261 91.8113 23.9261C92.093 23.9261 92.3498 23.8864 92.5819 23.8068C92.8139 23.724 93.0144 23.6013 93.1834 23.4389C93.3525 23.2765 93.4817 23.076 93.5712 22.8374L94.9782 23.0909C94.8655 23.5052 94.6633 23.8681 94.3716 24.1797C94.0833 24.4879 93.7203 24.7282 93.2828 24.9006C92.8487 25.0696 92.3532 25.1541 91.7963 25.1541Z" fill="white"/>
</svg>
