<svg width="150" height="20" viewBox="0 0 150 20" fill="none" xmlns="http://www.w3.org/2000/svg">
<path d="M5.83602 17.0995L0 2.37842H4.18353L6.71456 9.23424C6.8819 9.66886 7.02135 10.0439 7.13291 10.3593C7.24447 10.6748 7.34209 10.9692 7.42576 11.2426C7.50943 11.516 7.5931 11.8034 7.67677 12.1049C7.76044 12.4063 7.84411 12.7673 7.92778 13.1879H7.2375C7.36301 12.6411 7.48154 12.1785 7.5931 11.7999C7.70466 11.4214 7.82668 11.0428 7.95916 10.6643C8.09164 10.2858 8.26246 9.80906 8.47164 9.23424L10.9608 2.37842H15.0398L9.16192 17.0995H5.83602Z" fill="black"/>
<path d="M16.6924 17.0995V2.37842H27.3395V5.80633H20.6667V13.6716H27.6532V17.0995H16.6924ZM18.6586 11.2531V8.0145H26.5028V11.2531H18.6586Z" fill="black"/>
<path d="M30.4773 17.0995V2.37842H41.1244V5.80633H34.4516V13.6716H41.4381V17.0995H30.4773ZM32.4436 11.2531V8.0145H40.2877V11.2531H32.4436Z" fill="black"/>
<path d="M44.2615 17.0995V2.37842H47.9639L55.0759 12.1785L54.2183 11.9682C54.1485 11.4494 54.0893 10.9797 54.0405 10.5591C53.9917 10.1385 53.9498 9.73897 53.915 9.36042C53.8801 8.98188 53.8522 8.60333 53.8313 8.22479C53.8104 7.84625 53.7999 7.43266 53.7999 6.98402V2.37842H57.7952V17.0995H54.0509L46.3951 6.58444L47.8384 6.94195C47.9081 7.51678 47.9674 8.01449 48.0162 8.43509C48.065 8.8557 48.1033 9.23424 48.1312 9.57072C48.1591 9.9072 48.1835 10.2297 48.2044 10.5381C48.2254 10.8465 48.2393 11.176 48.2463 11.5265C48.2533 11.877 48.2567 12.2766 48.2567 12.7252V17.0995H44.2615Z" fill="black"/>
<path d="M86.3057 17.0995L80.4697 2.37842H84.6533L87.1843 9.23424C87.3516 9.66886 87.4911 10.0439 87.6026 10.3593C87.7142 10.6748 87.8118 10.9692 87.8955 11.2426C87.9792 11.516 88.0628 11.8034 88.1465 12.1049C88.2302 12.4063 88.3138 12.7673 88.3975 13.1879H87.7072C87.8327 12.6411 87.9513 12.1785 88.0628 11.7999C88.1744 11.4214 88.2964 11.0428 88.4289 10.6643C88.5614 10.2858 88.7322 9.80906 88.9414 9.23424L91.4306 2.37842H95.5095L89.6317 17.0995H86.3057Z" fill="black"/>
<path d="M97.1619 17.0995V2.37842H107.809V5.80633H101.136V13.6716H108.123V17.0995H97.1619ZM99.1281 11.2531V8.0145H106.972V11.2531H99.1281Z" fill="black"/>
<path d="M110.919 17.0985V2.37744H117.675C118.665 2.37744 119.551 2.58073 120.332 2.98731C121.113 3.39389 121.723 3.94769 122.162 4.6487C122.601 5.3497 122.821 6.15586 122.821 7.06716C122.821 8.04857 122.601 8.91781 122.162 9.6749C121.723 10.432 121.113 11.0243 120.332 11.4519C119.551 11.8796 118.665 12.0934 117.675 12.0934H114.809V17.0985H110.919ZM114.809 9.10709H117.11C117.473 9.10709 117.776 9.03348 118.02 8.88627C118.264 8.73906 118.453 8.53577 118.585 8.2764C118.718 8.01703 118.784 7.71208 118.784 7.36158C118.784 7.01108 118.714 6.73419 118.575 6.48884C118.435 6.24348 118.229 6.05421 117.957 5.92102C117.686 5.78783 117.347 5.72123 116.943 5.72123H114.809V9.10709ZM118.763 17.0985L115.039 10.453L119.286 9.92726L123.427 17.0985H118.763Z" fill="black"/>
<path d="M130.713 17.3099C129.668 17.3099 128.737 17.1908 127.921 16.9524C127.105 16.7141 126.387 16.3706 125.766 15.922C125.146 15.4733 124.592 14.9476 124.104 14.3447L126.53 11.5897C127.227 12.501 127.945 13.1074 128.684 13.4088C129.424 13.7103 130.142 13.861 130.839 13.861C131.146 13.861 131.425 13.8294 131.676 13.7664C131.927 13.7033 132.118 13.5981 132.251 13.4509C132.383 13.3037 132.45 13.1179 132.45 12.8936C132.45 12.6973 132.394 12.5291 132.282 12.3889C132.171 12.2487 132.017 12.126 131.822 12.0209C131.627 11.9157 131.411 11.8211 131.174 11.737C130.937 11.6528 130.7 11.5862 130.462 11.5372C130.225 11.4881 129.995 11.4355 129.772 11.3794C128.949 11.1972 128.231 10.9658 127.618 10.6854C127.004 10.405 126.492 10.0721 126.08 9.68651C125.669 9.30096 125.362 8.85583 125.16 8.3511C124.958 7.84638 124.857 7.27856 124.857 6.64766C124.857 5.96067 125.017 5.32977 125.338 4.75495C125.658 4.18012 126.084 3.68591 126.614 3.27232C127.144 2.85873 127.754 2.54328 128.444 2.32597C129.134 2.10866 129.856 2 130.609 2C131.641 2 132.519 2.10165 133.245 2.30494C133.97 2.50823 134.58 2.79915 135.075 3.17769C135.57 3.55623 135.999 3.99786 136.361 4.50258L133.893 6.90002C133.6 6.57756 133.283 6.31118 132.941 6.10087C132.6 5.89057 132.247 5.73284 131.885 5.62769C131.522 5.52254 131.153 5.46997 130.776 5.46997C130.428 5.46997 130.124 5.50502 129.866 5.57512C129.608 5.64522 129.41 5.74687 129.27 5.88006C129.131 6.01325 129.061 6.192 129.061 6.41632C129.061 6.61261 129.138 6.78435 129.291 6.93156C129.444 7.07877 129.64 7.20146 129.877 7.2996C130.114 7.39774 130.368 7.47835 130.64 7.54144C130.912 7.60453 131.16 7.6571 131.383 7.69916C132.15 7.85338 132.851 8.05318 133.485 8.29853C134.12 8.54388 134.674 8.85232 135.148 9.22385C135.622 9.59538 135.985 10.0475 136.236 10.5803C136.487 11.1131 136.612 11.7369 136.612 12.452C136.612 13.5035 136.351 14.3903 135.828 15.1123C135.305 15.8343 134.601 16.3811 133.715 16.7526C132.83 17.1242 131.829 17.3099 130.713 17.3099Z" fill="black"/>
<path d="M139.039 17.0995V2.37842H149.686V5.80633H143.013V13.6716H150V17.0995H139.039ZM141.005 11.2531V8.0145H148.849V11.2531H141.005Z" fill="black"/>
<path fill-rule="evenodd" clip-rule="evenodd" d="M72.5181 2.33363C72.5181 3.62246 71.4925 4.66726 70.2275 4.66726C68.9624 4.66726 67.9368 3.62246 67.9368 2.33363C67.9368 1.0448 68.9624 0 70.2275 0C71.4925 0 72.5181 1.0448 72.5181 2.33363ZM64.6579 6.99637C65.923 6.99637 66.9485 5.95156 66.9485 4.66273C66.9485 3.3739 65.923 2.3291 64.6579 2.3291C63.3928 2.3291 62.3672 3.3739 62.3672 4.66273C62.3672 5.95156 63.3928 6.99637 64.6579 6.99637ZM65.2544 10.2219C65.2544 11.5107 64.2288 12.5555 62.9637 12.5555C61.6986 12.5555 60.6731 11.5107 60.6731 10.2219C60.6731 8.93302 61.6986 7.88822 62.9637 7.88822C64.2288 7.88822 65.2544 8.93302 65.2544 10.2219ZM65.1154 17.8838C66.3804 17.8838 67.406 16.839 67.406 15.5502C67.406 14.2614 66.3804 13.2166 65.1154 13.2166C63.8503 13.2166 62.8247 14.2614 62.8247 15.5502C62.8247 16.839 63.8503 17.8838 65.1154 17.8838ZM78.0925 15.5502C78.0925 16.839 77.067 17.8838 75.8019 17.8838C74.5368 17.8838 73.5113 16.839 73.5113 15.5502C73.5113 14.2614 74.5368 13.2166 75.8019 13.2166C77.067 13.2166 78.0925 14.2614 78.0925 15.5502ZM72.7493 17.6664C72.7493 18.9552 71.7237 20 70.4586 20C69.1936 20 68.168 18.9552 68.168 17.6664C68.168 16.3776 69.1936 15.3328 70.4586 15.3328C71.7237 15.3328 72.7493 16.3776 72.7493 17.6664ZM75.8019 7.12063C77.067 7.12063 78.0925 6.07583 78.0925 4.787C78.0925 3.49817 77.067 2.45337 75.8019 2.45337C74.5368 2.45337 73.5113 3.49817 73.5113 4.787C73.5113 6.07583 74.5368 7.12063 75.8019 7.12063ZM80.5655 10.2218C80.5655 11.5106 79.54 12.5554 78.2749 12.5554C77.0098 12.5554 75.9843 11.5106 75.9843 10.2218C75.9843 8.93299 77.0098 7.88818 78.2749 7.88818C79.54 7.88818 80.5655 8.93299 80.5655 10.2218Z" fill="url(#paint0_linear_1373_115)"/>
<defs>
<linearGradient id="paint0_linear_1373_115" x1="79.708" y1="1.29284" x2="64.6685" y2="16.3617" gradientUnits="userSpaceOnUse">
<stop stop-color="#8F00FF"/>
<stop offset="1" stop-color="#E93B5C"/>
</linearGradient>
</defs>
</svg>
