<svg width="82" height="50" viewBox="0 0 82 50" fill="none" xmlns="http://www.w3.org/2000/svg">
<rect width="82" height="50" fill="white"/>
<path d="M14.4101 41L11.3581 31.2H13.2621L14.9981 36.982C15.0541 37.1593 15.1055 37.3553 15.1521 37.57C15.1988 37.7847 15.2408 37.9993 15.2781 38.214C15.3155 38.4193 15.3481 38.6107 15.3761 38.788C15.4041 38.9653 15.4321 39.1147 15.4601 39.236L15.0821 39.222C15.1941 38.7833 15.2828 38.4287 15.3481 38.158C15.4135 37.8873 15.4695 37.6633 15.5161 37.486C15.5721 37.2993 15.6281 37.1267 15.6841 36.968L17.3361 32.74H18.8901L20.5001 36.968C20.5935 37.2293 20.6775 37.4813 20.7521 37.724C20.8268 37.9573 20.8875 38.1907 20.9341 38.424C20.9901 38.648 21.0415 38.8813 21.0881 39.124L20.7521 39.194C20.7895 38.97 20.8175 38.788 20.8361 38.648C20.8548 38.508 20.8735 38.382 20.8921 38.27C20.9108 38.158 20.9295 38.0507 20.9481 37.948C20.9668 37.836 20.9948 37.7053 21.0321 37.556C21.0788 37.3973 21.1348 37.1967 21.2001 36.954L22.9221 31.2H24.8121L21.7461 41H20.4301L17.9381 35.036L18.1061 35.092L15.7401 41H14.4101ZM26.2558 41V33.622H27.9778V41H26.2558ZM27.0958 32.054C26.7504 32.054 26.4798 31.97 26.2838 31.802C26.0971 31.6247 26.0038 31.3773 26.0038 31.06C26.0038 30.7613 26.1018 30.5187 26.2978 30.332C26.4938 30.1453 26.7598 30.052 27.0958 30.052C27.4504 30.052 27.7211 30.1407 27.9078 30.318C28.1038 30.486 28.2018 30.7333 28.2018 31.06C28.2018 31.3493 28.1038 31.5873 27.9078 31.774C27.7118 31.9607 27.4411 32.054 27.0958 32.054ZM30.1613 41V33.622H31.8413L31.8693 35.134L31.5473 35.302C31.6407 34.966 31.8227 34.6627 32.0933 34.392C32.364 34.112 32.686 33.888 33.0593 33.72C33.4327 33.552 33.8153 33.468 34.2073 33.468C34.7673 33.468 35.234 33.58 35.6073 33.804C35.99 34.028 36.2747 34.364 36.4613 34.812C36.6573 35.26 36.7553 35.82 36.7553 36.492V41H35.0333V36.618C35.0333 36.2447 34.982 35.9367 34.8793 35.694C34.7767 35.442 34.618 35.26 34.4033 35.148C34.1887 35.0267 33.9273 34.9707 33.6193 34.98C33.3673 34.98 33.134 35.022 32.9193 35.106C32.714 35.1807 32.532 35.2927 32.3733 35.442C32.224 35.582 32.1027 35.7453 32.0093 35.932C31.9253 36.1187 31.8833 36.324 31.8833 36.548V41H31.0293C30.8613 41 30.7027 41 30.5533 41C30.4133 41 30.2827 41 30.1613 41ZM42.1506 41.14C41.3759 41.14 40.6899 40.9767 40.0926 40.65C39.5046 40.3233 39.0426 39.88 38.7066 39.32C38.3799 38.7507 38.2166 38.102 38.2166 37.374C38.2166 36.7953 38.3099 36.268 38.4966 35.792C38.6832 35.316 38.9399 34.9053 39.2666 34.56C39.6026 34.2053 39.9992 33.9347 40.4566 33.748C40.9232 33.552 41.4319 33.454 41.9826 33.454C42.4679 33.454 42.9206 33.5473 43.3406 33.734C43.7606 33.9207 44.1246 34.1773 44.4326 34.504C44.7406 34.8213 44.9739 35.204 45.1326 35.652C45.3006 36.0907 45.3799 36.5713 45.3706 37.094L45.3566 37.696H39.3786L39.0566 36.52H43.9146L43.6906 36.758V36.45C43.6626 36.1607 43.5692 35.9087 43.4106 35.694C43.2519 35.47 43.0466 35.2973 42.7946 35.176C42.5519 35.0453 42.2812 34.98 41.9826 34.98C41.5252 34.98 41.1379 35.0687 40.8206 35.246C40.5126 35.4233 40.2792 35.68 40.1206 36.016C39.9619 36.3427 39.8826 36.7533 39.8826 37.248C39.8826 37.724 39.9806 38.1393 40.1766 38.494C40.3819 38.8487 40.6666 39.124 41.0306 39.32C41.4039 39.5067 41.8379 39.6 42.3326 39.6C42.6779 39.6 42.9952 39.544 43.2846 39.432C43.5739 39.32 43.8866 39.1193 44.2226 38.83L45.0766 40.02C44.8246 40.2533 44.5352 40.454 44.2086 40.622C43.8912 40.7807 43.5552 40.9067 43.2006 41C42.8459 41.0933 42.4959 41.14 42.1506 41.14ZM46.8957 41V33.622H48.5897L48.6177 35.974L48.3797 35.442C48.4824 35.0687 48.6597 34.7327 48.9117 34.434C49.1637 34.1353 49.453 33.902 49.7797 33.734C50.1157 33.5567 50.4657 33.468 50.8297 33.468C50.9884 33.468 51.1377 33.482 51.2777 33.51C51.427 33.538 51.5484 33.5707 51.6417 33.608L51.1797 35.498C51.077 35.442 50.951 35.3953 50.8017 35.358C50.6524 35.3207 50.503 35.302 50.3537 35.302C50.1204 35.302 49.8964 35.3487 49.6817 35.442C49.4764 35.526 49.2944 35.6473 49.1357 35.806C48.977 35.9647 48.851 36.1513 48.7577 36.366C48.6737 36.5713 48.6317 36.8047 48.6317 37.066V41H46.8957ZM52.9843 41V33.622H54.7063V41H52.9843ZM53.8243 32.054C53.4789 32.054 53.2083 31.97 53.0123 31.802C52.8256 31.6247 52.7323 31.3773 52.7323 31.06C52.7323 30.7613 52.8303 30.5187 53.0263 30.332C53.2223 30.1453 53.4883 30.052 53.8243 30.052C54.1789 30.052 54.4496 30.1407 54.6363 30.318C54.8323 30.486 54.9303 30.7333 54.9303 31.06C54.9303 31.3493 54.8323 31.5873 54.6363 31.774C54.4403 31.9607 54.1696 32.054 53.8243 32.054ZM60.3478 41.14C59.5732 41.14 58.8872 40.9767 58.2898 40.65C57.7018 40.3233 57.2398 39.88 56.9038 39.32C56.5772 38.7507 56.4138 38.102 56.4138 37.374C56.4138 36.7953 56.5072 36.268 56.6938 35.792C56.8805 35.316 57.1372 34.9053 57.4638 34.56C57.7998 34.2053 58.1965 33.9347 58.6538 33.748C59.1205 33.552 59.6292 33.454 60.1798 33.454C60.6652 33.454 61.1178 33.5473 61.5378 33.734C61.9578 33.9207 62.3218 34.1773 62.6298 34.504C62.9378 34.8213 63.1712 35.204 63.3298 35.652C63.4978 36.0907 63.5772 36.5713 63.5678 37.094L63.5538 37.696H57.5758L57.2538 36.52H62.1118L61.8878 36.758V36.45C61.8598 36.1607 61.7665 35.9087 61.6078 35.694C61.4492 35.47 61.2438 35.2973 60.9918 35.176C60.7492 35.0453 60.4785 34.98 60.1798 34.98C59.7225 34.98 59.3352 35.0687 59.0178 35.246C58.7098 35.4233 58.4765 35.68 58.3178 36.016C58.1592 36.3427 58.0798 36.7533 58.0798 37.248C58.0798 37.724 58.1778 38.1393 58.3738 38.494C58.5792 38.8487 58.8638 39.124 59.2278 39.32C59.6012 39.5067 60.0352 39.6 60.5298 39.6C60.8752 39.6 61.1925 39.544 61.4818 39.432C61.7712 39.32 62.0838 39.1193 62.4198 38.83L63.2738 40.02C63.0218 40.2533 62.7325 40.454 62.4058 40.622C62.0885 40.7807 61.7525 40.9067 61.3978 41C61.0432 41.0933 60.6932 41.14 60.3478 41.14ZM67.557 41.14C66.9036 41.14 66.3156 41.0327 65.793 40.818C65.2796 40.594 64.8596 40.2767 64.533 39.866L65.653 38.9C65.933 39.2173 66.2456 39.446 66.591 39.586C66.9363 39.726 67.3003 39.796 67.683 39.796C67.8416 39.796 67.9816 39.7773 68.103 39.74C68.2336 39.7027 68.3456 39.6467 68.439 39.572C68.5323 39.4973 68.6023 39.4133 68.649 39.32C68.705 39.2173 68.733 39.1053 68.733 38.984C68.733 38.76 68.649 38.5827 68.481 38.452C68.3876 38.3867 68.2383 38.3167 68.033 38.242C67.837 38.1673 67.5803 38.0927 67.263 38.018C66.759 37.8873 66.339 37.738 66.003 37.57C65.667 37.3927 65.4056 37.1967 65.219 36.982C65.0603 36.8047 64.939 36.604 64.855 36.38C64.7803 36.156 64.743 35.9133 64.743 35.652C64.743 35.3253 64.813 35.0313 64.953 34.77C65.1023 34.4993 65.303 34.266 65.555 34.07C65.807 33.874 66.101 33.7247 66.437 33.622C66.773 33.5193 67.123 33.468 67.487 33.468C67.8603 33.468 68.2196 33.5147 68.565 33.608C68.9196 33.7013 69.2463 33.8367 69.545 34.014C69.853 34.182 70.1143 34.3873 70.329 34.63L69.377 35.68C69.1996 35.512 69.0036 35.3627 68.789 35.232C68.5836 35.1013 68.3736 34.9987 68.159 34.924C67.9443 34.84 67.7436 34.798 67.557 34.798C67.3796 34.798 67.221 34.8167 67.081 34.854C66.941 34.882 66.8243 34.9287 66.731 34.994C66.6376 35.0593 66.563 35.1433 66.507 35.246C66.4603 35.3393 66.437 35.4513 66.437 35.582C66.4463 35.694 66.4743 35.8013 66.521 35.904C66.577 35.9973 66.6516 36.0767 66.745 36.142C66.8476 36.2073 67.0016 36.282 67.207 36.366C67.4123 36.45 67.6783 36.5293 68.005 36.604C68.4623 36.7253 68.845 36.8607 69.153 37.01C69.461 37.1593 69.7036 37.332 69.881 37.528C70.0583 37.696 70.1843 37.892 70.259 38.116C70.3336 38.34 70.371 38.5873 70.371 38.858C70.371 39.2967 70.245 39.6887 69.993 40.034C69.7503 40.3793 69.4143 40.65 68.985 40.846C68.565 41.042 68.089 41.14 67.557 41.14Z" fill="black"/>
<g clip-path="url(#clip0_1373_376)">
<path d="M51 14.2929V21.2499C50.9988 22.2441 50.6033 23.1973 49.9003 23.9003C49.1973 24.6033 48.2442 24.9987 47.25 24.9999H46.5C46.3011 24.9999 46.1103 24.9209 45.9697 24.7803C45.829 24.6396 45.75 24.4488 45.75 24.2499C45.75 24.051 45.829 23.8602 45.9697 23.7196C46.1103 23.5789 46.3011 23.4999 46.5 23.4999H47.25C47.8467 23.4999 48.419 23.2629 48.841 22.8409C49.263 22.419 49.5 21.8467 49.5 21.2499V14.2929C49.5 13.9246 49.4096 13.5619 49.2368 13.2367C49.0639 12.9115 48.8138 12.6337 48.5085 12.4277L43.2585 8.88542C42.8875 8.63253 42.449 8.49726 42 8.49726C41.551 8.49726 41.1125 8.63253 40.7415 8.88542L35.4915 12.4277C35.1862 12.6337 34.9361 12.9115 34.7633 13.2367C34.5904 13.5619 34.5 13.9246 34.5 14.2929V21.2499C34.5 21.8467 34.7371 22.419 35.159 22.8409C35.581 23.2629 36.1533 23.4999 36.75 23.4999H37.5C37.6989 23.4999 37.8897 23.5789 38.0303 23.7196C38.171 23.8602 38.25 24.051 38.25 24.2499C38.25 24.4488 38.171 24.6396 38.0303 24.7803C37.8897 24.9209 37.6989 24.9999 37.5 24.9999H36.75C35.7558 24.9987 34.8027 24.6033 34.0997 23.9003C33.3967 23.1973 33.0012 22.2441 33 21.2499V14.2929C32.9992 13.6792 33.1493 13.0747 33.437 12.5326C33.7248 11.9905 34.1413 11.5275 34.65 11.1842L39.9 7.64117C40.519 7.22114 41.2497 6.99658 41.9978 6.99658C42.7458 6.99658 43.4766 7.22114 44.0955 7.64117L49.3455 11.1842C49.8547 11.5273 50.2719 11.9902 50.5604 12.5323C50.8489 13.0743 50.9998 13.6789 51 14.2929ZM47.25 18.2552C47.2519 18.9448 47.117 19.628 46.8531 20.2651C46.5892 20.9022 46.2015 21.4807 45.7125 21.9669L43.0763 24.5454C42.7877 24.8248 42.4017 24.9811 42 24.9811C41.5983 24.9811 41.2123 24.8248 40.9238 24.5454L38.2935 21.9729C37.6818 21.3631 37.23 20.6118 36.9781 19.7856C36.7263 18.9594 36.6822 18.0839 36.8497 17.2365C37.0172 16.3892 37.3912 15.5963 37.9385 14.9281C38.4858 14.2599 39.1896 13.7371 39.9873 13.4059C40.785 13.0748 41.6521 12.9456 42.5118 13.0298C43.3714 13.114 44.1969 13.409 44.9153 13.8886C45.6336 14.3682 46.2225 15.0177 46.6298 15.7794C47.037 16.541 47.2501 17.3914 47.25 18.2552ZM45.75 18.2552C45.75 17.6385 45.5979 17.0313 45.3073 16.4875C45.0166 15.9436 44.5963 15.4798 44.0835 15.1372C43.5708 14.7946 42.9815 14.5837 42.3678 14.5232C41.7541 14.4627 41.1349 14.5545 40.5652 14.7905C39.9954 15.0264 39.4927 15.3992 39.1014 15.8759C38.7102 16.3526 38.4425 16.9183 38.3221 17.5232C38.2018 18.128 38.2324 18.7531 38.4113 19.3433C38.5903 19.9334 38.912 20.4703 39.348 20.9064L41.973 23.4729L44.658 20.9004C45.0057 20.5535 45.2812 20.1411 45.4687 19.6871C45.6561 19.233 45.7517 18.7464 45.75 18.2552ZM44.25 18.2499C44.25 18.6949 44.118 19.1299 43.8708 19.5C43.6236 19.87 43.2722 20.1584 42.861 20.3287C42.4499 20.499 41.9975 20.5435 41.5611 20.4567C41.1246 20.3699 40.7237 20.1556 40.409 19.8409C40.0943 19.5262 39.8801 19.1253 39.7932 18.6889C39.7064 18.2524 39.751 17.8 39.9213 17.3889C40.0916 16.9778 40.38 16.6263 40.75 16.3791C41.12 16.1319 41.555 15.9999 42 15.9999C42.5967 15.9999 43.169 16.237 43.591 16.6589C44.013 17.0809 44.25 17.6532 44.25 18.2499Z" fill="black"/>
</g>
<defs>
<clipPath id="clip0_1373_376">
<rect width="18" height="18" fill="white" transform="translate(33 7)"/>
</clipPath>
</defs>
</svg>
