<svg width="82" height="50" viewBox="0 0 82 50" fill="none" xmlns="http://www.w3.org/2000/svg">
<rect width="82" height="50" fill="white"/>
<g clip-path="url(#clip0_1373_363)">
<path d="M49.6378 9.27715C49.379 8.76814 48.9975 8.34335 48.5334 8.04734C48.0693 7.75133 47.5397 7.59499 47 7.59473L35 7.59473C34.4604 7.59499 33.9307 7.75133 33.4666 8.04734C33.0025 8.34335 32.6211 8.76814 32.3623 9.27715C32.1013 9.77825 31.9726 10.3464 31.9901 10.9204C32.0075 11.4943 32.1705 12.0522 32.4613 12.534C33.3403 13.9042 34.499 15.0405 35.8488 15.8561C37.1987 16.6718 38.704 17.1452 40.25 17.2402V25.3299H37.25C37.0511 25.3299 36.8603 25.4148 36.7197 25.566C36.579 25.7172 36.5 25.9222 36.5 26.136C36.5 26.3498 36.579 26.5549 36.7197 26.706C36.8603 26.8572 37.0511 26.9421 37.25 26.9421H44.75C44.9489 26.9421 45.1397 26.8572 45.2803 26.706C45.421 26.5549 45.5 26.3498 45.5 26.136C45.5 25.9222 45.421 25.7172 45.2803 25.566C45.1397 25.4148 44.9489 25.3299 44.75 25.3299H41.75V17.2402C43.296 17.1452 44.8013 16.6718 46.1512 15.8561C47.501 15.0405 48.6597 13.9042 49.5388 12.534C49.8296 12.0522 49.9925 11.4943 50.0099 10.9204C50.0274 10.3464 49.8987 9.77825 49.6378 9.27715ZM35 9.20701H47C47.3978 9.20701 47.7794 9.37688 48.0607 9.67924C48.342 9.9816 48.5 10.3917 48.5 10.8193H33.5C33.5 10.3917 33.658 9.9816 33.9393 9.67924C34.2207 9.37688 34.6022 9.20701 35 9.20701ZM41 15.6562C39.7281 15.6609 38.4697 15.376 37.3077 14.8202C36.1457 14.2645 35.1064 13.4504 34.2583 12.4316H47.7418C46.8938 13.4506 45.8545 14.2649 44.6925 14.8207C43.5304 15.3765 42.2719 15.6612 41 15.6562Z" fill="black"/>
</g>
<path d="M22.5088 41L19.4568 31.2H21.3608L23.0968 36.982C23.1528 37.1593 23.2041 37.3553 23.2508 37.57C23.2974 37.7847 23.3394 37.9993 23.3768 38.214C23.4141 38.4193 23.4468 38.6107 23.4748 38.788C23.5028 38.9653 23.5308 39.1147 23.5588 39.236L23.1808 39.222C23.2928 38.7833 23.3814 38.4287 23.4468 38.158C23.5121 37.8873 23.5681 37.6633 23.6148 37.486C23.6708 37.2993 23.7268 37.1267 23.7828 36.968L25.4348 32.74H26.9888L28.5988 36.968C28.6921 37.2293 28.7761 37.4813 28.8508 37.724C28.9254 37.9573 28.9861 38.1907 29.0328 38.424C29.0888 38.648 29.1401 38.8813 29.1868 39.124L28.8508 39.194C28.8881 38.97 28.9161 38.788 28.9348 38.648C28.9534 38.508 28.9721 38.382 28.9908 38.27C29.0094 38.158 29.0281 38.0507 29.0468 37.948C29.0654 37.836 29.0934 37.7053 29.1308 37.556C29.1774 37.3973 29.2334 37.1967 29.2988 36.954L31.0208 31.2H32.9108L29.8448 41H28.5288L26.0368 35.036L26.2048 35.092L23.8388 41H22.5088ZM34.3544 41V33.622H36.0764V41H34.3544ZM35.1944 32.054C34.8491 32.054 34.5784 31.97 34.3824 31.802C34.1957 31.6247 34.1024 31.3773 34.1024 31.06C34.1024 30.7613 34.2004 30.5187 34.3964 30.332C34.5924 30.1453 34.8584 30.052 35.1944 30.052C35.5491 30.052 35.8197 30.1407 36.0064 30.318C36.2024 30.486 36.3004 30.7333 36.3004 31.06C36.3004 31.3493 36.2024 31.5873 36.0064 31.774C35.8104 31.9607 35.5397 32.054 35.1944 32.054ZM38.26 41V33.622H39.94L39.968 35.134L39.646 35.302C39.7393 34.966 39.9213 34.6627 40.192 34.392C40.4626 34.112 40.7846 33.888 41.158 33.72C41.5313 33.552 41.914 33.468 42.306 33.468C42.866 33.468 43.3326 33.58 43.706 33.804C44.0886 34.028 44.3733 34.364 44.56 34.812C44.756 35.26 44.854 35.82 44.854 36.492V41H43.132V36.618C43.132 36.2447 43.0806 35.9367 42.978 35.694C42.8753 35.442 42.7166 35.26 42.502 35.148C42.2873 35.0267 42.026 34.9707 41.718 34.98C41.466 34.98 41.2326 35.022 41.018 35.106C40.8126 35.1807 40.6306 35.2927 40.472 35.442C40.3226 35.582 40.2013 35.7453 40.108 35.932C40.024 36.1187 39.982 36.324 39.982 36.548V41H39.128C38.96 41 38.8013 41 38.652 41C38.512 41 38.3813 41 38.26 41ZM50.2492 41.14C49.4745 41.14 48.7885 40.9767 48.1912 40.65C47.6032 40.3233 47.1412 39.88 46.8052 39.32C46.4785 38.7507 46.3152 38.102 46.3152 37.374C46.3152 36.7953 46.4085 36.268 46.5952 35.792C46.7819 35.316 47.0385 34.9053 47.3652 34.56C47.7012 34.2053 48.0979 33.9347 48.5552 33.748C49.0219 33.552 49.5305 33.454 50.0812 33.454C50.5665 33.454 51.0192 33.5473 51.4392 33.734C51.8592 33.9207 52.2232 34.1773 52.5312 34.504C52.8392 34.8213 53.0725 35.204 53.2312 35.652C53.3992 36.0907 53.4785 36.5713 53.4692 37.094L53.4552 37.696H47.4772L47.1552 36.52H52.0132L51.7892 36.758V36.45C51.7612 36.1607 51.6679 35.9087 51.5092 35.694C51.3505 35.47 51.1452 35.2973 50.8932 35.176C50.6505 35.0453 50.3799 34.98 50.0812 34.98C49.6239 34.98 49.2365 35.0687 48.9192 35.246C48.6112 35.4233 48.3779 35.68 48.2192 36.016C48.0605 36.3427 47.9812 36.7533 47.9812 37.248C47.9812 37.724 48.0792 38.1393 48.2752 38.494C48.4805 38.8487 48.7652 39.124 49.1292 39.32C49.5025 39.5067 49.9365 39.6 50.4312 39.6C50.7765 39.6 51.0939 39.544 51.3832 39.432C51.6725 39.32 51.9852 39.1193 52.3212 38.83L53.1752 40.02C52.9232 40.2533 52.6339 40.454 52.3072 40.622C51.9899 40.7807 51.6539 40.9067 51.2992 41C50.9445 41.0933 50.5945 41.14 50.2492 41.14ZM57.4583 41.14C56.805 41.14 56.217 41.0327 55.6943 40.818C55.181 40.594 54.761 40.2767 54.4343 39.866L55.5543 38.9C55.8343 39.2173 56.147 39.446 56.4923 39.586C56.8377 39.726 57.2017 39.796 57.5843 39.796C57.743 39.796 57.883 39.7773 58.0043 39.74C58.135 39.7027 58.247 39.6467 58.3403 39.572C58.4337 39.4973 58.5037 39.4133 58.5503 39.32C58.6063 39.2173 58.6343 39.1053 58.6343 38.984C58.6343 38.76 58.5503 38.5827 58.3823 38.452C58.289 38.3867 58.1397 38.3167 57.9343 38.242C57.7383 38.1673 57.4817 38.0927 57.1643 38.018C56.6603 37.8873 56.2403 37.738 55.9043 37.57C55.5683 37.3927 55.307 37.1967 55.1203 36.982C54.9617 36.8047 54.8403 36.604 54.7563 36.38C54.6817 36.156 54.6443 35.9133 54.6443 35.652C54.6443 35.3253 54.7143 35.0313 54.8543 34.77C55.0037 34.4993 55.2043 34.266 55.4563 34.07C55.7083 33.874 56.0023 33.7247 56.3383 33.622C56.6743 33.5193 57.0243 33.468 57.3883 33.468C57.7617 33.468 58.121 33.5147 58.4663 33.608C58.821 33.7013 59.1477 33.8367 59.4463 34.014C59.7543 34.182 60.0157 34.3873 60.2303 34.63L59.2783 35.68C59.101 35.512 58.905 35.3627 58.6903 35.232C58.485 35.1013 58.275 34.9987 58.0603 34.924C57.8457 34.84 57.645 34.798 57.4583 34.798C57.281 34.798 57.1223 34.8167 56.9823 34.854C56.8423 34.882 56.7257 34.9287 56.6323 34.994C56.539 35.0593 56.4643 35.1433 56.4083 35.246C56.3617 35.3393 56.3383 35.4513 56.3383 35.582C56.3477 35.694 56.3757 35.8013 56.4223 35.904C56.4783 35.9973 56.553 36.0767 56.6463 36.142C56.749 36.2073 56.903 36.282 57.1083 36.366C57.3137 36.45 57.5797 36.5293 57.9063 36.604C58.3637 36.7253 58.7463 36.8607 59.0543 37.01C59.3623 37.1593 59.605 37.332 59.7823 37.528C59.9597 37.696 60.0857 37.892 60.1603 38.116C60.235 38.34 60.2723 38.5873 60.2723 38.858C60.2723 39.2967 60.1463 39.6887 59.8943 40.034C59.6517 40.3793 59.3157 40.65 58.8863 40.846C58.4663 41.042 57.9903 41.14 57.4583 41.14Z" fill="black"/>
<defs>
<clipPath id="clip0_1373_363">
<rect width="18" height="19.3474" fill="white" transform="translate(32 7.59473)"/>
</clipPath>
</defs>
</svg>
