<svg width="172" height="20" viewBox="0 0 172 20" fill="none" xmlns="http://www.w3.org/2000/svg">
<path d="M5.10183 7.65844C6.054 7.65844 6.82915 6.83712 6.82915 5.82823C6.82915 4.81935 6.05213 4 5.10183 4C4.15153 4 3.37451 4.82132 3.37451 5.83021C3.37451 6.83909 4.14966 7.66041 5.10183 7.66041V7.65844Z" fill="#6D23F9"/>
<path d="M5.85645 9.29114C5.85645 10.3 6.6316 11.1213 7.58376 11.1213C8.53593 11.1213 9.31108 10.3 9.31108 9.29114C9.31108 8.28226 8.53593 7.46094 7.58376 7.46094C6.6316 7.46094 5.85645 8.28226 5.85645 9.29114Z" fill="#6D23F9"/>
<path d="M10.2483 10.9219C9.29615 10.9219 8.521 11.7432 8.521 12.7521C8.521 13.761 9.29615 14.5823 10.2483 14.5823C11.2005 14.5823 11.9756 13.761 11.9756 12.7521C11.9756 11.7432 11.2005 10.9219 10.2483 10.9219Z" fill="#6D23F9"/>
<path d="M3.28298 11.783C4.23515 11.783 5.0103 10.9616 5.0103 9.95276C5.0103 8.94388 4.23515 8.12256 3.28298 8.12256C2.33081 8.12256 1.55566 8.94388 1.55566 9.95276C1.55566 10.9616 2.33081 11.783 3.28298 11.783Z" fill="#6D23F9"/>
<path d="M5.94949 11.5854C4.99732 11.5854 4.22217 12.4068 4.22217 13.4157C4.22217 14.4245 4.99732 15.2459 5.94949 15.2459C6.90165 15.2459 7.6768 14.4245 7.6768 13.4157C7.6768 12.4068 6.90165 11.5854 5.94949 11.5854Z" fill="#6D23F9"/>
<path d="M1.72732 12.3394C0.77515 12.3394 0 13.1607 0 14.1696C0 15.1784 0.77515 15.9998 1.72732 15.9998C2.67949 15.9998 3.45464 15.1784 3.45464 14.1696C3.45464 13.1607 2.67949 12.3394 1.72732 12.3394Z" fill="#6D23F9"/>
<path d="M12.9631 7.26356C12.9109 7.11549 12.8066 6.999 12.6687 6.93385C12.5327 6.8687 12.3799 6.86475 12.242 6.92003C11.7538 7.11549 10.8892 5.71964 10.483 4.63178C10.3693 4.32773 10.0451 4.17966 9.75815 4.29812C9.47119 4.41855 9.33144 4.76208 9.44324 5.06613C9.49728 5.20828 9.68734 5.69989 9.9892 6.25073C9.83082 6.33365 9.69293 6.43829 9.57927 6.56662C9.37802 6.79367 9.15629 7.20038 9.22896 7.85784C9.2625 8.15596 9.501 8.38103 9.78423 8.38103C9.80659 8.38103 9.82895 8.38103 9.84945 8.37709C10.155 8.33957 10.3749 8.04342 10.3395 7.71963C10.3209 7.55774 10.3395 7.43928 10.3935 7.37807C10.442 7.32082 10.5389 7.27738 10.66 7.25369C11.3066 8.02566 11.983 8.29022 12.6389 8.02566C12.9277 7.90917 13.073 7.56761 12.9631 7.26159V7.26356Z" fill="#6D23F9"/>
<path d="M20.4345 15L17.6106 4.81818H19.2264L21.21 12.7031H21.3045L23.3677 4.81818H24.9686L27.0318 12.7081H27.1262L29.1049 4.81818H30.7257L27.8968 15H26.3507L24.2079 7.37358H24.1284L21.9856 15H20.4345ZM31.5286 15V7.36364H32.9654V8.5767H33.0449C33.1841 8.16572 33.4294 7.84257 33.7807 7.60724C34.1354 7.36861 34.5364 7.24929 34.9838 7.24929C35.0766 7.24929 35.186 7.2526 35.312 7.25923C35.4412 7.26586 35.5423 7.27415 35.6152 7.28409V8.70597C35.5556 8.68939 35.4495 8.67116 35.2971 8.65128C35.1446 8.62808 34.9921 8.61648 34.8397 8.61648C34.4883 8.61648 34.1751 8.69105 33.9 8.8402C33.6283 8.98603 33.4128 9.18987 33.2537 9.4517C33.0946 9.71023 33.0151 10.0052 33.0151 10.3366V15H31.5286ZM36.9016 15V7.36364H38.3881V15H36.9016ZM37.6523 6.18537C37.3938 6.18537 37.1718 6.09919 36.9862 5.92685C36.8039 5.75118 36.7127 5.54238 36.7127 5.30043C36.7127 5.05516 36.8039 4.84635 36.9862 4.67401C37.1718 4.49834 37.3938 4.41051 37.6523 4.41051C37.9109 4.41051 38.1313 4.49834 38.3136 4.67401C38.4992 4.84635 38.592 5.05516 38.592 5.30043C38.592 5.54238 38.4992 5.75118 38.3136 5.92685C38.1313 6.09919 37.9109 6.18537 37.6523 6.18537ZM43.9526 7.36364V8.55682H39.7814V7.36364H43.9526ZM40.9 5.53409H42.3865V12.7578C42.3865 13.0462 42.4296 13.2633 42.5158 13.4091C42.602 13.5516 42.713 13.6494 42.8489 13.7024C42.9881 13.7521 43.1389 13.777 43.3013 13.777C43.4206 13.777 43.525 13.7687 43.6145 13.7521C43.704 13.7356 43.7736 13.7223 43.8233 13.7124L44.0918 14.9403C44.0056 14.9735 43.883 15.0066 43.7239 15.0398C43.5648 15.0762 43.3659 15.0961 43.1273 15.0994C42.7362 15.1061 42.3716 15.0365 42.0336 14.8906C41.6955 14.7448 41.4221 14.5194 41.2132 14.2145C41.0044 13.9096 40.9 13.5268 40.9 13.0661V5.53409ZM45.5969 15V7.36364H47.0835V15H45.5969ZM46.3477 6.18537C46.0891 6.18537 45.8671 6.09919 45.6815 5.92685C45.4992 5.75118 45.408 5.54238 45.408 5.30043C45.408 5.05516 45.4992 4.84635 45.6815 4.67401C45.8671 4.49834 46.0891 4.41051 46.3477 4.41051C46.6062 4.41051 46.8266 4.49834 47.0089 4.67401C47.1945 4.84635 47.2873 5.05516 47.2873 5.30043C47.2873 5.54238 47.1945 5.75118 47.0089 5.92685C46.8266 6.09919 46.6062 6.18537 46.3477 6.18537ZM50.5698 10.4659V15H49.0833V7.36364H50.5101V8.60653H50.6046C50.7802 8.20218 51.0553 7.87737 51.4299 7.6321C51.8077 7.38684 52.2833 7.2642 52.8567 7.2642C53.3771 7.2642 53.8328 7.37358 54.2239 7.59233C54.615 7.80777 54.9183 8.12926 55.1337 8.55682C55.3491 8.98437 55.4569 9.51302 55.4569 10.1428V15H53.9703V10.3217C53.9703 9.76823 53.8262 9.3357 53.5378 9.02415C53.2495 8.70928 52.8534 8.55185 52.3496 8.55185C52.0049 8.55185 51.6983 8.62642 51.4299 8.77557C51.1647 8.92472 50.9542 9.14347 50.7985 9.43182C50.646 9.71686 50.5698 10.0616 50.5698 10.4659ZM60.6522 18.0227C60.0456 18.0227 59.5236 17.9432 59.0861 17.7841C58.6519 17.625 58.2973 17.4145 58.0222 17.1527C57.7471 16.8909 57.5416 16.6042 57.4057 16.2926L58.6834 15.7656C58.7729 15.9115 58.8922 16.0656 59.0414 16.228C59.1938 16.3937 59.3993 16.5346 59.6578 16.6506C59.9197 16.7666 60.2561 16.8246 60.6671 16.8246C61.2305 16.8246 61.6962 16.687 62.0641 16.4119C62.432 16.1402 62.6159 15.706 62.6159 15.1094V13.608H62.5215C62.432 13.7704 62.3027 13.951 62.1337 14.1499C61.968 14.3487 61.7393 14.5211 61.4476 14.6669C61.156 14.8127 60.7765 14.8857 60.3091 14.8857C59.7059 14.8857 59.1623 14.7448 58.6784 14.4631C58.1979 14.178 57.8167 13.7588 57.535 13.2053C57.2566 12.6484 57.1174 11.964 57.1174 11.152C57.1174 10.34 57.2549 9.64394 57.53 9.06392C57.8084 8.4839 58.1896 8.03977 58.6735 7.73153C59.1574 7.41998 59.7059 7.2642 60.3191 7.2642C60.793 7.2642 61.1758 7.34375 61.4675 7.50284C61.7592 7.65862 61.9862 7.84091 62.1486 8.04972C62.3143 8.25852 62.4419 8.44247 62.5314 8.60156H62.6408V7.36364H64.0975V15.169C64.0975 15.8253 63.945 16.3639 63.6401 16.7848C63.3352 17.2057 62.9225 17.5173 62.4022 17.7195C61.8851 17.9216 61.3018 18.0227 60.6522 18.0227ZM60.6373 13.6527C61.0648 13.6527 61.4261 13.5533 61.7211 13.3544C62.0194 13.1522 62.2447 12.8639 62.3972 12.4893C62.553 12.1115 62.6309 11.6591 62.6309 11.1321C62.6309 10.6184 62.5546 10.166 62.4022 9.77486C62.2497 9.38376 62.026 9.07884 61.731 8.86009C61.436 8.63802 61.0714 8.52699 60.6373 8.52699C60.1898 8.52699 59.8169 8.64299 59.5186 8.875C59.2203 9.10369 58.995 9.41525 58.8425 9.80966C58.6934 10.2041 58.6188 10.6449 58.6188 11.1321C58.6188 11.6326 58.695 12.0717 58.8475 12.4496C58.9999 12.8274 59.2253 13.1224 59.5236 13.3345C59.8252 13.5466 60.1964 13.6527 60.6373 13.6527ZM69.4134 6.14062V4.81818H77.2933V6.14062H74.1165V15H72.5852V6.14062H69.4134ZM80.0985 15.169C79.6146 15.169 79.1771 15.0795 78.786 14.9006C78.3949 14.7183 78.085 14.4548 77.8564 14.1101C77.631 13.7654 77.5183 13.3428 77.5183 12.8423C77.5183 12.4115 77.6011 12.0568 77.7669 11.7784C77.9326 11.5 78.1563 11.2796 78.438 11.1172C78.7198 10.9548 79.0346 10.8321 79.3826 10.7493C79.7306 10.6664 80.0853 10.6035 80.4466 10.5604C80.9039 10.5073 81.2752 10.4643 81.5602 10.4311C81.8452 10.3946 82.0524 10.3366 82.1816 10.2571C82.3109 10.1776 82.3755 10.0483 82.3755 9.86932V9.83452C82.3755 9.40033 82.2529 9.06392 82.0076 8.82528C81.7657 8.58665 81.4044 8.46733 80.9238 8.46733C80.4234 8.46733 80.0289 8.57836 79.7406 8.80043C79.4556 9.01918 79.2583 9.26278 79.149 9.53125L77.752 9.21307C77.9177 8.74905 78.1596 8.37453 78.4778 8.08949C78.7993 7.80114 79.1689 7.59233 79.5865 7.46307C80.0041 7.33049 80.4432 7.2642 80.9039 7.2642C81.2089 7.2642 81.532 7.30066 81.8734 7.37358C82.2181 7.44318 82.5396 7.57244 82.8379 7.76136C83.1395 7.95028 83.3864 8.22041 83.5787 8.57173C83.7709 8.91974 83.867 9.37216 83.867 9.92898V15H82.4153V13.956H82.3556C82.2595 14.1482 82.1154 14.3371 81.9231 14.5227C81.7309 14.7083 81.484 14.8625 81.1824 14.9851C80.8807 15.1077 80.5195 15.169 80.0985 15.169ZM80.4217 13.9759C80.8327 13.9759 81.184 13.8946 81.4757 13.7322C81.7707 13.5698 81.9944 13.3577 82.1468 13.0959C82.3026 12.8307 82.3805 12.5473 82.3805 12.2457V11.2614C82.3275 11.3144 82.2247 11.3641 82.0723 11.4105C81.9231 11.4536 81.7524 11.4917 81.5602 11.5249C81.368 11.5547 81.1807 11.5829 80.9984 11.6094C80.8161 11.6326 80.6636 11.6525 80.541 11.669C80.2527 11.7055 79.9892 11.7668 79.7505 11.853C79.5152 11.9392 79.3263 12.0634 79.1838 12.2259C79.0446 12.3849 78.975 12.5971 78.975 12.8622C78.975 13.2301 79.1109 13.5085 79.3826 13.6974C79.6544 13.883 80.0008 13.9759 80.4217 13.9759ZM91.5692 9.22798L90.2219 9.46662C90.1656 9.29427 90.0761 9.13021 89.9535 8.97443C89.8342 8.81865 89.6718 8.69105 89.4663 8.59162C89.2608 8.49219 89.0039 8.44247 88.6957 8.44247C88.2747 8.44247 87.9234 8.53693 87.6417 8.72585C87.36 8.91146 87.2191 9.15175 87.2191 9.44673C87.2191 9.70194 87.3136 9.90743 87.5025 10.0632C87.6914 10.219 87.9963 10.3466 88.4173 10.446L89.6303 10.7244C90.333 10.8868 90.8567 11.1371 91.2013 11.4751C91.546 11.8132 91.7184 12.2524 91.7184 12.7926C91.7184 13.25 91.5858 13.6577 91.3207 14.0156C91.0588 14.3703 90.6926 14.6487 90.2219 14.8509C89.7546 15.053 89.2127 15.1541 88.5962 15.1541C87.7411 15.1541 87.0434 14.9718 86.5032 14.6072C85.9629 14.2393 85.6315 13.7173 85.5089 13.0412L86.9457 12.8224C87.0352 13.197 87.2191 13.4804 87.4975 13.6726C87.7759 13.8615 88.1388 13.956 88.5863 13.956C89.0735 13.956 89.4629 13.8549 89.7546 13.6527C90.0463 13.4472 90.1921 13.197 90.1921 12.902C90.1921 12.6634 90.1026 12.4628 89.9237 12.3004C89.748 12.138 89.4779 12.0154 89.1133 11.9325L87.8207 11.6491C87.1081 11.4867 86.5811 11.2282 86.2397 10.8736C85.9016 10.5189 85.7326 10.0698 85.7326 9.52628C85.7326 9.07552 85.8585 8.68111 86.1104 8.34304C86.3623 8.00497 86.7103 7.74148 87.1545 7.55256C87.5986 7.36032 88.1074 7.2642 88.6808 7.2642C89.506 7.2642 90.1557 7.44318 90.6296 7.80114C91.1036 8.15578 91.4168 8.63139 91.5692 9.22798ZM96.9174 7.36364V8.55682H92.7463V7.36364H96.9174ZM93.8649 5.53409H95.3514V12.7578C95.3514 13.0462 95.3945 13.2633 95.4806 13.4091C95.5668 13.5516 95.6779 13.6494 95.8137 13.7024C95.9529 13.7521 96.1038 13.777 96.2662 13.777C96.3855 13.777 96.4899 13.7687 96.5794 13.7521C96.6689 13.7356 96.7385 13.7223 96.7882 13.7124L97.0566 14.9403C96.9705 14.9735 96.8478 15.0066 96.6887 15.0398C96.5297 15.0762 96.3308 15.0961 96.0922 15.0994C95.7011 15.1061 95.3365 15.0365 94.9984 14.8906C94.6603 14.7448 94.3869 14.5194 94.1781 14.2145C93.9693 13.9096 93.8649 13.5268 93.8649 13.0661V5.53409ZM98.5618 15V7.36364H100.048V15H98.5618ZM99.3125 6.18537C99.054 6.18537 98.8319 6.09919 98.6463 5.92685C98.464 5.75118 98.3729 5.54238 98.3729 5.30043C98.3729 5.05516 98.464 4.84635 98.6463 4.67401C98.8319 4.49834 99.054 4.41051 99.3125 4.41051C99.571 4.41051 99.7914 4.49834 99.9737 4.67401C100.159 4.84635 100.252 5.05516 100.252 5.30043C100.252 5.54238 100.159 5.75118 99.9737 5.92685C99.7914 6.09919 99.571 6.18537 99.3125 6.18537ZM103.535 10.4659V15H102.048V7.36364H103.475V8.60653H103.569C103.745 8.20218 104.02 7.87737 104.395 7.6321C104.773 7.38684 105.248 7.2642 105.822 7.2642C106.342 7.2642 106.798 7.37358 107.189 7.59233C107.58 7.80777 107.883 8.12926 108.099 8.55682C108.314 8.98437 108.422 9.51302 108.422 10.1428V15H106.935V10.3217C106.935 9.76823 106.791 9.3357 106.503 9.02415C106.214 8.70928 105.818 8.55185 105.314 8.55185C104.97 8.55185 104.663 8.62642 104.395 8.77557C104.13 8.92472 103.919 9.14347 103.763 9.43182C103.611 9.71686 103.535 10.0616 103.535 10.4659ZM113.617 18.0227C113.01 18.0227 112.488 17.9432 112.051 17.7841C111.617 17.625 111.262 17.4145 110.987 17.1527C110.712 16.8909 110.506 16.6042 110.371 16.2926L111.648 15.7656C111.738 15.9115 111.857 16.0656 112.006 16.228C112.159 16.3937 112.364 16.5346 112.623 16.6506C112.885 16.7666 113.221 16.8246 113.632 16.8246C114.195 16.8246 114.661 16.687 115.029 16.4119C115.397 16.1402 115.581 15.706 115.581 15.1094V13.608H115.486C115.397 13.7704 115.268 13.951 115.099 14.1499C114.933 14.3487 114.704 14.5211 114.412 14.6669C114.121 14.8127 113.741 14.8857 113.274 14.8857C112.671 14.8857 112.127 14.7448 111.643 14.4631C111.163 14.178 110.782 13.7588 110.5 13.2053C110.221 12.6484 110.082 11.964 110.082 11.152C110.082 10.34 110.22 9.64394 110.495 9.06392C110.773 8.4839 111.154 8.03977 111.638 7.73153C112.122 7.41998 112.671 7.2642 113.284 7.2642C113.758 7.2642 114.141 7.34375 114.432 7.50284C114.724 7.65862 114.951 7.84091 115.113 8.04972C115.279 8.25852 115.407 8.44247 115.496 8.60156H115.606V7.36364H117.062V15.169C117.062 15.8253 116.91 16.3639 116.605 16.7848C116.3 17.2057 115.887 17.5173 115.367 17.7195C114.85 17.9216 114.267 18.0227 113.617 18.0227ZM113.602 13.6527C114.03 13.6527 114.391 13.5533 114.686 13.3544C114.984 13.1522 115.21 12.8639 115.362 12.4893C115.518 12.1115 115.596 11.6591 115.596 11.1321C115.596 10.6184 115.519 10.166 115.367 9.77486C115.215 9.38376 114.991 9.07884 114.696 8.86009C114.401 8.63802 114.036 8.52699 113.602 8.52699C113.155 8.52699 112.782 8.64299 112.483 8.875C112.185 9.10369 111.96 9.41525 111.807 9.80966C111.658 10.2041 111.584 10.6449 111.584 11.1321C111.584 11.6326 111.66 12.0717 111.812 12.4496C111.965 12.8274 112.19 13.1224 112.488 13.3345C112.79 13.5466 113.161 13.6527 113.602 13.6527ZM131.098 4.81818V15H129.686L124.511 7.53267H124.417V15H122.88V4.81818H124.302L129.483 12.2955H129.577V4.81818H131.098ZM136.437 15.1541C135.721 15.1541 135.096 14.9901 134.562 14.6619C134.029 14.3338 133.614 13.8748 133.319 13.2848C133.024 12.6948 132.877 12.0054 132.877 11.2166C132.877 10.4245 133.024 9.73177 133.319 9.13849C133.614 8.54522 134.029 8.08452 134.562 7.75639C135.096 7.42827 135.721 7.2642 136.437 7.2642C137.153 7.2642 137.777 7.42827 138.311 7.75639C138.845 8.08452 139.259 8.54522 139.554 9.13849C139.849 9.73177 139.996 10.4245 139.996 11.2166C139.996 12.0054 139.849 12.6948 139.554 13.2848C139.259 13.8748 138.845 14.3338 138.311 14.6619C137.777 14.9901 137.153 15.1541 136.437 15.1541ZM136.442 13.9062C136.906 13.9062 137.29 13.7836 137.595 13.5384C137.9 13.2931 138.125 12.9666 138.271 12.5589C138.42 12.1513 138.495 11.7022 138.495 11.2116C138.495 10.7244 138.42 10.277 138.271 9.86932C138.125 9.45833 137.9 9.12855 137.595 8.87997C137.29 8.63139 136.906 8.5071 136.442 8.5071C135.974 8.5071 135.586 8.63139 135.278 8.87997C134.973 9.12855 134.746 9.45833 134.597 9.86932C134.451 10.277 134.378 10.7244 134.378 11.2116C134.378 11.7022 134.451 12.1513 134.597 12.5589C134.746 12.9666 134.973 13.2931 135.278 13.5384C135.586 13.7836 135.974 13.9062 136.442 13.9062ZM145.22 7.36364V8.55682H141.049V7.36364H145.22ZM142.168 5.53409H143.654V12.7578C143.654 13.0462 143.697 13.2633 143.783 13.4091C143.87 13.5516 143.981 13.6494 144.116 13.7024C144.256 13.7521 144.406 13.777 144.569 13.777C144.688 13.777 144.793 13.7687 144.882 13.7521C144.972 13.7356 145.041 13.7223 145.091 13.7124L145.359 14.9403C145.273 14.9735 145.151 15.0066 144.991 15.0398C144.832 15.0762 144.634 15.0961 144.395 15.0994C144.004 15.1061 143.639 15.0365 143.301 14.8906C142.963 14.7448 142.69 14.5194 142.481 14.2145C142.272 13.9096 142.168 13.5268 142.168 13.0661V5.53409ZM150.074 15.1541C149.321 15.1541 148.673 14.9934 148.13 14.6719C147.59 14.3471 147.172 13.8913 146.877 13.3047C146.585 12.7147 146.439 12.0237 146.439 11.2315C146.439 10.4493 146.585 9.75994 146.877 9.16335C147.172 8.56676 147.583 8.10109 148.11 7.76633C148.64 7.43158 149.26 7.2642 149.969 7.2642C150.4 7.2642 150.818 7.33546 151.222 7.47798C151.626 7.6205 151.989 7.84422 152.311 8.14915C152.632 8.45407 152.886 8.85014 153.072 9.33736C153.257 9.82126 153.35 10.4096 153.35 11.1023V11.6293H147.28V10.5156H151.893C151.893 10.1245 151.814 9.77817 151.655 9.47656C151.496 9.17164 151.272 8.93134 150.983 8.75568C150.698 8.58002 150.364 8.49219 149.979 8.49219C149.562 8.49219 149.197 8.59493 148.885 8.80043C148.577 9.0026 148.339 9.26776 148.17 9.59588C148.004 9.92069 147.921 10.2737 147.921 10.6548V11.5249C147.921 12.0353 148.01 12.4695 148.189 12.8274C148.372 13.1854 148.625 13.4588 148.95 13.6477C149.275 13.8333 149.654 13.9261 150.089 13.9261C150.37 13.9261 150.627 13.8864 150.859 13.8068C151.091 13.724 151.292 13.6013 151.461 13.4389C151.63 13.2765 151.759 13.076 151.849 12.8374L153.256 13.0909C153.143 13.5052 152.941 13.8681 152.649 14.1797C152.361 14.4879 151.998 14.7282 151.56 14.9006C151.126 15.0696 150.631 15.1541 150.074 15.1541Z" fill="#6D23F9"/>
<path d="M160.92 16.0065C161.247 16.3331 161.773 16.3331 162.1 16.0065L167.64 10.4665C167.9 10.2065 167.9 9.78647 167.64 9.52646L162.1 3.98646C161.773 3.6598 161.247 3.6598 160.92 3.98646C160.593 4.31313 160.593 4.8398 160.92 5.16646L165.747 9.9998L160.913 14.8331C160.593 15.1531 160.593 15.6865 160.92 16.0065Z" fill="#6D23F9"/>
</svg>
